<svg width="200" height="200" fill="none" xmlns="http://www.w3.org/2000/svg"><g clip-path="url(#clip0_305_14668)" fill="#AFC4CF"><path d="M98.166 30.133a5.837 5.837 0 004.141 1.716 5.858 5.858 0 004.142-9.999l-7.841-7.841a5.857 5.857 0 00-8.283 8.283l7.84 7.841zm40.648 1.716a5.836 5.836 0 004.141-1.716l7.841-7.841a5.856 5.856 0 000-8.283 5.856 5.856 0 00-8.283 0l-7.841 7.841a5.858 5.858 0 004.142 9.999zM120.56 22.83a5.857 5.857 0 005.857-5.857V5.884a5.857 5.857 0 10-11.714 0v11.089a5.858 5.858 0 005.857 5.857z"/><path d="M198.748 50.116a5.86 5.86 0 00-4.642-2.284H51.44L39.085 4.259A5.857 5.857 0 0033.45 0H5.896a5.857 5.857 0 000 11.714h23.127l12.337 43.51 18.935 71.55a30.137 30.137 0 0110.45-1.86h99.861c3.669 0 7.078 1.132 9.899 3.063l19.263-72.79a5.857 5.857 0 00-1.02-5.071zm-26.521 112.043l-51.666-.102H70.747a6.865 6.865 0 01-6.857-6.857 6.865 6.865 0 016.857-6.857h99.861a5.857 5.857 0 000-11.714H70.747c-10.24 0-18.572 8.331-18.572 18.571 0 4.798 1.83 9.177 4.827 12.476a18.877 18.877 0 00-5.557 13.388c0 10.442 8.495 18.936 18.937 18.936 10.442 0 18.936-8.494 18.936-18.936 0-2.583-.521-5.047-1.462-7.292h65.826a18.822 18.822 0 00-1.462 7.292c0 10.442 8.495 18.936 18.936 18.936 10.442 0 18.936-8.494 18.936-18.936 0-10.082-7.92-18.347-17.865-18.905z"/></g><defs><clipPath id="clip0_305_14668"><path fill="#fff" d="M0 0h200v200H0z"/></clipPath></defs></svg>