<svg width="141" height="40" fill="none" xmlns="http://www.w3.org/2000/svg"><path d="M39.676 21.35c-.182-2.27-1.362-3.602-3.754-3.602-2.21 0-3.57 1.392-3.813 3.602h7.567zm3.573.848c0 .727-.06 1.483-.182 2.088H32.169c.393 1.817 1.937 2.937 4.843 2.937l.039-.001.031-.002a12.233 12.233 0 00.827-.035c.076-.007.15-.015.224-.02 1.21-.122 2.36-.447 3.416-.941.082-.04.168-.079.248-.12h.001c.214-.108.422-.226.627-.348h.092v3.064a10.516 10.516 0 01-5.465 1.521v-.007c-.073.001-.145.008-.22.008-5.48 0-8.476-3.118-8.476-7.66 0-4.873 3.087-8.082 7.567-8.082s7.327 3.178 7.327 7.598M5.5 30.038h3.724l.696-13.046.151-3.542h.06l.789 3.542 3.027 13.046h4.662l3.057-13.046.756-3.542h.06l.152 3.542.727 13.046h3.874L25.964 9.151h-6.175l-2.786 12.533-.604 3.178h-.06l-.637-3.178-2.785-12.533H6.741L5.5 30.038zm64.087.303c-3.481 0-5.45-1.605-5.45-5.236V17.96H59.96v7.598c0 1.12.424 1.575 1.332 1.575.212 0 .453 0 .726-.06h.091v2.965a8.13 8.13 0 01-1.634.182c-2.058 0-3.331-.786-3.875-2.512-1.09 1.695-2.815 2.634-4.964 2.634-3.845 0-6.963-2.997-6.963-7.901 0-4.844 3.118-7.84 6.963-7.84 1.905 0 3.481.725 4.57 2.057V9.151h3.754v5.752h4.177v-3.602h3.754v3.602h4.027v3.057h-4.027v6.963c0 1.513.757 2.24 2.212 2.24a6.39 6.39 0 001.724-.212h.091v3.088c-.727.182-1.605.303-2.33.303m-17.165-3.179c2.543 0 3.965-1.967 3.965-4.722 0-2.726-1.422-4.693-3.965-4.693-2.574 0-3.906 1.967-3.906 4.693 0 2.755 1.332 4.722 3.906 4.722zm24.914-5.056c0-2.452 1.271-3.814 3.693-3.814.423 0 .878.06 1.3.183h.061v-3.513c-.392-.15-.907-.241-1.483-.241-1.816 0-3.027 1.12-3.723 2.935v-2.754h-3.603V30.04h3.755v-7.932zm13.078 8.235c-4.753 0-7.963-3.451-7.963-7.871s3.21-7.87 7.963-7.87c4.721 0 7.931 3.45 7.931 7.87s-3.21 7.87-7.93 7.87zm0-3.24c2.694 0 4.086-1.966 4.086-4.631 0-2.664-1.392-4.632-4.086-4.632-2.634 0-4.118 1.968-4.118 4.632 0 2.665 1.484 4.632 4.118 4.632zm13.692-5.509c0-2.33 1.18-3.845 3.36-3.845 2.149 0 3.149 1.423 3.149 3.845v8.446h3.753v-8.597c0-3.633-1.876-6.842-5.963-6.842-2.179 0-3.633 1.09-4.451 2.725v-2.422h-3.603V30.04h3.755v-8.446zm16.891-10.383c0 1.21-.968 2.24-2.238 2.24-1.211 0-2.212-1.03-2.212-2.24A2.224 2.224 0 01118.76 9c1.27 0 2.238.999 2.238 2.21zm2.09 18.829a9.334 9.334 0 01-1.847.212c-2.875 0-4.42-1.514-4.42-4.299V14.903h3.785V25.68c0 .998.483 1.483 1.514 1.483.241 0 .544-.031.877-.09h.091v2.966zm.363-7.568c0-4.42 3.208-7.87 7.992-7.87 1.362 0 2.907.333 4.057.968v3.33h-.091c-1.181-.696-2.361-1.03-3.694-1.03-2.876 0-4.419 1.968-4.419 4.602 0 2.634 1.543 4.602 4.419 4.602 1.333 0 2.513-.334 3.694-1.03h.091v3.33c-1.15.637-2.695.969-4.057.969-4.784 0-7.992-3.451-7.992-7.871z" fill="#170F5F"/></svg>