<svg width="350" height="822" fill="none" xmlns="http://www.w3.org/2000/svg"><g opacity=".3" stroke="#fff"><path d="M311.158 1074.05c-65.347-36.99-177.95-127.809-105.578-195.196 90.465-84.233 99.752-93.952 35.871-131.242-63.88-37.291-157.223-131.014-60.164-152.494 97.058-21.479 243.473-11.092 209.016-93.255-34.457-82.164-159.397-137.385-103.879-207.483 55.518-70.097 260.507-94.48 201.048-199.071"/><path d="M286.307 1072.21c-63.118-39.09-170.886-133.508-97.011-198.468 92.345-81.2 101.864-90.606 40.204-129.95-61.659-39.344-150.319-136.032-53.769-154.32 96.549-18.288 240.626-3.125 209.642-86.339-30.984-83.214-152.23-142.468-94.884-210.687 57.346-68.219 260.489-85.881 205.66-192.319"/><path d="M261.219 1070.12c-60.823-41.09-163.644-138.875-88.346-201.385 94.123-78.138 103.864-87.227 44.49-128.515-59.374-41.288-143.258-140.728-47.322-155.886 95.937-15.158 237.524 4.63 210.043-79.493-27.48-84.122-144.904-147.218-85.793-213.517 59.111-66.298 260.193-77.396 210.048-185.487"/><path d="M235.905 1067.76c-58.467-42.96-156.24-143.892-79.597-203.932 95.802-75.05 105.754-83.818 48.725-126.939-57.029-43.121-136.056-145.097-40.831-157.19 95.224-12.093 234.176 12.165 210.224-72.723-23.952-84.888-137.436-151.632-76.623-215.97 60.813-64.337 259.625-69.036 214.212-178.582"/><path d="M210.379 1065.13c-56.054-44.73-148.686-148.563-70.781-206.115 97.382-71.94 107.535-80.383 52.906-125.224-54.63-44.84-128.726-149.136-34.309-158.231 94.417-9.096 230.597 19.474 210.192-66.037-20.404-85.51-129.839-155.704-67.388-218.042 62.451-62.338 258.795-60.81 218.154-171.612"/><path d="M184.655 1062.22c-53.591-46.37-141-152.878-61.911-207.926 98.862-68.811 109.206-76.927 57.025-123.372-52.181-46.445-121.282-152.841-27.765-159.01 93.518-6.168 226.796 26.549 209.953-59.44-16.843-85.988-122.128-159.432-58.104-219.734 64.023-60.303 257.711-52.725 221.872-164.583"/><path d="M158.745 1059.04c-51.082-47.91-133.197-156.85-53.003-209.382 100.244-65.666 110.768-73.45 61.08-121.384-49.687-47.935-113.739-156.209-21.208-159.525 92.53-3.315 222.785 33.383 209.511-52.939-13.274-86.322-114.318-162.812-48.786-221.045 65.531-58.233 256.382-44.788 225.368-157.504"/><path d="M132.662 1055.57C84.13 1006.25 7.37 895.11 88.592 845.104c101.528-62.507 112.222-69.958 65.066-119.264-47.155-49.306-106.111-159.238-14.652-159.776 91.459-.537 218.578 39.971 208.875-46.541-9.703-86.512-106.422-165.842-39.449-221.974 66.973-56.131 254.816-37.006 228.643-150.379"/><path d="M106.421 1051.81c-45.948-50.62-117.3-163.712-35.129-211.183 102.714-59.339 113.568-66.454 68.979-117.014-44.588-50.56-98.414-161.925-8.105-159.763 90.309 2.161 214.186 46.306 208.051-40.251-6.136-86.558-98.458-168.521-30.11-222.521 68.349-54 253.024-29.387 231.699-143.217"/><path d="M80.034 1047.75C36.702 995.961-29.203 881.152 53.841 836.221c103.804-56.163 114.807-62.94 72.814-114.635-41.992-51.695-90.66-164.27-1.578-159.49 89.082 4.78 209.621 52.386 207.044-34.074-2.577-86.46-90.439-170.846-20.78-222.687 69.658-51.84 251.012-21.936 234.534-136.024"/><path d="M53.517 1043.39C12.824 990.552-47.6 874.27 36.239 831.884c104.799-52.984 115.941-59.42 76.568-112.132-39.373-52.711-82.866-166.273 4.919-158.956 87.784 7.317 204.896 58.206 205.862-28.014.967-86.22-82.379-172.818-11.479-222.474 70.901-49.655 248.794-14.661 237.153-128.806"/><path d="M26.88 1038.74c-38.032-53.777-92.956-171.29-8.396-211.131 105.699-49.802 116.97-55.897 80.235-109.505-36.734-53.609-75.044-167.933 11.376-158.164 86.419 9.769 200.024 63.761 204.513-22.078 4.489-85.838-74.295-174.437-2.219-221.883 72.076-47.447 246.376-7.565 239.555-121.571"/><path d="M.141 1033.78c-35.358-54.589-84.772-173.091.434-210.388 106.507-46.622 117.896-52.374 83.814-106.759-34.082-54.386-67.21-169.251 17.781-157.115 84.991 12.136 195.018 69.048 203.004-16.267 7.985-85.316-66.202-175.705 6.982-220.92 73.185-45.216 243.77-.654 241.746-114.322"/><path d="M-26.689 1028.52c-32.674-55.284-76.577-174.535 9.2-209.291 107.223-43.445 118.72-48.853 87.299-103.897-31.421-55.044-59.378-170.228 24.127-155.812 83.505 14.416 189.889 74.067 201.34-10.588 11.451-84.654-58.111-176.62 16.114-219.585 74.225-42.964 240.984 6.069 243.722-107.067"/><path d="M-53.596 1022.95c-29.985-55.854-68.387-175.615 17.89-207.834C72.141 774.841 83.736 769.777 54.98 714.194 26.223 658.611 3.42 543.328 85.382 559.935c81.964 16.608 184.65 78.813 199.529-5.042 14.879-83.856-50.04-177.188 25.158-217.883 75.199-40.696 238.03 12.598 245.491-99.813"/><path d="M-80.565 1017.08c-27.298-56.31-60.217-176.343 26.487-206.033 108.381-37.113 120.065-41.832 93.971-97.836C13.8 657.207-3.882 542.043 76.491 560.753c80.373 18.71 179.315 83.286 197.58.365 18.265-82.921-42.004-177.408 34.101-215.818 76.105-38.411 234.917 18.93 247.052-92.564"/><path d="M-107.583 1010.9c-24.616-56.642-52.083-176.713 34.978-203.882 108.827-33.961 120.59-38.336 97.152-94.644C1.11 656.067-11.485 541.238 67.251 561.961c78.736 20.723 173.895 87.485 195.498 5.633 21.603-81.853-34.014-177.286 42.93-213.397 76.944-36.111 231.655 25.064 248.407-85.325"/><path d="M-134.638 1004.41c-21.945-56.851-43.998-176.725 43.35-201.385C17.9 772.201 29.732 768.171 8.939 711.676c-20.793-56.494-28.348-170.774 48.71-148.129 77.058 22.645 168.404 91.411 193.292 10.758 24.888-80.654-26.086-176.823 51.629-210.623 77.716-33.8 228.254 30.995 249.562-78.104"/><path d="M-161.714 997.627c-19.29-56.954-35.978-176.402 51.59-198.563C-.664 771.362 11.226 767.676-6.938 711.11c-18.164-56.567-20.734-170.086 54.609-145.61s162.853 95.061 190.968 15.736c28.116-79.324-18.234-176.024 60.186-207.502 78.42-31.479 224.724 36.722 250.516-70.904"/><path d="M-188.8 990.539c-16.656-56.937-28.037-175.731 59.683-195.409 109.65-24.597 121.59-27.94 106.033-84.464-15.557-56.525-13.205-169.077 60.39-142.861 73.594 26.217 157.256 98.439 188.535 20.57 31.28-77.869-10.472-174.896 68.586-204.044 79.057-29.148 221.075 42.243 251.273-63.73"/><path d="M-215.882 983.153c-14.047-56.807-20.188-174.725 67.617-191.934 109.757-21.513 121.738-24.513 108.763-80.883-12.975-56.37-5.773-167.751 66.045-139.885 71.817 27.865 151.623 101.543 185.999 25.253 34.376-76.29-2.813-173.441 76.816-200.253 79.629-26.811 217.317 47.557 251.838-56.588"/><path d="M-242.947 975.471c-11.467-56.565-12.445-173.386 75.381-188.145 109.784-18.449 121.796-21.108 111.372-77.213-10.424-56.105 1.547-166.114 71.564-136.691C85.386 602.846 161.339 677.8 198.738 603.21c37.4-74.59 4.731-171.668 84.865-196.138 80.134-24.469 213.46 52.663 252.212-49.481"/><path d="M-269.982 967.497c-8.923-56.213-4.823-171.722 82.961-184.049 109.73-15.409 121.764-17.728 113.857-73.46-7.908-55.731 8.745-164.173 76.94-133.282 68.195 30.891 140.303 106.944 180.65 34.172 40.346-72.773 12.144-169.582 92.717-191.707 80.573-22.124 209.515 57.561 252.398-42.416"/><path d="M-296.976 959.236c-6.418-55.754 2.666-169.741 90.346-179.656 109.6-12.394 121.647-14.375 116.216-69.627-5.431-55.251 15.808-161.934 82.165-129.666S126.39 689.533 169.6 618.692c43.211-70.841 19.417-167.189 100.363-186.968 80.946-19.778 205.49 62.25 252.401-35.396"/><path d="M-323.916 950.69c-3.956-55.189 10.009-167.447 97.524-174.972 109.393-9.407 121.444-11.051 118.446-65.718-2.998-54.668 22.723-159.405 87.23-125.849 64.508 33.555 128.988 111.285 174.978 42.486 45.99-68.799 26.535-164.497 107.79-181.93 81.254-17.432 201.395 66.732 252.222-28.426"/><path d="M-350.788 941.868c-1.543-54.521 17.194-164.852 104.483-170.009 109.112-6.447 121.159-7.757 120.546-61.739-.613-53.981 29.48-156.592 92.129-121.837C29.019 623.038 89.728 701.35 138.406 634.7c48.679-66.649 33.489-161.515 114.987-176.603 81.497-15.089 197.24 71.006 251.866-21.509"/><path d="M-377.583 932.772c.818-53.752 24.207-161.96 111.214-164.774 108.758-3.518 120.792-4.495 122.512-57.693 1.719-53.197 36.065-153.504 96.852-117.637 60.787 35.866 117.766 114.594 169.039 50.196 51.273-64.397 40.264-158.25 121.941-170.998 81.677-12.748 193.034 75.076 251.336-14.649"/><path d="M-404.29 923.41c3.124-52.886 31.039-158.783 117.706-159.279 108.334-.62 120.346-1.267 124.343-53.584 3.996-52.316 42.471-150.15 101.395-113.258 58.924 36.892 112.218 115.872 165.987 53.826 53.768-62.045 46.851-154.712 128.643-165.125 81.793-10.413 188.787 78.943 250.635-7.849"/><path d="M-430.896 913.788c5.369-51.926 37.676-155.329 123.948-153.533 107.841 2.245 119.823 1.925 126.036-49.418 6.214-51.343 48.685-146.539 105.75-108.706C-18.1 639.964 31.564 719.036 87.726 659.438c56.162-59.598 53.239-150.909 135.084-158.994 81.844-8.085 184.506 82.607 249.767-1.114"/><path d="M-457.392 903.913c7.551-50.875 44.109-151.609 129.933-147.548 107.279 5.077 119.223 5.081 127.59-45.198 8.367-50.279 54.697-142.679 109.908-103.989 55.211 38.689 101.302 117.7 159.753 60.639 58.45-57.06 59.417-146.851 141.251-152.616 81.835-5.765 180.202 86.072 248.736 5.553"/></g></svg>