<svg width="816" height="900" fill="none" xmlns="http://www.w3.org/2000/svg"><g opacity=".3" stroke="#fff"><path d="M-23.09 1353.38c-14.292-89.01-13.515-262.68 103.926-245.32 146.801 21.71 162.875 23.13 149.968-64.73-12.908-87.853 5.025-245.639 97.916-170.715 92.891 74.923 192.89 220.015 244.118 126.122 51.228-93.898 9.371-252.458 116.721-252.932 107.351-.474 283.86 173.493 337.381 39.338"/><path d="M-39.99 1328.7c-10.65-88.5-2.876-260.33 113.416-239.74 145.364 25.74 161.32 27.62 152.002-59.7-9.317-87.31 14.906-242.926 104.423-166.088 89.516 76.838 183.285 223.318 238.101 131.893 54.817-91.428 19.51-249.546 126.469-246.898 106.959 2.649 275.782 179.923 334.509 48.724"/><path d="M-56.83 1303.6c-7.06-87.84 7.58-257.56 122.642-233.79 143.826 29.7 159.651 32.02 153.869-54.61-5.781-86.624 24.602-239.824 110.724-161.215 86.122 78.61 173.687 226.225 231.981 137.401 58.295-88.824 29.456-246.237 135.936-240.494 106.481 5.744 267.603 186.003 331.388 57.961"/><path d="M-73.59 1278.09c-3.534-87.03 17.836-254.37 131.588-227.5 142.189 33.6 157.871 36.36 155.566-49.45-2.306-85.798 34.098-236.344 116.811-156.105 82.714 80.239 164.112 228.735 225.769 142.645 61.657-86.088 39.192-242.542 145.109-233.732 105.917 8.809 259.338 191.737 328.037 67.041"/><path d="M-90.258 1252.18c-.07-86.09 27.88-250.79 140.245-220.86 140.456 37.4 155.985 40.59 157.091-44.248 1.105-84.841 43.38-232.501 122.677-150.773 79.297 81.729 154.574 230.851 219.473 147.627 64.9-83.227 48.705-238.469 153.975-226.625 105.27 11.843 251.001 197.124 324.447 75.962"/><path d="M-106.816 1225.88c3.323-85.02 37.693-246.822 148.598-213.91 138.631 41.14 153.995 44.76 158.441-38.991 4.447-83.748 52.434-228.298 128.312-145.219 75.879 83.078 145.091 232.59 213.108 152.345s57.98-234.031 162.52-219.186c104.54 14.844 242.606 202.168 320.647 84.717"/><path d="M-123.249 1199.19c6.64-83.81 47.262-242.474 156.635-206.64 136.717 44.79 151.906 48.83 159.617-33.698 7.712-82.525 61.246-223.748 133.708-139.456 72.463 84.291 135.676 233.954 206.681 156.804 71.005-77.149 67.005-229.24 170.734-211.43 103.729 17.809 234.165 206.87 316.624 93.302"/><path d="M-139.543 1172.13c9.876-82.48 56.572-237.767 164.346-199.077 134.717 48.367 149.72 52.807 160.616-28.37 10.896-81.179 69.803-218.865 138.858-133.496S450.621 1046.13 524.48 972.19c73.86-73.942 75.764-224.107 178.603-203.37 102.839 20.737 225.694 211.234 312.397 101.713"/><path d="M-155.683 1144.7c13.028-81.03 65.61-232.707 171.718-191.226 132.636 51.846 147.443 56.696 161.439-23.015 13.996-79.711 78.092-213.66 143.753-127.347 65.661 86.313 117.11 235.578 193.687 164.944 76.576-70.63 84.244-218.645 186.116-195.02C802.901 796.661 918.235 988.299 1009 882.982"/><path d="M-171.655 1116.91c16.089-79.45 74.363-227.308 178.742-183.105 130.475 55.254 145.076 60.494 162.083-17.635 17.006-78.128 86.103-208.146 148.389-121.021C379.845 882.275 425.546 1031 504.698 963.78c79.152-67.22 92.436-212.867 193.264-186.397 100.827 26.471 208.711 218.962 303.358 117.998"/><path d="M-187.447 1088.78c19.057-77.77 82.818-221.589 185.408-174.733 128.238 58.57 142.625 64.195 162.548-12.238 19.923-76.433 93.824-202.338 152.759-114.528 58.934 87.81 98.987 235.779 180.57 172.064 81.583-63.717 100.327-206.787 200.036-177.514 99.709 29.274 200.225 222.339 298.547 125.863"/><path d="M-203.044 1060.31c21.926-75.971 90.963-215.558 191.707-166.119 125.929 61.8 140.092 67.801 162.834-6.83 22.741-74.63 101.243-196.246 156.854-107.878 55.612 88.367 90.127 235.377 173.992 175.248 83.865-60.127 107.904-200.419 206.423-168.387 98.518 32.032 191.758 225.386 293.562 133.54"/><path d="M-218.436 1031.52c24.693-74.076 98.789-209.236 197.63-157.284 123.552 64.94 137.482 71.309 162.941-1.417 25.458-72.725 108.351-189.887 160.672-101.084 52.322 88.802 81.415 234.645 167.411 178.187 85.996-56.457 115.159-193.779 212.416-159.035 97.257 34.743 183.323 228.123 288.406 141.026"/><path d="M-233.61 1002.41c27.354-72.074 106.283-202.628 203.17-148.234 121.108 67.992 134.798 74.72 162.868 3.997 28.07-70.724 115.138-183.275 164.207-94.158 49.069 89.117 72.864 233.595 160.837 180.884 87.974-52.711 122.082-186.878 218.008-149.471 95.926 37.406 174.931 230.552 283.085 148.317"/><path d="M-248.555 973.006c29.905-69.984 113.436-195.761 208.318-138.998 118.603 70.954 132.044 78.033 162.616 9.403 30.573-68.629 121.596-176.422 167.454-87.107 45.859 89.314 64.487 232.239 154.28 183.342 89.794-48.898 128.663-179.735 223.191-139.714 94.528 40.02 166.594 232.668 277.607 155.413"/><path d="M-263.261 943.311c32.344-67.802 120.239-188.642 213.07-129.582 116.038 73.825 129.222 81.245 162.185 14.797 32.964-66.447 127.714-169.346 170.409-79.948 42.694 89.399 56.292 230.589 147.747 185.567 91.455-45.022 134.894-172.362 227.958-129.779s158.321 234.494 271.978 162.311"/><path d="M-277.717 913.342c34.666-65.538 126.683-181.291 217.417-120.008 113.418 76.605 126.337 84.357 161.577 20.173 35.239-64.183 133.487-162.061 173.067-72.689 39.58 89.372 48.292 228.654 141.247 187.563 92.955-41.091 140.767-164.777 232.304-119.685 91.536 45.093 150.124 236.034 266.206 169.008"/><path d="M-291.915 883.11c36.871-63.194 132.762-173.724 221.357-110.289 110.745 79.293 123.392 87.368 160.79 25.525 37.396-61.844 138.907-154.583 175.427-65.344 36.519 89.239 40.496 226.445 134.788 189.334 94.291-37.11 146.275-156.996 236.222-109.447 89.947 47.549 142.013 237.291 260.298 175.503"/><path d="M-305.845 852.631c38.954-60.779 138.466-165.957 224.883-100.445C27.06 834.076 39.43 842.465 78.864 783.032c39.434-59.432 143.969-146.927 177.485-57.924 33.517 89.003 32.912 223.976 128.377 190.888 95.464-33.088 151.411-149.034 239.71-99.084 88.298 49.95 133.996 238.278 254.261 181.794"/><path d="M-319.499 821.917c40.913-58.296 143.79-158.008 227.991-90.492C13.744 815.82 25.83 824.513 67.18 767.558c41.349-56.956 148.665-139.11 179.239-50.442 30.575 88.668 25.55 221.258 122.021 192.228s156.17-140.909 242.761-88.614c86.591 52.295 126.084 238.99 248.102 187.88"/><path d="M-332.871 790.983c42.747-55.751 148.728-149.892 230.68-80.446C.249 797.345 12.043 806.333 55.182 751.914c43.14-54.419 152.992-131.147 180.688-42.909 27.696 88.237 18.416 218.303 115.727 193.361 97.312-24.943 160.548-132.636 245.376-78.054 84.828 54.581 118.284 239.448 241.827 193.768"/><path d="M-345.953 759.843c44.453-53.151 153.277-141.627 232.946-70.324 99.586 89.128 111.083 98.401 155.886 46.573 44.804-51.827 156.945-123.055 181.83-35.339 24.885 87.716 11.519 215.126 109.503 194.293 97.983-20.833 164.538-124.232 247.548-67.422 83.01 56.81 110.605 239.656 235.443 199.436"/><path d="M-358.738 728.513c46.03-50.502 157.429-133.233 234.786-60.147 96.695 91.358 107.89 100.906 154.229 51.718 46.339-49.188 160.519-114.85 182.663-27.742 22.143 87.107 4.865 211.736 103.353 195.028 98.488-16.707 168.139-115.715 249.279-56.736 81.14 58.98 103.055 239.626 228.957 204.916"/><path d="M-371.222 697.006c47.476-47.808 161.183-124.724 236.2-49.929 93.77 93.495 104.657 103.309 152.403 56.803 47.745-46.505 163.713-106.548 183.187-20.132 19.475 86.417-1.538 208.149 97.286 195.577 98.823-12.573 171.346-107.102 250.565-46.014s95.64 239.369 222.375 210.179"/><path d="M-383.4 665.336c48.792-45.076 164.537-116.119 237.188-39.686 90.813 95.54 101.388 105.61 150.41 61.824 49.02-43.786 166.523-98.168 183.404-12.521 16.88 85.647-7.687 204.377 91.304 195.942 98.991-8.436 174.157-98.409 251.408-35.274 77.25 63.136 88.367 238.889 215.704 215.229"/><path d="M-395.268 633.522c49.974-42.311 167.487-107.435 237.749-29.439 87.828 97.495 98.085 107.811 148.251 66.775 50.166-41.035 168.95-89.722 183.313-4.919s-13.575 200.434 85.415 196.13c98.991-4.303 176.572-89.653 251.807-24.532 75.234 65.121 81.244 238.193 208.95 220.083"/><path d="M-406.822 601.575c51.024-39.521 170.033-98.69 237.886-19.203 84.815 99.359 94.751 109.912 145.93 71.652 51.178-38.26 170.991-81.232 182.915 2.658 11.924 83.89-19.2 196.334 79.623 196.151 98.822-.183 178.588-80.852 251.762-13.809s74.276 237.306 202.119 224.726"/><path d="M-418.058 569.512c51.939-36.709 172.173-89.902 237.597-8.996 81.78 101.133 91.39 111.913 143.449 76.449 52.06-35.465 172.647-72.711 182.213 10.2 9.567 82.911-24.556 192.089 73.931 196.01 98.488 3.92 180.208-72.022 251.278-3.121 71.071 68.902 67.466 236.216 195.218 229.166"/><path d="M-428.977 537.348c52.722-33.884 173.91-81.089 236.888 1.165 78.723 102.818 88.004 113.815 140.811 81.159C1.53 587.017 122.64 555.496 129.93 637.368c7.29 81.872-29.642 187.714 68.345 195.714 97.987 7.999 181.429-63.182 250.355 7.514 68.927 70.696 60.821 234.944 188.251 233.404"/><path d="M-439.575 505.099c53.371-31.05 175.242-72.267 235.76 11.263 75.647 104.413 84.595 115.618 138.019 85.779 53.424-29.838 174.803-55.644 179.901 25.132 5.099 80.776-34.453 183.222 62.869 195.269 97.322 12.048 182.254-54.345 248.997 18.08 66.743 72.425 54.345 233.508 181.225 237.428"/></g></svg>