<svg width="1248" height="473" fill="none" xmlns="http://www.w3.org/2000/svg"><path opacity=".3" d="M193.91 887.38c-14.292-89.007-13.515-262.68 103.926-245.317 146.801 21.705 162.875 23.13 149.968-64.728-12.908-87.858 5.025-245.644 97.916-170.72 92.891 74.923 192.89 220.019 244.118 126.122 51.228-93.897 9.371-252.458 116.722-252.932 107.35-.474 283.86 173.493 337.38 39.338M177.01 862.695c-10.65-88.492-2.876-260.327 113.415-239.735 145.365 25.741 161.32 27.618 152.003-59.696-9.317-87.314 14.906-242.93 104.423-166.092 89.516 76.838 183.285 223.321 238.101 131.893 54.817-91.428 19.51-249.546 126.469-246.898 106.959 2.649 275.779 179.922 334.509 48.724M160.171 837.596c-7.062-87.832 7.58-257.554 122.641-233.791 143.826 29.705 159.651 32.028 153.869-54.601-5.781-86.628 24.602-239.828 110.724-161.218 86.122 78.609 173.687 226.223 231.981 137.4 58.295-88.823 29.455-246.237 135.936-240.494 106.478 5.744 267.608 186.003 331.388 57.961M143.409 812.089c-3.533-87.03 17.837-254.371 131.589-227.497 142.189 33.594 157.871 36.355 155.566-49.448-2.306-85.802 34.098-236.348 116.811-156.109 82.714 80.239 164.112 228.733 225.769 142.645 61.657-86.088 39.192-242.542 145.109-233.732 105.917 8.809 259.337 191.737 328.037 67.041M126.742 786.18c-.07-86.09 27.88-250.79 140.245-220.865 140.456 37.406 155.985 40.599 157.091-44.243 1.105-84.841 43.38-232.501 122.677-150.773 79.297 81.729 154.574 230.854 219.473 147.627 64.9-83.228 48.705-238.47 153.975-226.626 105.267 11.844 250.997 197.125 324.447 75.962M110.184 759.879c3.323-85.016 37.693-246.821 148.598-213.91 138.631 41.14 153.995 44.758 158.441-38.99 4.447-83.748 52.434-228.298 128.312-145.219 75.879 83.079 145.091 232.591 213.108 152.345 68.017-80.245 57.98-234.031 162.52-219.186 104.537 14.844 242.607 202.168 320.647 84.717M93.751 733.193c6.64-83.812 47.262-242.477 156.635-206.643 136.717 44.793 151.906 48.828 159.617-33.698 7.712-82.526 61.246-223.748 133.708-139.456 72.463 84.291 135.676 233.952 206.681 156.804 71.005-77.149 67.005-229.24 170.734-211.431 103.724 17.81 234.164 206.871 316.624 93.303M77.457 706.13c9.876-82.48 56.572-237.768 164.346-199.077 134.717 48.364 149.72 52.809 160.616-28.37 10.896-81.179 69.803-218.865 138.858-133.496S667.621 580.131 741.48 506.19c73.86-73.942 75.764-224.107 178.603-203.37 102.837 20.737 225.697 211.234 312.397 101.713M61.317 678.701c13.028-81.026 65.61-232.709 171.718-191.228 132.636 51.852 147.443 56.698 161.439-23.014 13.996-79.711 78.092-213.66 143.753-127.347 65.661 86.313 117.11 235.574 193.687 164.944 76.576-70.63 84.244-218.645 186.116-195.02C1019.9 330.66 1135.24 522.299 1226 416.982M45.345 650.914c16.09-79.454 74.363-227.312 178.742-183.109 130.475 55.254 145.076 60.494 162.083-17.635 17.006-78.128 86.103-208.146 148.389-121.021C596.845 416.275 642.546 565 721.698 497.78c79.152-67.22 92.436-212.867 193.264-186.397 100.828 26.471 208.708 218.962 303.358 117.998M29.553 622.781c19.057-77.768 82.818-221.59 185.408-174.734 128.238 58.57 142.625 64.195 162.548-12.238 19.923-76.433 93.824-202.338 152.759-114.528 58.934 87.81 98.987 235.781 180.57 172.064 81.583-63.717 100.327-206.787 200.036-177.513 99.706 29.273 200.226 222.334 298.546 125.862M13.955 594.312c21.927-75.973 90.964-215.56 191.708-166.121 125.929 61.8 140.092 67.801 162.834-6.83 22.741-74.63 101.243-196.246 156.854-107.878 55.611 88.367 90.127 235.376 173.992 175.248 83.865-60.127 107.904-200.419 206.422-168.387 98.515 32.032 191.755 225.385 293.565 133.54M-1.436 565.519c24.693-74.074 98.789-209.235 197.63-157.283 123.552 64.94 137.482 71.309 162.941-1.417 25.458-72.725 108.351-189.887 160.672-101.084 52.322 88.802 81.415 234.644 167.411 178.187 85.996-56.457 115.16-193.779 212.416-159.035 97.257 34.743 183.326 228.121 288.406 141.026m-1204.65 70.5c27.354-72.077 106.283-202.631 203.17-148.237 121.108 67.992 134.798 74.72 162.868 3.997 28.07-70.724 115.138-183.275 164.207-94.158 49.069 89.117 72.864 233.595 160.837 180.884 87.974-52.711 122.082-186.878 218.008-149.471 95.926 37.406 174.93 230.547 283.09 148.317M-31.555 507.006C-1.65 437.022 81.88 311.245 176.763 368.008c118.603 70.954 132.044 78.033 162.616 9.403 30.573-68.629 121.596-176.422 167.454-87.107 45.859 89.314 64.487 232.24 154.28 183.342 89.794-48.898 128.663-179.735 223.191-139.714 94.528 40.02 166.596 232.671 277.606 155.413M-46.261 477.311c32.344-67.802 120.24-188.642 213.07-129.582 116.038 73.825 129.222 81.245 162.185 14.797 32.964-66.447 127.714-169.346 170.409-79.948 42.694 89.399 56.292 230.589 147.747 185.567 91.455-45.022 134.894-172.362 227.958-129.779s158.322 234.498 271.982 162.311M-60.717 447.342C-26.051 381.804 65.966 266.05 156.7 327.334c113.418 76.605 126.337 84.357 161.576 20.173 35.24-64.184 133.488-162.061 173.068-72.689 39.58 89.372 48.292 228.654 141.247 187.563 92.955-41.091 140.767-164.778 232.304-119.685 91.536 45.093 150.125 236.036 266.205 169.008M-74.915 417.11c36.871-63.194 132.762-173.724 221.357-110.289 110.744 79.293 123.392 87.368 160.789 25.525 37.397-61.844 138.908-154.583 175.428-65.344 36.519 89.239 40.495 226.445 134.787 189.334 94.292-37.11 146.276-156.996 236.223-109.447 89.947 47.549 142.013 237.292 260.301 175.503M-88.845 386.631c38.954-60.779 138.466-165.957 224.883-100.445 108.022 81.89 120.391 90.279 159.826 30.846 39.434-59.432 143.969-146.927 177.485-57.924 33.517 89.003 32.912 223.976 128.377 190.888 95.464-33.088 151.411-149.034 239.71-99.084 88.298 49.95 133.996 238.273 254.264 181.794M-102.499 355.917c40.913-58.296 143.79-158.007 227.991-90.491 105.252 84.394 117.337 93.087 158.687 36.132 41.349-56.956 148.665-139.11 179.239-50.442 30.575 88.668 25.55 221.258 122.021 192.228S741.61 302.435 828.201 354.73c86.591 52.295 126.084 238.99 248.099 187.882M-115.871 324.983c42.747-55.751 148.728-149.892 230.68-80.446 102.439 86.808 114.233 95.796 157.373 41.377 43.139-54.419 152.992-131.147 180.688-42.909 27.696 88.237 18.416 218.303 115.727 193.361 97.312-24.943 160.549-132.636 245.376-78.054 84.828 54.581 118.284 239.448 241.827 193.764M-128.953 293.843c44.453-53.151 153.277-141.627 232.946-70.325 99.586 89.129 111.083 98.401 155.886 46.574 44.804-51.827 156.945-123.055 181.83-35.339 24.885 87.716 11.519 215.126 109.503 194.293 97.983-20.833 164.538-124.233 247.548-67.422 83.01 56.81 110.605 239.659 235.44 199.441M-141.738 262.513c46.03-50.502 157.429-133.233 234.786-60.147 96.695 91.357 107.89 100.905 154.229 51.718 46.339-49.188 160.519-114.85 182.663-27.743 22.143 87.108 4.865 211.736 103.353 195.029 98.488-16.707 168.139-115.715 249.279-56.736 81.14 58.98 103.055 239.63 228.958 204.912M-154.222 231.005c47.476-47.807 161.183-124.723 236.2-49.928 93.77 93.495 104.657 103.309 152.403 56.803 47.745-46.505 163.713-106.548 183.187-20.132 19.475 86.417-1.538 208.149 97.286 195.577 98.823-12.573 171.346-107.102 250.565-46.014s95.64 239.37 222.375 210.175M-166.4 199.336C-117.608 154.26-1.863 83.217 70.788 159.65c90.814 95.54 101.388 105.61 150.409 61.824 49.021-43.786 166.524-98.168 183.404-12.521 16.881 85.647-7.686 204.377 91.305 195.942 98.991-8.436 174.157-98.409 251.408-35.273 77.25 63.135 88.367 238.888 215.704 215.232M-178.268 167.522c49.974-42.312 167.487-107.435 237.75-29.439 87.827 97.495 98.085 107.811 148.25 66.775 50.166-41.035 168.95-89.723 183.313-4.919 14.363 84.803-13.575 200.434 85.415 196.13 98.991-4.304 176.572-89.653 251.807-24.532 75.234 65.121 81.244 238.196 208.95 220.083M-189.822 135.575c51.024-39.52 170.033-98.69 237.886-19.203 84.815 99.359 94.751 109.912 145.93 71.652 51.178-38.26 170.991-81.232 182.915 2.658 11.925 83.89-19.2 196.334 79.623 196.151 98.822-.183 178.588-80.852 251.762-13.809s74.276 237.302 202.119 224.728m-1111.471-494.24c51.939-36.71 172.173-89.902 237.597-8.996 81.78 101.133 91.39 111.913 143.449 76.448 52.059-35.464 172.647-72.71 182.213 10.201 9.567 82.911-24.556 192.089 73.931 196.01 98.488 3.92 180.208-72.023 251.278-3.121 71.071 68.901 67.466 236.216 195.217 229.167M-211.977 71.348c52.722-33.884 173.91-81.088 236.888 1.165 78.723 102.818 88.004 113.815 140.811 81.159 52.808-32.655 173.917-64.176 181.208 17.696 7.29 81.872-29.642 187.714 68.345 195.714 97.987 7.999 181.429-63.182 250.355 7.514 68.927 70.696 60.821 234.949 188.251 233.401M-222.575 39.099c53.371-31.05 175.242-72.267 235.76 11.263C88.832 154.775 97.78 165.98 151.204 136.141c53.424-29.838 174.803-55.644 179.901 25.132 5.099 80.776-34.453 183.222 62.869 195.269 97.322 12.048 182.254-54.345 248.997 18.08 66.743 72.424 54.345 233.508 181.225 237.43" stroke="#fff"/></svg>