<svg width="50" height="50" fill="none" xmlns="http://www.w3.org/2000/svg"><path d="M28.82 30.127a6.867 6.867 0 01-3.82 1.16 6.86 6.86 0 01-3.82-1.16L2.446 17.64a6.805 6.805 0 01-.304-.216v20.464a4.207 4.207 0 004.208 4.208h37.297a4.207 4.207 0 004.209-4.208V17.423c-.1.074-.201.147-.305.216L28.82 30.127z" fill="url(#paint0_linear_247_12584)"/><path d="M3.933 15.41l18.732 12.489a4.202 4.202 0 004.67 0L46.066 15.41a4.01 4.01 0 001.79-3.346 4.212 4.212 0 00-4.207-4.207H6.35a4.212 4.212 0 00-4.207 4.21 4.01 4.01 0 001.79 3.343z" fill="url(#paint1_linear_247_12584)"/><defs><linearGradient id="paint0_linear_247_12584" x1="25" y1="17.423" x2="25" y2="42.095" gradientUnits="userSpaceOnUse"><stop stop-color="#0083C9"/><stop offset="1" stop-color="#006399"/></linearGradient><linearGradient id="paint1_linear_247_12584" x1="25" y1="7.857" x2="25" y2="28.608" gradientUnits="userSpaceOnUse"><stop stop-color="#0083C9"/><stop offset="1" stop-color="#006399"/></linearGradient></defs></svg>