<svg width="50" height="50" fill="none" xmlns="http://www.w3.org/2000/svg"><path d="M45.982 35.427l-6.193-6.193c-2.212-2.212-5.972-1.328-6.857 1.548-.664 1.99-2.876 3.097-4.866 2.654-4.424-1.106-10.396-6.857-11.502-11.502-.663-1.99.664-4.202 2.654-4.866 2.876-.884 3.76-4.645 1.549-6.856l-6.194-6.194c-1.77-1.548-4.423-1.548-5.972 0L4.4 8.221c-4.203 4.424.442 16.146 10.838 26.542C25.633 45.16 37.356 50.025 41.779 45.601l4.203-4.202c1.548-1.77 1.548-4.424 0-5.972z" fill="url(#paint0_linear_172_6943)"/><defs><linearGradient id="paint0_linear_172_6943" x1="25" y1="2.857" x2="25" y2="47.236" gradientUnits="userSpaceOnUse"><stop stop-color="#0083C9"/><stop offset="1" stop-color="#006399"/></linearGradient></defs></svg>