<svg width="88" height="98" fill="none" xmlns="http://www.w3.org/2000/svg"><mask id="a" style="mask-type:alpha" maskUnits="userSpaceOnUse" x="0" y="0" width="88" height="98"><path d="M80.882 98H7.118C3.187 98 0 94.866 0 91V7c0-3.866 3.187-7 7.118-7H55l33 32.455V91c0 3.866-3.187 7-7.118 7z" fill="url(#paint0_linear_584_20116)"/></mask><g mask="url(#a)"><path d="M80.882 98H7.118C3.187 98 0 94.866 0 91V7c0-3.866 3.187-7 7.118-7H55l33 32.455V91c0 3.866-3.187 7-7.118 7z" fill="url(#paint1_linear_584_20116)"/><path d="M21.679 69.121V53.88h5.077c1.504 0 2.81.298 3.904.91a6.134 6.134 0 012.522 2.63c.582 1.138.866 2.49.866 4.045 0 1.57-.292 2.937-.889 4.09m-11.48 3.567l11.195-3.714M21.68 69.12h4.808c1.576 0 2.938-.3 4.072-.915m-8.88.915l8.727-1.197m2.753-2.37l-.285-.147m.285.147s0 0 0 0l-.285-.147m.285.147a6.158 6.158 0 01-2.6 2.652m2.315-2.8a5.838 5.838 0 01-2.468 2.517m.153.283s0 0 0 0l-.153-.282m.153.282l-.153-.282m37.167-11.2a5.97 5.97 0 00-1.373-1.595 6.053 6.053 0 00-1.908-1.068 7.012 7.012 0 00-2.357-.382c-1.34 0-2.541.322-3.594.975-1.051.646-1.873 1.56-2.466 2.73h0c-.591 1.176-.88 2.55-.88 4.116 0 1.565.289 2.94.88 4.115v.001c.593 1.17 1.414 2.086 2.465 2.737h.001c1.053.648 2.254.968 3.594.968a7.01 7.01 0 002.358-.382 6.243 6.243 0 001.906-1.067 5.969 5.969 0 001.374-1.596 6.005 6.005 0 00.743-1.98l.07-.38h-2.053l-.054.256a3.8 3.8 0 01-.525 1.283l-.001.002c-.249.395-.562.74-.942 1.036-.379.29-.81.52-1.298.684a4.887 4.887 0 01-1.58.247 4.755 4.755 0 01-2.482-.667c-.735-.446-1.331-1.101-1.786-1.982-.445-.87-.675-1.957-.675-3.275 0-1.309.23-2.391.675-3.262.455-.885 1.052-1.543 1.787-1.988a4.716 4.716 0 012.482-.674c.572 0 1.097.083 1.58.246a4.38 4.38 0 011.296.691c.38.296.694.642.943 1.037l.002.004c.253.39.427.813.524 1.274l.053.255h2.053l-.07-.379a5.925 5.925 0 00-.743-1.98zm0 0s0 0 0 0l-.276.163m.276-.164s0 0 0 0l-.276.164m0 0c.289.483.5 1.001.635 1.554m-.635-1.554a5.647 5.647 0 00-1.301-1.511 5.73 5.73 0 00-1.81-1.012l3.745 4.077m0 0H68v.321l-.316.059a5.02 5.02 0 00-.01-.059m.257-.32l-.258.32m.258 5.797a5.661 5.661 0 01-.634 1.554 5.649 5.649 0 01-1.301 1.511 5.923 5.923 0 01-1.81 1.012 6.689 6.689 0 01-2.251.364c-1.287 0-2.428-.307-3.426-.92-.997-.617-1.78-1.487-2.348-2.609-.563-1.122-.845-2.445-.845-3.971 0-1.526.282-2.85.845-3.971.569-1.122 1.351-1.99 2.348-2.602l9.422 9.632zm0 0H68v-.321l-.316-.06-.01.06h-1.08a4.135 4.135 0 01-.568 1.39c-.27.428-.609.8-1.017 1.12a4.796 4.796 0 01-1.392.733 5.208 5.208 0 01-1.682.264 5.07 5.07 0 01-2.648-.713c-.792-.48-1.428-1.183-1.907-2.11l10.551-.363zm-.258-5.797h-1.079a4.058 4.058 0 00-.568-1.383c-.27-.427-.609-.8-1.017-1.119a4.7 4.7 0 00-1.392-.741 5.208 5.208 0 00-1.682-.264c-.968 0-1.85.24-2.648.72-.792.48-1.428 1.186-1.907 2.117l10.293.67zm-36.248-.412v.002c.409.855.622 1.89.627 3.113 0 1.232-.215 2.275-.633 3.139a4.4 4.4 0 01-1.865 1.977c-.827.46-1.872.7-3.149.7h-2.686V55.719h2.955c1.2 0 2.184.235 2.966.685h.001a4.292 4.292 0 011.784 1.947zm19.156 7.266h0c.596-1.18.888-2.555.888-4.116 0-1.56-.292-2.934-.887-4.108-.593-1.175-1.415-2.092-2.466-2.738-1.049-.653-2.25-.975-3.595-.975-1.34 0-2.54.322-3.593.975-1.052.646-1.874 1.563-2.467 2.737v.001c-.59 1.175-.88 2.547-.88 4.108 0 1.56.29 2.935.88 4.115v.001c.593 1.17 1.412 2.086 2.458 2.737h.002c1.052.648 2.256.968 3.6.968 1.345 0 2.546-.32 3.594-.968h0c1.052-.65 1.873-1.567 2.466-2.737zM49.465 61.5v.001c.005 1.27-.215 2.34-.647 3.222-.435.884-1.025 1.549-1.766 2.008h0c-.739.46-1.579.693-2.53.693-.952 0-1.792-.233-2.53-.692-.737-.464-1.324-1.132-1.76-2.016-.432-.877-.655-1.946-.655-3.216 0-1.275.223-2.345.655-3.223.44-.884 1.03-1.55 1.767-2.008.738-.46 1.576-.693 2.522-.693.952 0 1.792.233 2.53.693.736.459 1.324 1.126 1.76 2.014h0c.431.878.654 1.947.654 3.217z" fill="#fff" stroke="#fff" stroke-width=".642"/><path d="M88 32H62.062A7.062 7.062 0 0155 24.938V0l33 32z" fill="url(#paint2_linear_584_20116)"/></g><defs><linearGradient id="paint0_linear_584_20116" x1="44" y1="0" x2="44" y2="98" gradientUnits="userSpaceOnUse"><stop stop-color="#FF7979"/><stop offset="1" stop-color="#E85555"/></linearGradient><linearGradient id="paint1_linear_584_20116" x1="44" y1="0" x2="44" y2="98" gradientUnits="userSpaceOnUse"><stop stop-color="#6ABDF8"/><stop offset="1" stop-color="#008BD6"/></linearGradient><linearGradient id="paint2_linear_584_20116" x1="71.5" y1="0" x2="71.5" y2="32" gradientUnits="userSpaceOnUse"><stop stop-color="#009FE3"/><stop offset="1" stop-color="#0087C1"/></linearGradient></defs></svg>