<svg width="70" height="70" fill="none" xmlns="http://www.w3.org/2000/svg"><path d="M16.202 24.82L45.013 9.415 35 4.375 5.293 19.329l10.909 5.491z" fill="url(#paint0_linear_1_3211)"/><path d="M53.763 13.82L24.952 29.225 35 34.284l29.707-14.955-10.944-5.51z" fill="url(#paint1_linear_1_3211)"/><path d="M34.18 35.717l-10.117-5.093v11.189l-4.375-4.405h-4.375V26.22L4.374 20.715v29.907L34.18 65.625V35.717z" fill="url(#paint2_linear_1_3211)"/><path d="M35.82 35.717v29.908l29.805-15.003V20.715L35.82 35.717z" fill="url(#paint3_linear_1_3211)"/><defs><linearGradient id="paint0_linear_1_3211" x1="25.153" y1="4.375" x2="25.153" y2="24.82" gradientUnits="userSpaceOnUse"><stop stop-color="#006399"/><stop offset="1" stop-color="#0083C9"/></linearGradient><linearGradient id="paint1_linear_1_3211" x1="44.83" y1="13.82" x2="44.83" y2="34.284" gradientUnits="userSpaceOnUse"><stop stop-color="#006399"/><stop offset="1" stop-color="#0083C9"/></linearGradient><linearGradient id="paint2_linear_1_3211" x1="19.277" y1="20.715" x2="19.277" y2="65.625" gradientUnits="userSpaceOnUse"><stop stop-color="#006399"/><stop offset="1" stop-color="#0083C9"/></linearGradient><linearGradient id="paint3_linear_1_3211" x1="50.723" y1="20.715" x2="50.723" y2="65.625" gradientUnits="userSpaceOnUse"><stop stop-color="#006399"/><stop offset="1" stop-color="#0083C9"/></linearGradient></defs></svg>