<svg width="70" height="70" fill="none" xmlns="http://www.w3.org/2000/svg"><path d="M53.064 33.205c-6.925 0-12.561 5.636-12.561 12.561 0 2.644.815 5.175 2.378 7.346l8.748 11.794c.338.452.87.719 1.435.719h.002c.564 0 1.097-.269 1.435-.72l9.102-12.312a12.483 12.483 0 002.022-6.827c0-6.925-5.635-12.561-12.56-12.561zm0 17.944a5.39 5.39 0 01-5.383-5.383 5.39 5.39 0 015.383-5.383 5.39 5.39 0 015.383 5.383 5.39 5.39 0 01-5.383 5.383z" fill="url(#paint0_linear_1_1551)"/><path d="M7.093 4.63a1.793 1.793 0 00-2.718 1.54v36.008c0 .631.331 1.215.87 1.54L22.44 53.96V13.767L7.093 4.63z" fill="url(#paint1_linear_1_1551)"/><path d="M61.166 15.397L44.091 5.152V32.35a16.051 16.051 0 018.972-2.734c3.319 0 6.404 1.01 8.972 2.734V16.935c0-.63-.33-1.214-.87-1.538z" fill="url(#paint2_linear_1_1551)"/><path d="M40.503 5.152l-14.475 8.614V53.96l11.016-6.538c-.057-.55-.13-1.097-.13-1.656 0-3.806 1.379-7.262 3.59-10.026V5.152z" fill="url(#paint3_linear_1_1551)"/><defs><linearGradient id="paint0_linear_1_1551" x1="53.064" y1="33.205" x2="53.064" y2="65.625" gradientUnits="userSpaceOnUse"><stop stop-color="#0083C9"/><stop offset="1" stop-color="#006399"/></linearGradient><linearGradient id="paint1_linear_1_1551" x1="13.407" y1="4.375" x2="13.407" y2="53.96" gradientUnits="userSpaceOnUse"><stop stop-color="#0083C9"/><stop offset="1" stop-color="#006399"/></linearGradient><linearGradient id="paint2_linear_1_1551" x1="53.064" y1="5.152" x2="53.064" y2="32.35" gradientUnits="userSpaceOnUse"><stop stop-color="#0083C9"/><stop offset="1" stop-color="#006399"/></linearGradient><linearGradient id="paint3_linear_1_1551" x1="33.266" y1="5.152" x2="33.266" y2="53.96" gradientUnits="userSpaceOnUse"><stop stop-color="#0083C9"/><stop offset="1" stop-color="#006399"/></linearGradient></defs></svg>