<svg width="70" height="70" fill="none" xmlns="http://www.w3.org/2000/svg"><path d="M20.588 33.439c-8.94 0-16.213 7.273-16.213 16.213 0 8.94 7.273 16.213 16.213 16.213 8.94 0 16.213-7.273 16.213-16.213 0-8.94-7.273-16.213-16.213-16.213zm7.159 14.244L19.34 56.09a1.795 1.795 0 01-1.274.528c-.46 0-.922-.176-1.274-.528l-3.603-3.603a1.801 1.801 0 112.548-2.548l2.33 2.33 7.132-7.134a1.802 1.802 0 012.548 2.548z" fill="url(#paint0_linear_1_1568)"/><path d="M51.814 19.988a1.801 1.801 0 01-1.802-1.802V4.375h-25.82a5.41 5.41 0 00-5.405 5.404v20.14a19.948 19.948 0 011.801-.083c6.14 0 11.637 2.807 15.275 7.206h19.554a1.801 1.801 0 110 3.603h-17.18a19.666 19.666 0 012.085 7.205h15.095a1.802 1.802 0 010 3.603H40.322c-.54 5.95-3.718 11.149-8.354 14.412h28.253a5.41 5.41 0 005.404-5.404V19.988H51.814zm3.603 9.848H28.995a1.802 1.802 0 010-3.603h26.422a1.802 1.802 0 010 3.603z" fill="url(#paint1_linear_1_1568)"/><path d="M53.615 5.43v10.955H64.57L53.615 5.43z" fill="url(#paint2_linear_1_1568)"/><defs><linearGradient id="paint0_linear_1_1568" x1="20.588" y1="33.439" x2="20.588" y2="65.865" gradientUnits="userSpaceOnUse"><stop stop-color="#0083C9"/><stop offset="1" stop-color="#006399"/></linearGradient><linearGradient id="paint1_linear_1_1568" x1="42.206" y1="4.375" x2="42.206" y2="65.865" gradientUnits="userSpaceOnUse"><stop stop-color="#0083C9"/><stop offset="1" stop-color="#006399"/></linearGradient><linearGradient id="paint2_linear_1_1568" x1="59.092" y1="5.43" x2="59.092" y2="16.385" gradientUnits="userSpaceOnUse"><stop stop-color="#0083C9"/><stop offset="1" stop-color="#006399"/></linearGradient></defs></svg>