<svg width="70" height="70" fill="none" xmlns="http://www.w3.org/2000/svg"><path d="M40.962 17.847c2.832 1.776 4.818 4.78 5.18 8.268 1.154.54 2.436.85 3.795.85a8.982 8.982 0 008.983-8.982A8.982 8.982 0 0049.937 9c-4.914.002-8.9 3.951-8.975 8.847zm-5.885 18.392a8.983 8.983 0 100-17.965c-4.961 0-8.985 4.022-8.985 8.983s4.024 8.982 8.985 8.982zm3.81.613h-7.622c-6.342 0-11.502 5.16-11.502 11.502v9.322l.024.146.642.2c6.052 1.892 11.31 2.523 15.638 2.523 8.454 0 13.353-2.41 13.655-2.564l.6-.304h.065v-9.323c.002-6.342-5.158-11.502-11.5-11.502zm14.862-9.274h-7.564a11.07 11.07 0 01-3.416 7.711c5.637 1.677 9.762 6.904 9.762 13.079v2.873c7.468-.274 11.771-2.39 12.055-2.533l.6-.304h.064v-9.325c0-6.341-5.16-11.5-11.5-11.5zm-34.435-.611a8.923 8.923 0 004.778-1.387 11.118 11.118 0 014.179-7.09c.009-.168.025-.335.025-.505a8.983 8.983 0 10-8.982 8.982zm8.068 8.322a11.077 11.077 0 01-3.415-7.668c-.28-.02-.558-.043-.844-.043h-7.621C9.16 27.578 4 32.738 4 39.08v9.323l.024.144.642.203c4.855 1.515 9.188 2.214 12.952 2.434v-2.815c.002-6.175 4.125-11.4 9.764-13.079z" fill="url(#paint0_linear_1_1880)"/><defs><linearGradient id="paint0_linear_1_1880" x1="34.625" y1="9" x2="34.625" y2="60.545" gradientUnits="userSpaceOnUse"><stop stop-color="#0083C9"/><stop offset="1" stop-color="#006399"/></linearGradient></defs></svg>