<svg width="70" height="70" fill="none" xmlns="http://www.w3.org/2000/svg"><path d="M61.449 54.49h-9.744c-6.141 0-11.137-4.996-11.137-11.137 0-6.14 4.996-11.136 11.137-11.136h9.744c.77 0 1.392-.623 1.392-1.392v-4.176c0-2.92-2.264-5.294-5.125-5.524L49.72 7.161a5.501 5.501 0 00-3.368-2.597 5.47 5.47 0 00-4.19.561L14.757 21.08H9.943a5.574 5.574 0 00-5.568 5.569v33.409a5.574 5.574 0 005.568 5.568h47.33a5.574 5.574 0 005.568-5.568v-4.176c0-.77-.623-1.392-1.392-1.392zM51.448 15.782l3.033 5.298H42.348l9.1-5.297zM20.29 21.08L43.564 7.531a2.692 2.692 0 012.068-.279 2.73 2.73 0 011.672 1.293l.003.005-21.521 12.53H20.29z" fill="url(#paint0_linear_1_1590)"/><path d="M61.449 35.001h-9.745c-4.605 0-8.352 3.746-8.352 8.352s3.747 8.352 8.352 8.352h9.745a4.18 4.18 0 004.176-4.176v-8.352a4.18 4.18 0 00-4.176-4.176zm-9.745 11.136a2.788 2.788 0 01-2.784-2.784 2.788 2.788 0 012.784-2.784 2.788 2.788 0 012.784 2.784 2.788 2.788 0 01-2.784 2.784z" fill="url(#paint1_linear_1_1590)"/><defs><linearGradient id="paint0_linear_1_1590" x1="33.608" y1="4.375" x2="33.608" y2="65.626" gradientUnits="userSpaceOnUse"><stop stop-color="#0083C9"/><stop offset="1" stop-color="#006399"/></linearGradient><linearGradient id="paint1_linear_1_1590" x1="54.488" y1="35.001" x2="54.488" y2="51.705" gradientUnits="userSpaceOnUse"><stop stop-color="#0083C9"/><stop offset="1" stop-color="#006399"/></linearGradient></defs></svg>