<svg width="70" height="70" fill="none" xmlns="http://www.w3.org/2000/svg"><path d="M62.297 35.743a1.87 1.87 0 010-1.653l2.38-4.87a5.541 5.541 0 00-2.39-7.359l-4.79-2.54a1.87 1.87 0 01-.971-1.338l-.937-5.34a5.542 5.542 0 00-6.26-4.548l-5.367.76a1.87 1.87 0 01-1.572-.512l-3.896-3.769a5.541 5.541 0 00-7.738 0l-3.896 3.77a1.87 1.87 0 01-1.572.51l-5.368-.759a5.54 5.54 0 00-6.26 4.548l-.936 5.34a1.871 1.871 0 01-.972 1.337l-4.789 2.541a5.541 5.541 0 00-2.39 7.359l2.38 4.87a1.87 1.87 0 010 1.654l-2.38 4.87a5.541 5.541 0 002.39 7.358l4.789 2.541c.517.274.87.762.972 1.338l.937 5.34a5.538 5.538 0 006.26 4.547l5.367-.759a1.87 1.87 0 011.572.511l3.896 3.77a5.546 5.546 0 003.869 1.573 5.548 5.548 0 003.868-1.574l3.897-3.769c.42-.407.993-.592 1.572-.51l5.368.758a5.54 5.54 0 006.26-4.548l.936-5.339a1.87 1.87 0 01.972-1.338l4.789-2.54a5.542 5.542 0 002.39-7.36l-2.38-4.87zM27.262 18.35a6.757 6.757 0 016.75 6.75 6.757 6.757 0 01-6.75 6.75 6.757 6.757 0 01-6.75-6.75 6.757 6.757 0 016.75-6.75zm-3.484 30.018c-.36.36-.83.54-1.302.54a1.841 1.841 0 01-1.302-3.143l24.298-24.298a1.84 1.84 0 112.603 2.604L23.778 48.367zm18.21 3.117a6.757 6.757 0 01-6.75-6.75 6.757 6.757 0 016.75-6.75 6.757 6.757 0 016.75 6.75 6.757 6.757 0 01-6.75 6.75z" fill="url(#paint0_linear_1_1576)"/><path d="M41.988 41.666a3.072 3.072 0 00-3.068 3.069 3.071 3.071 0 003.068 3.067 3.071 3.071 0 003.068-3.068 3.071 3.071 0 00-3.068-3.068z" fill="url(#paint1_linear_1_1576)"/><path d="M27.261 22.031a3.071 3.071 0 00-3.068 3.068 3.072 3.072 0 003.068 3.068A3.072 3.072 0 0030.33 25.1a3.072 3.072 0 00-3.069-3.068z" fill="url(#paint2_linear_1_1576)"/><defs><linearGradient id="paint0_linear_1_1576" x1="34.625" y1="3" x2="34.625" y2="66.833" gradientUnits="userSpaceOnUse"><stop stop-color="#0083C9"/><stop offset="1" stop-color="#006399"/></linearGradient><linearGradient id="paint1_linear_1_1576" x1="41.988" y1="41.666" x2="41.988" y2="47.802" gradientUnits="userSpaceOnUse"><stop stop-color="#0083C9"/><stop offset="1" stop-color="#006399"/></linearGradient><linearGradient id="paint2_linear_1_1576" x1="27.261" y1="22.031" x2="27.261" y2="28.167" gradientUnits="userSpaceOnUse"><stop stop-color="#0083C9"/><stop offset="1" stop-color="#006399"/></linearGradient></defs></svg>