<svg width="88" height="98" fill="none" xmlns="http://www.w3.org/2000/svg"><mask id="a" style="mask-type:alpha" maskUnits="userSpaceOnUse" x="0" y="0" width="88" height="98"><path d="M80.882 98H7.118C3.187 98 0 94.866 0 91V7c0-3.866 3.187-7 7.118-7H55l33 32.455V91c0 3.866-3.187 7-7.118 7z" fill="url(#paint0_linear_584_20115)"/></mask><g mask="url(#a)"><path d="M80.882 98H7.118C3.187 98 0 94.866 0 91V7c0-3.866 3.187-7 7.118-7H55l33 32.455V91c0 3.866-3.187 7-7.118 7z" fill="url(#paint1_linear_584_20115)"/><path d="M29.949 53.879h-.321v10.85c0 .67-.113 1.195-.319 1.592-.209.398-.49.683-.846.869h-.001c-.36.19-.787.291-1.293.291a3.2 3.2 0 01-1.298-.25 2.091 2.091 0 01-.86-.666c-.199-.275-.3-.59-.3-.959v-.32h-2.032v.32c0 .744.195 1.407.595 1.975h0v.001c.4.56.943.99 1.62 1.29.676.302 1.437.449 2.275.449.858 0 1.63-.165 2.311-.504a3.752 3.752 0 001.617-1.548v-.001c.391-.697.58-1.548.585-2.537V53.88H29.95zM36.638 68.8v.321h2.055V63.54h3.281c1.13 0 2.1-.204 2.894-.63h.001c.785-.427 1.386-1.009 1.79-1.747h0c.401-.736.599-1.557.599-2.457 0-.9-.2-1.719-.607-2.45-.405-.739-1.008-1.318-1.798-1.74-.794-.43-1.767-.636-2.901-.636h-5.314V68.8zm5.299-7.1h-3.244v-5.982h3.22c.787 0 1.408.137 1.881.39h.002c.486.258.837.606 1.066 1.043l.002.002c.239.447.362.962.362 1.552 0 .591-.123 1.106-.362 1.553l-.002.002c-.23.438-.58.788-1.061 1.05-.474.253-1.09.39-1.864.39zm20.199-2.848l.067.231h2.078l-.071-.38a5.702 5.702 0 00-.743-1.931 6.025 6.025 0 00-1.394-1.602 6.423 6.423 0 00-1.952-1.094c-.74-.266-1.55-.397-2.428-.397-1.02 0-1.96.183-2.816.554a6.316 6.316 0 00-2.218 1.583v.001c-.621.691-1.097 1.518-1.432 2.476-.336.961-.502 2.032-.502 3.207 0 1.56.287 2.935.872 4.114l.001.001c.59 1.172 1.417 2.088 2.484 2.74h0c1.07.647 2.31.966 3.71.966 1.253 0 2.376-.257 3.36-.779a5.805 5.805 0 002.324-2.224c.568-.965.845-2.1.845-3.392v-1.518h-6.518v1.838h4.49c-.045.783-.232 1.458-.552 2.033l-.001.002a3.911 3.911 0 01-1.58 1.584c-.676.37-1.463.56-2.369.56-.988 0-1.856-.234-2.61-.695-.75-.464-1.346-1.132-1.785-2.015-.436-.877-.661-1.945-.661-3.215 0-1.275.222-2.345.654-3.223.44-.884 1.03-1.549 1.77-2.008.74-.46 1.582-.693 2.534-.693.61 0 1.152.086 1.632.253h0c.492.17.919.404 1.285.702h0l.004.002c.375.297.687.643.94 1.04v.001c.256.397.45.823.582 1.278z" fill="#fff" stroke="#fff" stroke-width=".642"/><path d="M88 32H62.062A7.062 7.062 0 0155 24.938V0l33 32z" fill="url(#paint2_linear_584_20115)"/></g><defs><linearGradient id="paint0_linear_584_20115" x1="44" y1="0" x2="44" y2="98" gradientUnits="userSpaceOnUse"><stop stop-color="#FF7979"/><stop offset="1" stop-color="#E85555"/></linearGradient><linearGradient id="paint1_linear_584_20115" x1="44" y1="0" x2="44" y2="98" gradientUnits="userSpaceOnUse"><stop stop-color="#FFA216"/><stop offset="1" stop-color="#EF8100"/></linearGradient><linearGradient id="paint2_linear_584_20115" x1="71.5" y1="0" x2="71.5" y2="32" gradientUnits="userSpaceOnUse"><stop stop-color="#FF7A1B"/><stop offset="1" stop-color="#E86100"/></linearGradient></defs></svg>