<svg width="200" height="120" fill="none" xmlns="http://www.w3.org/2000/svg"><path fill-rule="evenodd" clip-rule="evenodd" d="M46.968 53.025c2.202.315 4.625.653 7.275 1.05 2.892.425 6.085.924 9.639 1.49 3.78-4.288 7.656-8.634 11.606-13.016a1710.374 1710.374 0 00-7.598 13.684 1634.816 1634.816 0 00-8.002 14.873c8.736-12.488 17.442-24.725 26.333-36.61C95 22.757 103.978 11.313 113 0c-4.948 11.665-10.469 24.74-16.26 39.634-6.622 17.024-13.046 36.904-21.099 60.359l40.464-75.114 5.689 45.551-11.672-25.26-40.824 72.5c5.557-20.959 9.566-38.842 14.073-54.214C87.3 50.06 91.014 38.32 94.332 27.918c-6.996 8.89-14.014 17.824-20.826 26.912-6.835 9.11-13.537 18.39-20.203 27.764 2.746-5.608 5.41-11.011 8.039-16.216 2.547-5.043 5.087-9.903 7.546-14.623-1.637 1.952-3.26 3.876-4.882 5.814a893.32 893.32 0 00-9.793-2.658c-2.657-.705-5.065-1.321-7.245-1.886z" fill="#0082C9"/><path fill-rule="evenodd" clip-rule="evenodd" d="M92.732 79.732L105.293 57.1h5.836l15.306 26.31h-10.38l-8.083-14.3-7.693 14.3H84.562l-2.739-4.94H69.63l-2.643 4.94h-9.573L72.361 57.1h7.282l13.09 22.632zM8.23 66.18H.03v-1.872c0-1.894.28-4.14 1.703-5.527 1.469-1.432 3.862-1.674 5.815-1.674H21.12c1.938 0 4.331.242 5.792 1.666 1.44 1.388 1.725 3.634 1.725 5.535V77.31c0 1.365-.352 2.701-1.255 3.758-.734.86-1.652 1.512-2.723 1.872-.837.287-1.726.47-2.607.47H7.547c-1.946 0-4.339-.235-5.807-1.652C.3 80.371.03 78.102.03 76.208v-1.872h9.02v1.102H19.6V74.1H8.229v-7.92zm.822-1.306v1.072h10.55v-1.072H9.05zm40.31 0V83.41h-9.044V64.874h-10.44V57.1h29.974v7.774h-10.49zm75.033-.573c0-1.887.272-4.148 1.711-5.535 1.468-1.417 3.854-1.666 5.799-1.666h16.767c1.931 0 4.287.256 5.748 1.666 1.454 1.402 1.769 3.62 1.769 5.535v11.9c0 1.93-.308 4.163-1.776 5.565-1.461 1.394-3.817 1.644-5.741 1.644h-16.767c-1.938 0-4.324-.242-5.792-1.644-1.453-1.388-1.718-3.664-1.718-5.565v-11.9zm44.311 1.55h12.781V57.1h9.088v26.31h-9.088v-9.705h-12.781v9.705h-9.044V57.1h9.044v8.75zm-94.744 4.8h3.678l-1.82-3.377-1.858 3.377zm59.47 4.78h13.721V64.873h-13.721V75.43z" fill="#F3F7FA"/><path d="M7.187 63h14.278v4.817H10.101v4.419h11.364v5.073H7.187v-1.102H1.9c0 2.034.36 3.45 1.138 4.2.8.778 2.32 1.13 4.508 1.13h14.506c.602 0 1.27-.125 2.004-.367.727-.25 1.365-.697 1.901-1.321s.808-1.483.808-2.54V64.308c0-2.034-.382-3.429-1.153-4.192-.8-.764-2.298-1.138-4.493-1.138H7.547c-2.195 0-3.708.36-4.508 1.145-.77.749-1.138 2.159-1.138 4.185h5.286V63zm40.302 0v18.537h-5.3V63.001H31.75v-4.03h26.23V63H47.49zm23.316 9.522h9.961l-4.933-9.176-5.028 9.176zM60.63 81.537l12.817-22.566h5.117l13.053 22.566h-5.954l-2.73-4.94h-14.42l-2.65 4.94H60.63zm49.42-22.566l13.133 22.566h-6.042l-9.213-16.304-8.765 16.304h-5.3l12.531-22.566h3.656zm16.216 5.33c0-2.041.382-3.436 1.138-4.185.815-.77 2.313-1.145 4.5-1.145h16.767c2.203 0 3.686.374 4.449 1.145.8.741 1.197 2.136 1.197 4.184v11.9c0 2.063-.397 3.458-1.197 4.207-.771.756-2.254 1.13-4.449 1.13h-16.767c-2.18 0-3.678-.374-4.5-1.13-.756-.757-1.138-2.151-1.138-4.207V64.3zm5.293 13h17.465v-14.3h-17.465v14.3zm29.974 4.236V58.971h5.3v8.75h16.525v-8.75h5.344v22.566h-5.344v-9.705h-16.525v9.705h-5.3z" fill="#2B2A29"/><path fill-rule="evenodd" clip-rule="evenodd" d="M183.358 91.44c.741-.572 1.63-.851 2.599-.851 1.159 0 2.202.411 3.002 1.263.83.88 1.138 2.026 1.145 3.215l.345.037-.389 1.424-.007.257h-.066c-.242.83-.705 1.549-1.402 2.077-.749.558-1.645.786-2.57.786-.983 0-1.901-.257-2.657-.83v.698h-3.832v-2.65h-.015v2.65h-6.401v-1.028l-.639 1.028h-1.578v1.688h-3.664v-1.688h-7.252v-1.028l-.639 1.028h-1.593v1.688h-3.656v-1.688h-1.923v1.688h-3.656V99.42a4.876 4.876 0 01-1.498.228c-.991 0-1.916-.264-2.679-.852v.72h-9.213V90.72h4.015l.632 1.916.704-1.916h3.862v.742c.741-.595 1.637-.874 2.62-.874 1.16 0 2.203.411 3.003 1.263.037.044.081.088.125.139l-.015-1.27h9.822v1.028l.632-1.028h5.873v5.139-5.139h6.629v1.028l.638-1.028h5.851v2.489h.015V90.72h3.832v.72zm-65.886-.212c.616-.367 1.343-.507 2.077-.507h4.199v8.795h-3.839v-1.314l-.896 1.314h-5.381v-1.028l-.638 1.028h-5.844v-2.65h-.014v2.65h-3.84v-.624c-.734.535-1.615.756-2.518.756-.998 0-1.93-.264-2.694-.86v.728H87.557v-.646c-.742.557-1.63.778-2.547.778-1.19 0-2.284-.375-3.113-1.24a6.233 6.233 0 01-.213-.243 3.686 3.686 0 01-.991.88 3.907 3.907 0 01-2.07.603c-.059 0-.11 0-.169-.008v2.159h-3.84V90.721h3.054c.33-.088.683-.132 1.028-.132.771 0 1.498.198 2.144.631.345.228.646.514.888.83.052-.059.11-.125.169-.184.807-.866 1.872-1.277 3.054-1.277.984 0 1.872.293 2.606.895v-.763h10.527v.749c.749-.595 1.652-.881 2.635-.881.969 0 1.85.286 2.577.874v-.742h3.84v2.489h.014v-2.49h6.394v1.028l.632-1.028h3.296v.507zm-51.314.264c.748-.61 1.659-.903 2.657-.903 1.16 0 2.203.411 2.995 1.263.83.88 1.145 2.026 1.153 3.215l.338.037-.382 1.424-.007.257h-.067c-.25.83-.704 1.549-1.41 2.077-.748.558-1.644.786-2.569.786-1.005 0-1.938-.272-2.708-.881v.749h-3.84v-.287c-.55.213-1.152.287-1.747.287h-6.54v-2.65h-.008v2.65h-3.84v-.367a3.97 3.97 0 01-1.974.499c-.39 0-.764-.044-1.123-.132h-4.03l-.06-.096v.096h-3.831v-.617c-.742.536-1.615.749-2.518.749-.977 0-1.894-.257-2.65-.83v.698h-3.84v-1.828c-.125.52-.426.961-.852 1.306-.499.404-1.13.558-1.769.558-.271 0-.55-.014-.83-.036H11.695v-.735a3.905 3.905 0 01-.499.33c-.66.36-1.38.537-2.129.537-.396 0-.778-.044-1.138-.132H3.891l-.052-.096v.096H0V90.72h3.84v.286c.102-.051.22-.095.33-.14.381-.117.815-.146 1.218-.146h1.615v.36a4.366 4.366 0 012.063-.492c.984 0 1.88.279 2.628.866v-.734h4.016l.639 1.916.697-1.916h16.95v.72c.735-.573 1.623-.852 2.592-.852.969 0 1.843.279 2.577.866v-.734h3.832v.286c.11-.051.22-.095.337-.14.382-.117.815-.146 1.212-.146h1.615v.367c.638-.33 1.328-.5 2.055-.5.69 0 1.366.14 1.968.463v-.33h3.839v2.489h.007V90.72h6.424v2.334c.631.008 1.277.103 1.864.33V90.72h3.84v.77zm-17.942 2.745c-.066.008-.11.015-.154.074-.11.132-.132.638-.132.8 0 .176.022.69.132.837.037.051.066.051.14.051.007 0 .029 0 .044-.007.036-.074.058-.213.073-.272l.095-.69-.161-.668c-.008-.03-.015-.08-.037-.125zm84.782.573c.323.492.485 1.072.47 1.666-.029.94-.426 1.784-1.182 2.35-.712.52-1.593.69-2.459.69h-4.126V90.72h3.766c.565 0 1.204.037 1.74.22.55.184 1.02.529 1.38.984.411.521.609 1.138.609 1.791 0 .375-.066.749-.198 1.094zm-124.299.308c0 .177.022.639.154.786.066.073.11.095.213.095s.14-.022.206-.095c.132-.147.154-.639.154-.822 0-.177-.022-.595-.154-.742-.066-.073-.103-.095-.206-.095s-.147.022-.22.095c-.125.14-.147.61-.147.778zM78.55 96h.022c.023-.014.06-.058.074-.073.125-.154.154-.683.154-.86 0-.175-.022-.66-.147-.807l-.044-.044a.368.368 0 00-.073.081c-.154.176-.176.639-.176.859 0 .154.022.653.132.785a.22.22 0 00.058.06z" fill="#F3F7FA"/><path d="M1.41 92.13h1.02v2.584c.323 0 .55-.066.682-.183.132-.125.323-.485.573-1.087.205-.47.367-.778.492-.932a.932.932 0 01.426-.301c.168-.051.425-.08.785-.08h.206v.836h-.287c-.264 0-.44.037-.514.118-.08.08-.198.323-.367.734-.154.389-.293.66-.425.807-.125.154-.323.286-.588.411.433.118.867.521 1.292 1.219l1.116 1.85H4.698l-1.094-1.85c-.22-.374-.41-.617-.58-.734a1.015 1.015 0 00-.594-.176v2.76H1.41V92.13zm4.83 2.988c0-1.108.315-1.923.932-2.46.521-.44 1.145-.66 1.894-.66.83 0 1.505.264 2.026.808.529.535.793 1.277.793 2.224 0 .77-.118 1.373-.352 1.813-.228.44-.573.786-1.014 1.028a2.989 2.989 0 01-1.453.367c-.844 0-1.52-.264-2.04-.808-.522-.536-.786-1.306-.786-2.312zm1.05 0c0 .764.168 1.336.506 1.718.338.382.763.572 1.27.572.506 0 .925-.198 1.263-.58.337-.381.506-.961.506-1.747 0-.734-.169-1.3-.506-1.674a1.624 1.624 0 00-1.263-.572c-.507 0-.932.19-1.27.565-.338.382-.507.954-.507 1.718zm5.814-2.988h1.593l1.578 4.78 1.754-4.78h1.469v5.976h-1.014v-4.809l-1.783 4.809h-.91l-1.69-5.043v5.043h-.998V92.13zm7.957 0h4.757v5.976h-1.02v-5.139h-2.709v5.139h-1.028V92.13zm6.783 0h4.743v5.976h-1.02v-5.139h-2.702v2.973c0 .698-.022 1.153-.066 1.373a.978.978 0 01-.375.58c-.205.169-.499.25-.888.25-.235 0-.514-.015-.822-.044v-.845h.448c.213 0 .367-.022.455-.066a.34.34 0 00.183-.205c.03-.096.044-.397.044-.918V92.13zm10.395 4.053l1.057.124c-.168.61-.477 1.087-.925 1.424-.455.338-1.027.507-1.725.507-.88 0-1.578-.272-2.092-.808-.521-.536-.778-1.292-.778-2.26 0-1.006.264-1.785.785-2.342.522-.551 1.197-.83 2.027-.83.807 0 1.468.272 1.974.815.507.543.764 1.307.764 2.29 0 .066 0 .154-.008.272h-4.485c.037.66.228 1.16.558 1.505.338.352.756.528 1.263.528.374 0 .69-.102.954-.293.264-.198.477-.507.631-.932zm-3.347-1.638h3.355c-.044-.506-.17-.88-.382-1.13a1.573 1.573 0 00-1.263-.587c-.47 0-.866.154-1.182.47-.323.308-.499.726-.528 1.247zm5.674-2.415h1.02v2.584c.331 0 .559-.066.684-.183.132-.125.323-.485.58-1.087.198-.47.36-.778.484-.932a.951.951 0 01.433-.301c.162-.051.426-.08.778-.08h.206v.836h-.28c-.27 0-.44.037-.52.118-.074.08-.199.323-.36.734-.154.389-.294.66-.426.807-.125.154-.33.286-.594.411.44.118.866.521 1.292 1.219l1.115 1.85h-1.123l-1.086-1.85c-.22-.374-.419-.617-.58-.734a1.022 1.022 0 00-.602-.176v2.76h-1.02V92.13zm9.147 3.788l.999.125c-.11.69-.39 1.226-.837 1.615-.455.382-1.006.58-1.666.58-.823 0-1.483-.264-1.983-.8-.506-.536-.756-1.3-.756-2.298 0-.646.11-1.211.323-1.696.22-.477.544-.844.984-1.086a2.92 2.92 0 011.439-.36c.653 0 1.19.162 1.6.492.419.33.683.793.8 1.395l-.99.154c-.096-.404-.258-.705-.5-.903a1.297 1.297 0 00-.873-.308c-.514 0-.933.183-1.256.55-.316.367-.477.94-.477 1.733 0 .8.154 1.387.462 1.747.316.367.72.55 1.22.55.396 0 .733-.124.998-.367.271-.242.44-.616.513-1.123zm1.88-3.788h1.02v2.489h2.826V92.13h1.02v5.976h-1.02v-2.65h-2.826v2.65h-1.02V92.13zm12.134 0h1.02v5.976h-1.02V92.13zm-5.71 0h1.027v2.335h1.292c.837 0 1.49.161 1.945.484.455.33.683.771.683 1.344 0 .499-.19.925-.573 1.277-.381.352-.983.536-1.82.536h-2.555V92.13zm1.027 5.139h1.064c.646 0 1.109-.08 1.388-.235a.798.798 0 00.41-.734.967.967 0 00-.307-.697c-.199-.199-.654-.301-1.351-.301h-1.204v1.967zm11.415-1.087l1.057.125c-.169.61-.477 1.087-.925 1.424-.447.338-1.027.507-1.725.507-.88 0-1.578-.272-2.092-.808s-.77-1.292-.77-2.26c0-1.006.256-1.785.777-2.342.522-.551 1.197-.83 2.034-.83.8 0 1.46.272 1.967.815.514.543.771 1.307.771 2.29 0 .066-.007.154-.007.272h-4.493c.037.66.228 1.16.565 1.505a1.67 1.67 0 001.256.528c.374 0 .69-.102.961-.293.265-.198.47-.507.624-.932zm-3.347-1.637h3.362c-.044-.506-.176-.88-.39-1.13a1.563 1.563 0 00-1.262-.587c-.462 0-.859.154-1.182.47-.315.308-.492.726-.528 1.247zm8.912 5.844V92.13h.925v.778c.22-.3.47-.528.749-.682.271-.154.609-.228.998-.228.514 0 .969.132 1.358.39.396.263.697.638.896 1.115.198.477.3.998.3 1.571 0 .61-.11 1.16-.33 1.652-.227.484-.543.859-.969 1.123a2.512 2.512 0 01-1.328.389c-.338 0-.647-.073-.91-.213a2.13 2.13 0 01-.669-.543v2.907h-1.02zm.925-5.234c0 .763.154 1.328.47 1.703.308.367.69.55 1.137.55.456 0 .845-.19 1.168-.572.323-.382.484-.97.484-1.77 0-.763-.161-1.328-.477-1.71-.316-.374-.69-.565-1.13-.565-.434 0-.815.198-1.153.602-.338.404-.5.99-.5 1.762zm9.653 1.028l1.05.124c-.162.61-.47 1.087-.925 1.424-.448.338-1.02.507-1.718.507-.88 0-1.578-.272-2.092-.808-.521-.536-.778-1.292-.778-2.26 0-1.006.264-1.785.785-2.342.522-.551 1.197-.83 2.026-.83.808 0 1.461.272 1.975.815.507.543.764 1.307.764 2.29 0 .066 0 .154-.008.272h-4.485c.037.66.22 1.16.558 1.505a1.67 1.67 0 001.255.528c.375 0 .698-.102.962-.293.264-.198.47-.507.631-.932zm-3.355-1.638h3.363c-.044-.506-.177-.88-.382-1.13a1.583 1.583 0 00-1.263-.587c-.47 0-.866.154-1.182.47-.323.308-.499.726-.536 1.247zm5.72-2.415h1.02v5.132h2.327V92.13h1.02v5.132h2.327V92.13h1.013v5.976h-7.708V92.13zm13.397 4.053l1.057.124c-.169.61-.47 1.087-.925 1.424-.448.338-1.021.507-1.718.507-.881 0-1.586-.272-2.1-.808s-.77-1.292-.77-2.26c0-1.006.264-1.785.778-2.342.528-.551 1.204-.83 2.033-.83.808 0 1.461.272 1.968.815.513.543.77 1.307.77 2.29 0 .066 0 .154-.007.272h-4.485c.036.66.22 1.16.557 1.505a1.67 1.67 0 001.256.528c.374 0 .697-.102.962-.293.264-.198.469-.507.624-.932zm-3.348-1.638h3.362c-.044-.506-.176-.88-.382-1.13a1.586 1.586 0 00-1.27-.587c-.462 0-.858.154-1.181.47-.316.308-.492.726-.529 1.247zm5.689-2.415h1.021v2.489h2.833V92.13h1.021v5.976h-1.021v-2.65h-2.833v2.65h-1.021V92.13zm6.409 0h1.02v4.559l2.827-4.559h1.101v5.976h-1.02v-4.53l-2.827 4.53h-1.101V92.13zm11.225 0v5.976h-1.021v-2.327h-.587c-.36 0-.624.044-.8.132-.176.095-.433.389-.771.888l-.888 1.307h-1.263l1.101-1.615c.338-.485.668-.764.998-.83-.579-.08-1.013-.286-1.292-.624a1.78 1.78 0 01-.425-1.16c0-.52.183-.94.558-1.262.367-.323.903-.485 1.6-.485h2.79zm-1.021.837h-1.446c-.609 0-1.006.096-1.182.286a.94.94 0 00-.257.654c0 .36.125.616.389.785.257.17.712.25 1.373.25h1.123v-1.975zm5.792-.837h2.357c.58 0 1.005.052 1.292.147.279.095.521.272.727.521.198.257.3.566.3.918 0 .286-.058.536-.183.749a1.423 1.423 0 01-.536.528c.286.096.521.272.712.529.184.257.279.558.279.91-.037.565-.242.991-.609 1.263-.375.271-.91.41-1.623.41h-2.716V92.13zm1.028 2.518h1.086c.434 0 .735-.022.896-.073a.885.885 0 00.433-.272.67.67 0 00.191-.492c0-.315-.11-.536-.33-.653-.228-.125-.61-.19-1.153-.19h-1.123v1.68zm0 2.62h1.343c.573 0 .969-.065 1.19-.197.213-.132.323-.36.337-.69a.809.809 0 00-.19-.529.801.801 0 00-.485-.308c-.198-.044-.521-.066-.962-.066h-1.233v1.79zm8.391-5.138h1.586l1.585 4.78 1.755-4.78h1.468v5.976h-1.021v-4.809l-1.776 4.809h-.918l-1.681-5.043v5.043h-.998V92.13zm12.076 4.053l1.05.124c-.162.61-.47 1.087-.918 1.424-.455.338-1.028.507-1.725.507-.881 0-1.578-.272-2.092-.808-.522-.536-.778-1.292-.778-2.26 0-1.006.264-1.785.785-2.342.521-.551 1.197-.83 2.026-.83.808 0 1.461.272 1.975.815.506.543.763 1.307.763 2.29 0 .066 0 .154-.007.272h-4.485c.036.66.22 1.16.558 1.505.337.352.756.528 1.262.528.367 0 .69-.102.955-.293.264-.198.477-.507.631-.932zm-3.355-1.638h3.362c-.044-.506-.169-.88-.381-1.13a1.585 1.585 0 00-1.263-.587c-.47 0-.866.154-1.182.47-.323.308-.499.726-.536 1.247zm6.24-2.415h4.192v5.139h.653v2.525h-.837v-1.688h-4.742v1.688h-.837V97.27h.536c.719-.97 1.064-2.68 1.035-5.139zm.851.837c-.08 1.938-.381 3.377-.91 4.302h3.238v-4.302h-2.328zm5.117-.837h1.021v4.559l2.826-4.559h1.101v5.976h-1.02v-4.53l-2.827 4.53h-1.101V92.13zm6.497 0h1.028v5.139h2.819V92.13h1.02v5.139h.661v2.525h-.844v-1.688h-4.684V92.13zm6.636 0h1.021v4.559l2.826-4.559h1.101v5.976h-1.02v-4.53l-2.826 4.53h-1.102V92.13zm6.49 0h1.02v2.489h2.834V92.13h1.013v5.976h-1.013v-2.65h-2.834v2.65h-1.02V92.13zm10.527 4.053l1.05.124c-.162.61-.47 1.087-.918 1.424-.455.338-1.028.507-1.725.507-.881 0-1.578-.272-2.092-.808-.521-.536-.778-1.292-.778-2.26 0-1.006.264-1.785.785-2.342.521-.551 1.197-.83 2.026-.83.808 0 1.461.272 1.975.815.507.543.763 1.307.763 2.29 0 .066 0 .154-.007.272h-4.485c.036.66.22 1.16.558 1.505.337.352.756.528 1.262.528.367 0 .69-.102.955-.293.264-.198.477-.507.631-.932zm-3.348-1.638h3.355c-.044-.506-.169-.88-.381-1.13a1.574 1.574 0 00-1.263-.587c-.47 0-.866.154-1.182.47-.323.308-.499.726-.529 1.247zm12.135-37.079a3.61 3.61 0 012.548 1.05v.007a3.567 3.567 0 011.057 2.54c0 .998-.404 1.894-1.057 2.547a3.597 3.597 0 01-2.548 1.057 3.566 3.566 0 01-2.54-1.057h-.007a3.608 3.608 0 01-1.05-2.547 3.62 3.62 0 011.05-2.547 3.62 3.62 0 012.547-1.05zm1.858 1.74v.007a2.614 2.614 0 00-1.858-.77 2.618 2.618 0 00-2.62 2.62c0 .727.293 1.38.763 1.857a2.614 2.614 0 001.857.771c.727 0 1.381-.294 1.858-.77a2.6 2.6 0 00.771-1.858c0-.727-.294-1.38-.771-1.857z" fill="#2B2A29"/><path d="M195.001 62.634v-3.34h1.586c.308 0 .543.03.712.095.088.037.176.088.249.147a1.009 1.009 0 01.309.507c.029.095.044.19.044.293 0 .14-.022.265-.066.375l-.008.007c-.044.11-.11.22-.198.316a1.043 1.043 0 01-.338.227l-.029.015a2.434 2.434 0 01.316.397l.55.858.184.287h-.969l-.052-.088-.418-.654c-.051-.08-.11-.161-.162-.242a2.482 2.482 0 00-.132-.176c-.036-.044-.066-.088-.095-.11-.03-.03-.052-.052-.066-.06h-.008a.187.187 0 00-.066-.036c-.022-.014-.036-.022-.058-.022-.015-.007-.037-.007-.066-.007l-.125-.008h-.301v1.403h-.793v-.184zm.374-2.973v2.782h.044v-2.782h-.044zm1.784.073a1.52 1.52 0 00-.176-.044.662.662 0 01.485.646c0 .074-.008.14-.03.206a.602.602 0 01-.081.176l-.007.007a.713.713 0 01-.139.155l-.052.036a.671.671 0 00.198-.14.475.475 0 00.125-.197.634.634 0 00.044-.243.59.59 0 00-.029-.198.656.656 0 00-.073-.176.57.57 0 00-.257-.228h-.008zm-.778 1.337l.096-.015h-.162l.044.007h.007l.015.008zm.565.418a.314.314 0 00-.058-.044c.036.044.08.11.124.176.044.059.103.147.169.25v.007l.367.565h.081l-.367-.572c-.044-.074-.103-.147-.154-.213-.052-.059-.103-.118-.162-.17zm-1.152-.808h.712c.088 0 .161 0 .227-.007.067-.015.118-.022.155-.037a.4.4 0 00.095-.051.261.261 0 00.059-.066c.014-.03.029-.059.036-.088.015-.03.015-.059.015-.096a.336.336 0 00-.022-.124.342.342 0 00-.073-.103c-.074-.066-.206-.096-.389-.096h-.815v.668z" fill="#2B2A29"/><path fill-rule="evenodd" clip-rule="evenodd" d="M182.572 108.002c-.014-.059-.036-.117-.051-.176a4.184 4.184 0 01-.176-1.241v-1.409h6.409v1.409c0 .419-.059.844-.177 1.248-.014.059-.036.118-.051.169h.69v8.89h-3.839v-1.035l-.654 1.035h-3.127v-8.89h.976zM4.243 111.717v5.175H.403v-8.89h6.681v3.715h-2.84zm12.018 5.3v2.121h-3.847v-11.136H15.6a3.81 3.81 0 011.116-.169c1.145 0 2.121.485 2.79 1.424.63.889.843 1.96.843 3.032 0 1.197-.279 2.364-1.042 3.304-.741.917-1.755 1.424-2.936 1.424h-.11zm11.1-1.857l-2.732-7.158h4.126l.675 1.835.676-1.835h4.118l-4.375 11.136h-4.2l1.711-3.978zm15.393 1.732h-3.846v-8.89h7.62v8.89h-3.774zm13.67 0h-3.847v-8.89h7.627v8.89h-3.78zm13.867 0c-.037.015-.066.022-.103.037-.352.103-.742.132-1.109.132a3.25 3.25 0 01-1.262-.25 3.26 3.26 0 01-1.05-.712 3.262 3.262 0 01-.69-1.079 3.407 3.407 0 01-.25-1.299c0-.632.14-1.248.463-1.799.015-.014.022-.029.03-.044v-3.413l1.02-.287c.308-.088.631-.154.947-.213a7.678 7.678 0 011.299-.117c.455 0 .925.029 1.365.132.478.11.918.308 1.307.602.426.323.749.741.955 1.233.198.477.271.999.271 1.513v5.564h-3.193zm20.011-.639v.639h-3.846v-8.89h3.846v.426c.529-.308 1.138-.426 1.755-.426h1.689v3.715H92.38a4.082 4.082 0 01-.272.609l3.502 4.566h-4.83l-.478-.639zm16.922-3.802c0 1.196-.287 2.386-1.094 3.303-.793.889-1.85 1.307-3.025 1.307-1.211 0-2.29-.433-3.076-1.358-.77-.918-1.057-2.07-1.057-3.252 0-1.204.294-2.379 1.109-3.296.785-.889 1.835-1.322 3.024-1.322 1.182 0 2.239.426 3.025 1.322.807.917 1.094 2.099 1.094 3.296zm10.24 2.775h-.844v1.666h-3.78v-8.89h3.538l.683 1.446.66-1.446h3.59v8.89h-3.847v-1.666zm13.728 1.666h-3.846v-8.89h7.627v8.89h-3.781zm13.868 0c-.037.015-.067.022-.103.037-.353.103-.742.132-1.109.132-.433 0-.859-.081-1.262-.25a3.25 3.25 0 01-1.05-.712 3.254 3.254 0 01-.69-1.079 3.405 3.405 0 01-.25-1.299c0-.632.14-1.248.47-1.799l.022-.044v-3.413l1.02-.287c.309-.088.632-.154.947-.213a7.683 7.683 0 011.3-.117c.455 0 .925.029 1.365.132.477.11.918.308 1.307.602.433.323.749.741.954 1.233.198.477.272.999.272 1.513v5.564h-3.193zm13.045 0h-3.847v-8.89h7.627v8.89h-3.78zm13.595-1.035l-.646 1.035h-3.127v-8.89h3.839v.984l.624-.984h3.157v8.89H171.7v-1.035zm-155.315-4.228c-.044.007-.08.022-.125.036v1.608c.015 0 .037-.007.045-.007l.014-.015c.132-.176.154-.646.154-.852 0-.19-.014-.536-.088-.77zm86.808-.074c-.022-.007-.066-.007-.088-.007-.029 0-.073 0-.11.007-.117.162-.147.705-.147.896 0 .213.03.705.162.888v.007a.41.41 0 00.095.008c.015 0 .059 0 .081-.008.007 0 .007-.007.007-.007.125-.169.147-.69.147-.888 0-.191-.022-.734-.147-.896z" fill="#F3F7FA" stroke="#F3F7FA" stroke-width=".26" stroke-miterlimit="22.926"/><path d="M5.675 110.307H2.834v5.175h-1.02v-6.071h3.86v.896zm13.265 1.982c0 1.013-.242 1.821-.727 2.415-.484.602-1.1.903-1.842.903-.301 0-.573-.037-.8-.103a2.934 2.934 0 01-.72-.323v2.548h-1.028v-8.318h1.028v.639c.257-.228.536-.418.852-.573a2.26 2.26 0 011.013-.235c.705 0 1.248.279 1.637.83.396.551.587 1.292.587 2.217zm-1.057.11c0-.69-.11-1.226-.33-1.608-.228-.389-.588-.58-1.087-.58-.286 0-.572.067-.844.199a3.33 3.33 0 00-.77.499v3.435c.27.133.498.221.69.272.19.044.41.066.66.066.528 0 .947-.191 1.24-.58.294-.389.441-.954.441-1.703zm14.271-2.988l-3.267 8.318h-1.093l1.086-2.54-2.202-5.778h1.093l1.667 4.508 1.652-4.508h1.064zm12.964 6.071h-1.02v-5.175h-2.753v5.175h-1.028v-6.071h4.801v6.071zm13.677 0h-1.028v-5.175h-2.753v5.175h-1.028v-6.071h4.809v6.071zm12.252-1.497v-1.674c-.242.022-.55.051-.918.088a4.37 4.37 0 00-.895.162c-.272.08-.5.205-.675.381-.177.169-.265.404-.265.712 0 .345.096.61.294.786.198.176.477.264.851.264.323 0 .617-.066.874-.205a3.62 3.62 0 00.734-.514zm0 .851c-.08.059-.198.147-.338.257-.14.11-.271.198-.396.265a3.21 3.21 0 01-.529.22c-.168.051-.403.073-.704.073a1.842 1.842 0 01-1.307-.536 1.882 1.882 0 01-.39-.616 2.013 2.013 0 01-.146-.779c0-.418.088-.778.264-1.071.176-.301.456-.536.845-.705.337-.162.741-.264 1.203-.323.463-.059.962-.103 1.498-.14v-.198c0-.242-.037-.433-.11-.58a.775.775 0 00-.301-.345 1.201 1.201 0 00-.477-.169 3.93 3.93 0 00-.588-.044c-.234 0-.506.037-.829.11a5.47 5.47 0 00-.954.316h-.06v-1.035c.184-.059.456-.117.808-.183a5.62 5.62 0 011.05-.096c.419 0 .764.029 1.057.096.287.066.544.183.771.352.22.169.382.389.492.653.11.265.169.588.169.969v4.155h-1.028v-.646zm21.708.646h-1.27l-2.093-2.797h-.506v2.797h-1.02v-6.071h1.02v2.643a1.42 1.42 0 00.683-.169c.183-.103.337-.315.47-.624l.132-.315a6.57 6.57 0 00.11-.316c.154-.441.381-.756.66-.94.287-.191.661-.279 1.116-.279h.28v.896H92.1c-.286 0-.499.051-.646.169-.14.117-.264.323-.36.638-.102.316-.22.558-.36.735a1.446 1.446 0 01-.454.403l2.474 3.23zm13.052-3.032c0 1.021-.242 1.814-.741 2.372-.492.55-1.146.829-1.968.829-.844 0-1.505-.286-1.989-.859-.485-.572-.727-1.358-.727-2.342 0-1.013.25-1.798.749-2.363.499-.558 1.152-.845 1.967-.845.822 0 1.476.287 1.968.845.499.558.741 1.343.741 2.363zm-1.057 0c0-.778-.147-1.365-.426-1.747-.286-.374-.697-.565-1.226-.565-.528 0-.939.191-1.226.565-.286.382-.433.969-.433 1.747 0 .757.147 1.329.433 1.726.287.389.698.587 1.226.587.529 0 .932-.191 1.219-.58.286-.382.433-.962.433-1.733zm15.145 3.032h-1.021v-4.771l-1.461 3.105h-.763l-1.446-3.105v4.771h-.955v-6.071h1.234l1.6 3.377 1.542-3.377h1.27v6.071zm13.661 0h-1.02v-5.175h-2.753v5.175h-1.028v-6.071h4.801v6.071zm12.26-1.497v-1.674c-.242.022-.551.051-.918.088-.374.037-.675.088-.895.162-.272.08-.5.205-.676.381-.176.169-.264.404-.264.712 0 .345.095.61.294.786.19.176.477.264.851.264.323 0 .617-.066.874-.205.257-.14.506-.309.734-.514zm0 .851c-.088.059-.198.147-.338.257a2.894 2.894 0 01-.925.485c-.169.051-.404.073-.712.073-.25 0-.484-.044-.712-.139a1.897 1.897 0 01-.587-.397 1.867 1.867 0 01-.389-.616 2.01 2.01 0 01-.147-.779c0-.418.088-.778.264-1.071.176-.301.455-.536.837-.705.345-.162.749-.264 1.211-.323.463-.059.962-.103 1.498-.14v-.198c0-.242-.037-.433-.11-.58a.824.824 0 00-.301-.345 1.196 1.196 0 00-.485-.169 3.757 3.757 0 00-.58-.044c-.235 0-.514.037-.829.11a5.545 5.545 0 00-.962.316h-.059v-1.035c.191-.059.463-.117.815-.183a5.554 5.554 0 011.043-.096c.418 0 .77.029 1.057.096.286.066.543.183.778.352.22.169.382.389.492.653.11.265.161.588.161.969v4.155h-1.02v-.646zm14.653.646h-1.028v-2.716h-2.753v2.716h-1.02v-6.071h1.02v2.467h2.753v-2.467h1.028v6.071zm13.669 0h-1.028v-4.529l-2.841 4.529h-.94v-6.071h1.028v4.464l2.804-4.464h.977v6.071zm13.669 0h-1.028v-4.529l-2.841 4.529h-.94v-6.071h1.028v4.464l2.812-4.464h.969v6.071zm-.47-8.897c0 .308-.037.595-.118.844a1.766 1.766 0 01-.323.646 1.55 1.55 0 01-.557.433c-.206.096-.47.147-.793.147-.301 0-.558-.051-.778-.154a1.418 1.418 0 01-.566-.426 1.668 1.668 0 01-.337-.653 2.937 2.937 0 01-.118-.837h.881c0 .484.073.83.228 1.042.154.221.381.323.69.323.286 0 .514-.102.668-.315.161-.206.242-.558.242-1.05h.881z" fill="#0082C9" stroke="#0082C9" stroke-width=".26" stroke-miterlimit="22.926"/></svg>