<svg width="220" height="132" fill="none" xmlns="http://www.w3.org/2000/svg"><path fill-rule="evenodd" clip-rule="evenodd" d="M51.665 58.327c2.422.347 5.087.719 8.002 1.155 3.182.468 6.695 1.017 10.603 1.639a1782.94 1782.94 0 0112.767-14.317 1882.8 1882.8 0 00-8.358 15.052c-2.89 5.29-5.814 10.756-8.802 16.36 9.61-13.736 19.187-27.197 28.966-40.27C104.5 25.032 114.377 12.443 124.3 0c-5.443 12.832-11.515 27.213-17.886 43.598-7.284 18.726-14.35 40.594-23.208 66.394l44.51-82.625 6.258 50.106-12.839-27.786-44.906 79.75c6.112-23.055 10.522-42.726 15.48-59.635 4.32-14.737 8.406-27.65 12.056-39.092-7.696 9.779-15.416 19.606-22.91 29.603-7.517 10.022-14.89 20.229-22.222 30.54a1620.29 1620.29 0 018.842-17.837c2.802-5.548 5.596-10.894 8.301-16.086-1.8 2.148-3.585 4.264-5.37 6.395a982.286 982.286 0 00-10.772-2.923c-2.923-.775-5.572-1.453-7.97-2.075z" fill="#0082C9"/><path fill-rule="evenodd" clip-rule="evenodd" d="M102.006 87.704l13.816-24.895h6.42l16.837 28.941H127.66l-8.89-15.73-8.463 15.73h-17.29l-3.011-5.435H76.593l-2.907 5.435h-10.53l16.441-28.941h8.01l14.399 24.895zM9.052 72.798H.032v-2.06c0-2.083.307-4.554 1.874-6.08 1.615-1.575 4.247-1.841 6.395-1.841h14.931c2.132 0 4.765.266 6.372 1.833 1.582 1.526 1.897 3.997 1.897 6.088V85.04c0 1.501-.387 2.971-1.38 4.134-.808.945-1.817 1.663-2.996 2.06-.921.314-1.898.516-2.867.516H8.3c-2.14 0-4.772-.258-6.387-1.817C.33 88.407.032 85.912.032 83.828V81.77h9.925v1.211H21.56v-1.47H9.052v-8.712zm.905-1.438v1.18H21.56v-1.18H9.957zm44.34 0v20.39H44.35V71.36H32.866v-8.55h32.97v8.551H54.299zm82.537-.63c0-2.075.299-4.562 1.881-6.088 1.615-1.559 4.24-1.833 6.38-1.833h18.443c2.124 0 4.716.282 6.323 1.833 1.599 1.542 1.946 3.98 1.946 6.088v13.09c0 2.124-.339 4.579-1.954 6.121-1.607 1.534-4.199 1.809-6.315 1.809h-18.443c-2.132 0-4.757-.266-6.372-1.809-1.598-1.526-1.889-4.03-1.889-6.12V70.73zm48.742 1.704h14.058V62.81h9.997v28.94h-9.997V81.075h-14.058V91.75h-9.949V62.809h9.949v9.625zM81.357 77.715h4.046L83.4 74.001l-2.043 3.714zm65.417 5.257h15.093V71.36h-15.093v11.612z" fill="#FEFEFE"/><path d="M7.906 69.3h15.706v5.298h-12.5v4.862h12.5v5.58H7.906v-1.212H2.09c0 2.237.396 3.796 1.252 4.62.88.855 2.552 1.243 4.958 1.243h15.957c.662 0 1.397-.138 2.204-.404.8-.275 1.502-.767 2.092-1.454.59-.686.888-1.63.888-2.793V70.738c0-2.237-.42-3.77-1.268-4.61-.88-.84-2.527-1.252-4.942-1.252H8.302c-2.415 0-4.079.395-4.959 1.26-.848.823-1.252 2.374-1.252 4.602h5.815v-1.437zm44.332 0v20.39h-5.83V69.3H34.925v-4.432h28.853V69.3h-11.54zm25.647 10.474h10.958L83.416 69.68l-5.531 10.094zm-11.192 9.917l14.1-24.823h5.627l14.358 24.823h-6.549l-3.004-5.435h-15.86l-2.915 5.435h-5.757zm54.362-24.823l14.446 24.823h-6.645l-10.135-17.935-9.642 17.935h-5.83l13.784-24.823h4.022zm17.838 5.862c0-2.245.42-3.779 1.252-4.603.896-.847 2.543-1.26 4.95-1.26h18.443c2.423 0 4.054.412 4.894 1.26.88.816 1.316 2.35 1.316 4.603v13.09c0 2.27-.436 3.804-1.316 4.627-.848.832-2.479 1.244-4.894 1.244h-18.443c-2.399 0-4.046-.412-4.95-1.244-.832-.832-1.252-2.366-1.252-4.627V70.73zm5.822 14.301h19.211v-15.73h-19.211v15.73zm32.971 4.66V64.868h5.83v9.625h18.178v-9.625h5.878V89.69h-5.878V79.015h-18.178v10.676h-5.83z" fill="#2B2A29"/><path fill-rule="evenodd" clip-rule="evenodd" d="M201.694 100.584c.815-.63 1.792-.937 2.858-.937 1.276 0 2.423.453 3.303 1.389.912.969 1.252 2.229 1.26 3.537l.379.041-.428 1.566-.008.283h-.073c-.266.912-.775 1.704-1.542 2.285-.824.614-1.809.864-2.826.864-1.082 0-2.092-.282-2.923-.912v.767h-4.216v-2.915h-.016v2.915h-7.041v-1.131l-.703 1.131h-1.736v1.857h-4.03v-1.857h-7.978v-1.131l-.702 1.131h-1.753v1.857h-4.021v-1.857h-2.116v1.857h-4.021v-1.962a5.378 5.378 0 01-1.648.25c-1.09 0-2.107-.29-2.947-.936v.791h-10.134v-9.674h4.417l.694 2.107.775-2.107h4.248v.815c.816-.654 1.801-.96 2.883-.96 1.276 0 2.422.452 3.303 1.388.04.049.088.097.137.154l-.016-1.397h10.804v1.13l.695-1.13h6.46v5.652-5.652h7.292v1.13l.702-1.13h6.436v2.737h.016v-2.737h4.216v.791zm-72.475-.234c.678-.404 1.478-.557 2.285-.557h4.619v9.674H131.9v-1.446l-.985 1.446h-5.919v-1.131l-.703 1.131h-6.428v-2.915h-.016v2.915h-4.223v-.687c-.808.59-1.777.832-2.77.832-1.098 0-2.124-.29-2.964-.945v.8h-11.58v-.711c-.815.614-1.792.856-2.802.856-1.308 0-2.51-.412-3.423-1.364-.081-.089-.162-.178-.235-.267-.298.38-.662.711-1.09.969a4.298 4.298 0 01-2.277.662c-.064 0-.121 0-.186-.008v2.374h-4.223V99.793h3.36a4.43 4.43 0 011.13-.146c.848 0 1.647.218 2.358.695.38.25.71.565.977.912.056-.064.121-.137.186-.201.888-.953 2.059-1.406 3.359-1.406 1.082 0 2.06.323 2.867.986v-.84h11.579v.823c.824-.654 1.817-.969 2.899-.969 1.066 0 2.035.315 2.835.961v-.815h4.223v2.737h.016v-2.737h7.034v1.13l.694-1.13h3.626v.557zm-56.446.291c.824-.67 1.825-.994 2.924-.994 1.275 0 2.422.453 3.294 1.389.913.969 1.26 2.229 1.268 3.537l.372.041-.42 1.566-.008.283h-.073c-.275.912-.775 1.704-1.55 2.285-.824.614-1.81.864-2.827.864-1.106 0-2.132-.299-2.98-.969v.824H68.55v-.315c-.605.234-1.268.315-1.922.315h-7.195v-2.915h-.008v2.915h-4.223v-.404c-.654.372-1.397.549-2.172.549a5.17 5.17 0 01-1.236-.145h-4.433l-.065-.105v.105h-4.215v-.678c-.816.589-1.777.823-2.77.823-1.074 0-2.083-.282-2.915-.912v.767h-4.223v-2.011c-.138.573-.469 1.058-.937 1.438-.549.444-1.243.613-1.946.613-.299 0-.606-.016-.912-.04H12.864v-.808a4.26 4.26 0 01-.55.364 4.855 4.855 0 01-2.341.589c-.436 0-.856-.048-1.252-.145H4.28l-.057-.105v.105H0v-9.674h4.223v.315c.113-.057.243-.105.364-.154.42-.129.896-.161 1.34-.161h1.777v.395a4.807 4.807 0 012.269-.54c1.082 0 2.067.306 2.89.952v-.807h4.418l.702 2.107.768-2.107h18.645v.791c.808-.63 1.785-.937 2.85-.937 1.067 0 2.027.307 2.835.953v-.807h4.215v.315c.121-.057.242-.105.372-.154.42-.129.896-.161 1.332-.161h1.777v.404a4.865 4.865 0 012.26-.55c.76 0 1.503.154 2.165.509v-.363h4.223v2.737h.008v-2.737H66.5v2.568c.695.008 1.405.113 2.051.363v-2.931h4.223v.848zm-19.735 3.02c-.073.008-.121.016-.17.081-.121.145-.145.702-.145.88 0 .194.024.759.145.92.04.057.073.057.154.057.008 0 .032 0 .048-.008.04-.081.065-.234.08-.299l.106-.759-.178-.735c-.008-.032-.016-.089-.04-.137zm93.26.63a3.19 3.19 0 01.517 1.833c-.033 1.033-.469 1.962-1.3 2.584-.784.573-1.753.759-2.706.759h-4.538v-9.674h4.143c.622 0 1.324.04 1.914.242a3.244 3.244 0 011.518 1.082 3.13 3.13 0 01.67 1.97c0 .412-.073.824-.218 1.204zm-136.729.339c0 .194.024.702.17.864.072.081.12.105.234.105.113 0 .153-.024.226-.105.145-.162.17-.703.17-.905 0-.193-.025-.654-.17-.815-.073-.081-.113-.105-.226-.105s-.162.024-.242.105c-.138.153-.162.67-.162.856zm76.835.969h.025c.024-.016.064-.065.08-.081.138-.169.17-.751.17-.945 0-.193-.024-.726-.162-.888l-.048-.048a.398.398 0 00-.08.088c-.17.194-.195.703-.195.945 0 .17.025.719.146.864.008.016.04.049.064.065z" fill="#FEFEFE"/><path d="M1.55 101.344h1.123v2.842c.355 0 .606-.073.75-.202.146-.137.356-.533.63-1.195.227-.517.404-.856.542-1.025.137-.162.29-.275.468-.332.186-.056.468-.088.864-.088h.226v.92h-.315c-.29 0-.484.041-.565.129-.089.089-.218.356-.404.808-.17.428-.323.727-.468.888-.137.17-.355.315-.646.452.476.13.953.574 1.421 1.341l1.228 2.035H5.168l-1.203-2.035c-.242-.412-.452-.678-.638-.808a1.117 1.117 0 00-.654-.193v3.036H1.55v-6.573zm5.314 3.286c0-1.219.347-2.115 1.025-2.705.574-.484 1.26-.727 2.084-.727.912 0 1.655.291 2.229.889.581.589.872 1.405.872 2.446 0 .848-.13 1.51-.388 1.995-.25.484-.63.864-1.114 1.13a3.283 3.283 0 01-1.6.404c-.928 0-1.67-.291-2.244-.888-.573-.59-.864-1.438-.864-2.544zm1.155 0c0 .84.185 1.47.557 1.89.371.42.84.63 1.397.63s1.017-.218 1.389-.638c.371-.42.557-1.058.557-1.922 0-.808-.186-1.429-.557-1.841-.372-.42-.84-.63-1.39-.63a1.81 1.81 0 00-1.396.622c-.372.42-.557 1.049-.557 1.889zm6.395-3.286h1.752l1.737 5.257 1.93-5.257h1.615v6.573h-1.115v-5.289l-1.962 5.289H17.37l-1.858-5.548v5.548h-1.098v-6.573zm8.754 0H28.4v6.573h-1.122v-5.653h-2.98v5.653h-1.13v-6.573zm7.461 0h5.217v6.573h-1.123v-5.653h-2.971v3.271c0 .767-.025 1.267-.073 1.51a1.08 1.08 0 01-.412.638c-.226.185-.55.274-.977.274-.258 0-.565-.016-.904-.048v-.929h.492c.234 0 .404-.024.5-.073a.371.371 0 00.203-.226c.032-.105.048-.436.048-1.009v-4.328zm11.435 4.457l1.162.137c-.185.671-.524 1.196-1.017 1.567-.5.371-1.13.557-1.898.557-.969 0-1.736-.299-2.301-.888-.573-.59-.856-1.421-.856-2.487 0-1.107.29-1.963.864-2.576.573-.606 1.316-.913 2.229-.913.888 0 1.615.299 2.172.897.557.597.84 1.437.84 2.519 0 .073 0 .17-.008.299h-4.934c.04.727.25 1.276.613 1.655a1.84 1.84 0 001.39.582c.411 0 .758-.113 1.05-.323.29-.218.524-.558.694-1.026zM38.38 104h3.69c-.048-.557-.185-.969-.42-1.243a1.73 1.73 0 00-1.388-.646c-.517 0-.953.169-1.3.517-.356.339-.55.799-.582 1.372zm6.242-2.656h1.123v2.842c.363 0 .614-.073.75-.202.146-.137.356-.533.639-1.195.218-.517.396-.856.533-1.025a1.05 1.05 0 01.476-.332c.178-.056.468-.088.856-.088h.226v.92h-.307c-.298 0-.484.041-.573.129-.08.089-.218.356-.396.808-.17.428-.323.727-.468.888-.137.17-.363.315-.654.452.484.13.953.574 1.421 1.341l1.228 2.035H48.24l-1.195-2.035c-.242-.412-.46-.678-.638-.808a1.125 1.125 0 00-.662-.193v3.036h-1.123v-6.573zm10.062 4.166l1.098.138c-.12.759-.428 1.348-.92 1.776-.5.42-1.107.638-1.833.638-.905 0-1.632-.291-2.18-.88-.558-.59-.832-1.429-.832-2.528 0-.71.12-1.332.355-1.865.242-.525.598-.929 1.082-1.195a3.215 3.215 0 011.583-.396c.718 0 1.308.178 1.76.541.46.364.751.872.88 1.535l-1.09.169c-.105-.444-.282-.775-.549-.993a1.427 1.427 0 00-.96-.339c-.566 0-1.026.202-1.382.605-.347.404-.525 1.034-.525 1.906 0 .88.17 1.526.51 1.922.346.404.79.606 1.34.606.436 0 .807-.138 1.098-.404.299-.267.484-.678.565-1.236zm2.067-4.166h1.123v2.737h3.109v-2.737h1.122v6.573h-1.122v-2.915h-3.11v2.915h-1.122v-6.573zm13.349 0h1.122v6.573H70.1v-6.573zm-6.283 0h1.13v2.568h1.422c.92 0 1.64.177 2.14.532.5.364.75.848.75 1.478 0 .549-.21 1.018-.63 1.405-.419.388-1.081.59-2.002.59h-2.81v-6.573zm1.13 5.652h1.172c.71 0 1.219-.089 1.526-.258.299-.178.452-.444.452-.808 0-.282-.113-.541-.34-.767-.217-.218-.718-.331-1.485-.331h-1.324v2.164zm12.558-1.195l1.162.137c-.185.671-.525 1.196-1.017 1.567-.493.371-1.13.557-1.898.557-.969 0-1.736-.299-2.301-.888-.566-.59-.848-1.421-.848-2.487 0-1.107.282-1.963.856-2.576.573-.606 1.316-.913 2.237-.913.88 0 1.607.299 2.164.897.565.597.848 1.437.848 2.519 0 .073-.008.17-.008.299h-4.942c.04.727.25 1.276.621 1.655.372.388.832.582 1.381.582.412 0 .76-.113 1.058-.323.29-.218.517-.558.686-1.026zM73.822 104h3.699c-.049-.557-.194-.969-.428-1.243a1.72 1.72 0 00-1.39-.646 1.79 1.79 0 00-1.3.517c-.347.339-.54.799-.58 1.372zm9.803 6.428v-9.084h1.018v.856c.242-.332.517-.582.824-.751.298-.17.67-.251 1.098-.251.565 0 1.066.146 1.494.428.436.291.767.703.985 1.228.218.525.331 1.098.331 1.728 0 .67-.121 1.276-.363 1.817-.25.533-.598.944-1.066 1.235-.46.283-.953.428-1.462.428-.371 0-.71-.081-1.001-.234a2.34 2.34 0 01-.735-.598v3.198h-1.123zm1.018-5.757c0 .839.17 1.461.517 1.873.339.404.759.606 1.251.606.501 0 .93-.21 1.284-.63.356-.42.533-1.066.533-1.946 0-.84-.177-1.462-.525-1.882-.347-.412-.759-.622-1.243-.622-.477 0-.897.218-1.268.663-.371.444-.549 1.09-.549 1.938zm10.619 1.13l1.154.137c-.177.671-.516 1.196-1.017 1.567-.493.371-1.122.557-1.89.557-.969 0-1.736-.299-2.3-.888-.574-.59-.857-1.421-.857-2.487 0-1.107.29-1.963.864-2.576.573-.606 1.316-.913 2.229-.913.888 0 1.607.299 2.172.897.557.597.84 1.437.84 2.519 0 .073 0 .17-.008.299h-4.934c.04.727.242 1.276.614 1.655.371.388.831.582 1.38.582.412 0 .768-.113 1.058-.323.291-.218.517-.558.695-1.026zM91.573 104h3.698c-.049-.557-.194-.969-.42-1.243a1.742 1.742 0 00-1.389-.646c-.517 0-.953.169-1.3.517-.355.339-.55.799-.59 1.372zm6.29-2.656h1.123v5.644h2.559v-5.644h1.123v5.644h2.56v-5.644h1.114v6.573h-8.479v-6.573zm14.737 4.457l1.163.137c-.186.671-.517 1.196-1.017 1.567-.493.371-1.123.557-1.89.557-.969 0-1.744-.299-2.31-.888-.565-.59-.847-1.421-.847-2.487 0-1.107.29-1.963.856-2.576.581-.606 1.324-.913 2.236-.913.889 0 1.607.299 2.165.897.565.597.847 1.437.847 2.519 0 .073 0 .17-.008.299h-4.934c.041.727.243 1.276.614 1.655.372.388.832.582 1.381.582a1.77 1.77 0 001.058-.323c.291-.218.517-.558.686-1.026zM108.918 104h3.698c-.048-.557-.193-.969-.42-1.243a1.745 1.745 0 00-1.397-.646 1.79 1.79 0 00-1.3.517c-.347.339-.541.799-.581 1.372zm6.258-2.656h1.123v2.737h3.117v-2.737h1.122v6.573h-1.122v-2.915h-3.117v2.915h-1.123v-6.573zm7.05 0h1.122v5.014l3.109-5.014h1.211v6.573h-1.122v-4.983l-3.109 4.983h-1.211v-6.573zm12.347 0v6.573h-1.123v-2.56h-.646c-.395 0-.686.048-.88.145-.194.105-.476.428-.848.977l-.977 1.438h-1.389l1.211-1.777c.372-.533.735-.84 1.099-.912-.638-.089-1.115-.315-1.422-.687a1.962 1.962 0 01-.468-1.276c0-.573.202-1.033.614-1.388.404-.356.993-.533 1.76-.533h3.069zm-1.123.92h-1.591c-.67 0-1.106.105-1.3.315a1.037 1.037 0 00-.282.719c0 .395.137.678.428.864.282.186.783.274 1.51.274h1.235v-2.172zm6.372-.92h2.592c.638 0 1.106.056 1.421.161.307.105.573.299.799.573.218.283.331.622.331 1.01 0 .315-.064.589-.201.824-.13.226-.323.427-.59.581.315.105.573.299.783.581.202.283.307.614.307 1.002-.04.621-.266 1.09-.67 1.389-.412.298-1.001.452-1.785.452h-2.987v-6.573zm1.13 2.769h1.195c.477 0 .808-.024.985-.08a.981.981 0 00.477-.299.739.739 0 00.21-.541c0-.347-.121-.59-.364-.719-.25-.137-.67-.21-1.267-.21h-1.236v1.849zm0 2.883h1.478c.63 0 1.066-.072 1.308-.218.234-.145.355-.395.372-.759a.89.89 0 00-.21-.581.877.877 0 00-.533-.339c-.218-.049-.574-.073-1.058-.073h-1.357v1.97zm9.23-5.652h1.744l1.745 5.257 1.929-5.257h1.616v6.573h-1.123v-5.289l-1.954 5.289h-1.009l-1.85-5.548v5.548h-1.098v-6.573zm13.284 4.457l1.154.137c-.177.671-.516 1.196-1.009 1.567-.501.371-1.13.557-1.898.557-.969 0-1.736-.299-2.301-.888-.573-.59-.856-1.421-.856-2.487 0-1.107.291-1.963.864-2.576.573-.606 1.316-.913 2.229-.913.888 0 1.607.299 2.172.897.557.597.84 1.437.84 2.519 0 .073 0 .17-.008.299h-4.934c.04.727.242 1.276.614 1.655.371.388.831.582 1.388.582.404 0 .76-.113 1.05-.323.291-.218.525-.558.695-1.026zM159.775 104h3.699c-.049-.557-.186-.969-.42-1.243a1.742 1.742 0 00-1.389-.646c-.517 0-.953.169-1.3.517-.355.339-.549.799-.59 1.372zm6.864-2.656h4.611v5.652h.719v2.778h-.921v-1.857h-5.216v1.857h-.921v-2.778h.59c.791-1.066 1.171-2.947 1.138-5.652zm.937.92c-.089 2.132-.42 3.715-1.001 4.732h3.561v-4.732h-2.56zm5.628-.92h1.123v5.014l3.109-5.014h1.211v6.573h-1.122v-4.983l-3.109 4.983h-1.212v-6.573zm7.147 0h1.13v5.652h3.101v-5.652h1.123v5.652h.727v2.778h-.929v-1.857h-5.152v-6.573zm7.3 0h1.122v5.014l3.109-5.014h1.212v6.573h-1.123v-4.983l-3.109 4.983h-1.211v-6.573zm7.138 0h1.123v2.737h3.117v-2.737h1.114v6.573h-1.114v-2.915h-3.117v2.915h-1.123v-6.573zm11.58 4.457l1.155.137c-.178.671-.517 1.196-1.01 1.567-.5.371-1.13.557-1.897.557-.969 0-1.736-.299-2.302-.888-.573-.59-.856-1.421-.856-2.487 0-1.107.291-1.963.864-2.576.574-.606 1.317-.913 2.229-.913.888 0 1.607.299 2.172.897.558.597.84 1.437.84 2.519 0 .073 0 .17-.008.299h-4.934c.041.727.242 1.276.614 1.655.371.388.832.582 1.389.582.404 0 .759-.113 1.05-.323.29-.218.525-.558.694-1.026zM202.687 104h3.69c-.048-.557-.186-.969-.42-1.243a1.73 1.73 0 00-1.389-.646c-.516 0-.953.169-1.3.517-.355.339-.549.799-.581 1.372zm13.348-40.788a3.97 3.97 0 012.802 1.155v.008A3.922 3.922 0 01220 67.17a3.94 3.94 0 01-1.163 2.802 3.956 3.956 0 01-2.802 1.163 3.923 3.923 0 01-2.794-1.163h-.008a3.967 3.967 0 01-1.155-2.802c0-1.09.444-2.083 1.155-2.802a3.983 3.983 0 012.802-1.155zm2.043 1.914v.008a2.873 2.873 0 00-2.043-.848 2.881 2.881 0 00-2.883 2.883c0 .8.323 1.518.84 2.043a2.875 2.875 0 002.043.848c.8 0 1.518-.323 2.043-.848a2.86 2.86 0 00.848-2.043c0-.8-.323-1.518-.848-2.043z" fill="#2B2A29"/><path d="M214.501 68.897v-3.674h1.744c.339 0 .598.032.783.105.097.04.194.097.275.162.081.072.153.153.21.25.056.097.105.202.129.307.032.105.048.21.048.323 0 .153-.024.29-.072.412l-.008.008a1.148 1.148 0 01-.218.347 1.151 1.151 0 01-.372.25l-.032.016a2.938 2.938 0 01.347.436l.606.945.202.315h-1.066l-.057-.097-.46-.718c-.057-.09-.121-.178-.178-.267a2.946 2.946 0 00-.145-.194c-.04-.048-.073-.097-.105-.12a.403.403 0 00-.073-.065h-.008a.21.21 0 00-.072-.04c-.025-.017-.041-.025-.065-.025-.016-.008-.04-.008-.073-.008l-.137-.008h-.331v1.542h-.872v-.202zm.412-3.27v3.06h.048v-3.06h-.048zm1.962.08a1.699 1.699 0 00-.194-.048.735.735 0 01.468.404.792.792 0 01.033.533.698.698 0 01-.089.194l-.008.008a.776.776 0 01-.154.17l-.056.04a.754.754 0 00.218-.154.518.518 0 00.137-.218.698.698 0 00.049-.266.63.63 0 00-.033-.218.702.702 0 00-.08-.194.62.62 0 00-.283-.25h-.008zm-.856 1.47l.105-.016h-.178l.049.008h.008l.016.008zm.622.46c-.016-.016-.041-.032-.065-.048.04.049.089.121.137.194.049.065.113.162.186.275v.008l.404.621h.089l-.404-.63c-.049-.08-.113-.161-.17-.234a1.92 1.92 0 00-.177-.185zm-1.268-.888h.783c.097 0 .178 0 .251-.008.072-.016.129-.024.169-.04a.436.436 0 00.105-.057.283.283 0 00.065-.072c.016-.033.032-.065.04-.097.016-.032.016-.065.016-.105a.38.38 0 00-.024-.138.352.352 0 00-.081-.112c-.081-.073-.226-.106-.428-.106h-.896v.735z" fill="#2B2A29"/><path fill-rule="evenodd" clip-rule="evenodd" d="M200.83 118.802c-.017-.065-.041-.129-.057-.194a4.616 4.616 0 01-.194-1.365v-1.55h7.05v1.55c0 .461-.065.929-.194 1.373-.016.065-.04.129-.056.186h.759v9.779h-4.224v-1.139l-.718 1.139h-3.44v-9.779h1.074zM4.667 122.888v5.693H.444v-9.779h7.349v4.086H4.667zm13.22 5.83v2.334h-4.232v-12.25h3.505a4.19 4.19 0 011.227-.186c1.26 0 2.334.533 3.069 1.567.694.977.928 2.156.928 3.335 0 1.316-.306 2.6-1.146 3.634-.816 1.009-1.93 1.566-3.23 1.566h-.121zm12.21-2.043l-3.005-7.873h4.539l.742 2.019.743-2.019h4.53l-4.812 12.25h-4.62l1.882-4.377zm16.933 1.906h-4.232v-9.779h8.383v9.779H47.03zm15.036 0h-4.232v-9.779h8.39v9.779h-4.158zm15.254 0c-.04.016-.073.024-.113.04-.388.113-.816.146-1.22.146-.476 0-.944-.089-1.388-.275a3.619 3.619 0 01-1.155-.783 3.594 3.594 0 01-.76-1.187 3.755 3.755 0 01-.274-1.43c0-.694.154-1.372.509-1.978a.156.156 0 00.032-.049v-3.754l1.123-.315c.339-.097.694-.17 1.041-.235.469-.08.945-.129 1.43-.129.5 0 1.017.033 1.502.146a3.77 3.77 0 011.437.662 3.27 3.27 0 011.05 1.356c.218.525.298 1.099.298 1.664v6.121H77.32zm22.013-.703v.703H95.1v-9.779h4.232v.468c.581-.339 1.251-.468 1.93-.468h1.857v4.086h-1.502a4.517 4.517 0 01-.299.67l3.852 5.023h-5.313l-.525-.703zm18.613-4.183c0 1.317-.315 2.625-1.203 3.634-.872.977-2.035 1.438-3.327 1.438-1.333 0-2.52-.477-3.384-1.494-.848-1.01-1.162-2.278-1.162-3.578 0-1.324.323-2.616 1.219-3.625.864-.977 2.019-1.454 3.327-1.454 1.3 0 2.463.468 3.327 1.454.888 1.009 1.203 2.309 1.203 3.625zm11.265 3.053h-.929v1.833h-4.159v-9.779h3.893l.751 1.591.726-1.591h3.949v9.779h-4.231v-1.833zm15.1 1.833h-4.231v-9.779h8.39v9.779h-4.159zm15.254 0c-.04.016-.072.024-.113.04-.387.113-.815.146-1.219.146-.476 0-.945-.089-1.389-.275a3.618 3.618 0 01-1.155-.783 3.602 3.602 0 01-.759-1.187 3.77 3.77 0 01-.274-1.43c0-.694.153-1.372.517-1.978l.024-.049v-3.754l1.122-.315c.339-.097.695-.17 1.042-.235.468-.08.945-.129 1.429-.129.501 0 1.018.033 1.502.146a3.77 3.77 0 011.438.662c.476.355.823.815 1.049 1.356.218.525.299 1.099.299 1.664v6.121h-3.513zm14.35 0h-4.231v-9.779h8.39v9.779h-4.159zm14.955-1.139l-.71 1.139h-3.44v-9.779h4.223v1.082l.686-1.082h3.473v9.779h-4.232v-1.139zm-170.846-4.651c-.049.008-.089.024-.137.04v1.769c.016 0 .04-.008.048-.008l.016-.016c.145-.194.17-.711.17-.937 0-.21-.016-.59-.097-.848zm95.489-.081c-.024-.008-.073-.008-.097-.008-.032 0-.081 0-.121.008-.13.178-.162.775-.162.985 0 .235.033.776.178.977v.009a.501.501 0 00.105.008c.016 0 .064 0 .089-.008.008 0 .008-.009.008-.009.137-.185.161-.759.161-.977 0-.21-.024-.807-.161-.985z" fill="#FEFEFE" stroke="#FEFEFE" stroke-width=".26" stroke-miterlimit="22.926"/><path d="M6.242 121.337H3.117v5.693H1.994v-6.678h4.248v.985zm14.592 2.181c0 1.114-.267 2.002-.8 2.656-.532.662-1.21.994-2.026.994-.331 0-.63-.041-.88-.114a3.193 3.193 0 01-.792-.355v2.802h-1.13v-9.149h1.13v.703a4.1 4.1 0 01.937-.63 2.48 2.48 0 011.114-.259c.775 0 1.373.307 1.8.913.437.606.647 1.421.647 2.439zm-1.163.121c0-.759-.121-1.349-.363-1.769-.25-.428-.646-.638-1.195-.638-.315 0-.63.073-.93.218a3.736 3.736 0 00-.847.549v3.78c.299.145.55.242.76.298.209.049.451.073.726.073.581 0 1.041-.21 1.364-.638.323-.428.485-1.05.485-1.873zm15.698-3.287l-3.593 9.149h-1.203l1.195-2.794-2.423-6.355h1.203l1.833 4.958 1.817-4.958h1.171zm14.26 6.678h-1.121v-5.693h-3.029v5.693h-1.13v-6.678h5.28v6.678zm15.045 0h-1.13v-5.693h-3.029v5.693h-1.13v-6.678h5.289v6.678zm13.477-1.647v-1.841c-.266.024-.605.056-1.009.097-.412.04-.735.097-.985.177-.299.089-.55.226-.743.42-.194.186-.29.444-.29.784 0 .379.104.67.322.864.218.193.525.29.937.29.355 0 .678-.072.96-.226.292-.153.558-.339.808-.565zm0 .937c-.088.064-.218.161-.371.282a2.953 2.953 0 01-1.017.533c-.186.057-.445.081-.776.081a2.03 2.03 0 01-1.437-.589 2.07 2.07 0 01-.428-.679 2.208 2.208 0 01-.162-.856c0-.46.097-.856.291-1.179.194-.331.5-.589.929-.775.371-.178.815-.291 1.324-.355a29.021 29.021 0 011.647-.154v-.218c0-.266-.04-.476-.12-.638a.851.851 0 00-.332-.379 1.302 1.302 0 00-.525-.186 4.307 4.307 0 00-.646-.048c-.258 0-.557.04-.912.121a5.971 5.971 0 00-1.05.347h-.065v-1.139c.202-.064.501-.129.889-.202a6.326 6.326 0 011.154-.104c.46 0 .84.032 1.163.104.315.073.598.202.848.388.242.186.42.428.541.719.121.291.186.646.186 1.066v4.57h-1.13v-.71zm23.879.71h-1.397l-2.302-3.076h-.557v3.076h-1.122v-6.678h1.122v2.907c.29-.008.541-.064.751-.186.202-.113.372-.347.517-.686.04-.097.089-.21.145-.347.049-.129.09-.242.121-.347.17-.485.42-.832.727-1.034.315-.21.727-.307 1.228-.307h.306v.985h-.258c-.315 0-.549.057-.711.186-.153.129-.29.355-.395.703-.113.347-.242.613-.396.807a1.604 1.604 0 01-.5.444l2.721 3.553zm14.357-3.335c0 1.123-.266 1.995-.815 2.609-.541.605-1.26.912-2.164.912-.929 0-1.656-.315-2.189-.945-.533-.63-.799-1.494-.799-2.576 0-1.114.274-1.978.823-2.6.55-.614 1.268-.929 2.165-.929.904 0 1.623.315 2.164.929.549.614.815 1.478.815 2.6zm-1.162 0c0-.856-.162-1.502-.469-1.922-.315-.411-.767-.621-1.348-.621-.582 0-1.034.21-1.349.621-.315.42-.476 1.066-.476 1.922 0 .832.161 1.462.476 1.898.315.428.767.646 1.349.646.581 0 1.025-.21 1.34-.638.315-.42.477-1.058.477-1.906zm16.659 3.335h-1.123v-5.249l-1.607 3.416h-.84l-1.59-3.416v5.249h-1.05v-6.678h1.356l1.761 3.715 1.696-3.715h1.397v6.678zm15.028 0h-1.123v-5.693h-3.028v5.693h-1.131v-6.678h5.282v6.678zm13.485-1.647v-1.841c-.266.024-.606.056-1.009.097-.412.04-.743.097-.985.177-.299.089-.55.226-.743.42-.194.186-.291.444-.291.784 0 .379.105.67.323.864.21.193.525.29.937.29.355 0 .678-.072.961-.226.282-.153.557-.339.807-.565zm0 .937c-.097.064-.218.161-.371.282a2.634 2.634 0 01-.445.291 3.046 3.046 0 01-.573.242c-.186.057-.444.081-.783.081a1.988 1.988 0 01-1.429-.589 2.064 2.064 0 01-.428-.679 2.209 2.209 0 01-.162-.856c0-.46.097-.856.291-1.179.194-.331.5-.589.92-.775.38-.178.824-.291 1.333-.355a28.983 28.983 0 011.647-.154v-.218c0-.266-.04-.476-.121-.638a.907.907 0 00-.331-.379 1.295 1.295 0 00-.533-.186 4.126 4.126 0 00-.638-.048c-.258 0-.565.04-.913.121a6.042 6.042 0 00-1.057.347h-.065v-1.139c.21-.064.509-.129.896-.202a6.25 6.25 0 011.147-.104c.46 0 .848.032 1.163.104.315.073.597.202.856.388.242.186.42.428.541.719.121.291.178.646.178 1.066v4.57h-1.123v-.71zm16.118.71h-1.13v-2.988h-3.029v2.988h-1.122v-6.678h1.122v2.713h3.029v-2.713h1.13v6.678zm15.036 0h-1.13v-4.982l-3.126 4.982h-1.033v-6.678h1.13v4.91l3.085-4.91h1.074v6.678zm15.036 0h-1.13v-4.982l-3.126 4.982h-1.033v-6.678h1.13v4.91l3.093-4.91h1.066v6.678zm-.517-9.787c0 .339-.04.654-.129.929a1.964 1.964 0 01-.355.71 1.719 1.719 0 01-.614.477c-.226.105-.517.161-.872.161-.331 0-.614-.056-.856-.169a1.575 1.575 0 01-.622-.469 1.836 1.836 0 01-.371-.718 3.246 3.246 0 01-.13-.921h.969c0 .533.081.913.251 1.147.169.242.42.355.759.355.315 0 .565-.113.735-.347.177-.226.266-.614.266-1.155h.969z" fill="#0082C9" stroke="#0082C9" stroke-width=".26" stroke-miterlimit="22.926"/></svg>