<svg width="320" height="80" fill="none" xmlns="http://www.w3.org/2000/svg"><g filter="url(#filter0_b_278_12507)"><rect width="320" height="80" rx="12" fill="#fff" fill-opacity=".03"/><path d="M119.007 42.625c-.245-3.056-1.834-4.85-5.054-4.85-2.975 0-4.807 1.876-5.133 4.85h10.187zm4.809 1.14c0 .98-.082 1.998-.245 2.813h-14.67c.528 2.446 2.607 3.953 6.519 3.953l.052-.001.042-.002a16.439 16.439 0 001.113-.048c.102-.01.203-.02.303-.026a14.197 14.197 0 004.597-1.269c.111-.053.226-.105.334-.16h.002c.287-.145.567-.305.844-.468h.124v4.124a14.16 14.16 0 01-7.357 2.048v-.01c-.099.001-.195.01-.295.01-7.378 0-11.412-4.197-11.412-10.31 0-6.561 4.157-10.88 10.188-10.88 6.031 0 9.862 4.278 9.862 10.227M73 54.322h5.013l.936-17.563.204-4.768h.082l1.06 4.768 4.075 17.563h6.276l4.115-17.563 1.019-4.768h.081l.204 4.768.98 17.563h5.214l-1.711-28.117h-8.313l-3.75 16.87-.814 4.28h-.081l-.857-4.28-3.748-16.87H74.67L73 54.32zm86.271.408c-4.686 0-7.336-2.16-7.336-7.05v-9.617h-5.624V48.29c0 1.507.572 2.12 1.794 2.12.285 0 .61 0 .977-.082h.123v3.993c-.49.122-1.467.245-2.2.245-2.771 0-4.484-1.06-5.217-3.383-1.467 2.283-3.789 3.546-6.682 3.546-5.176 0-9.373-4.034-9.373-10.636 0-6.52 4.197-10.554 9.373-10.554 2.565 0 4.687.977 6.152 2.77V26.204h5.053v7.743h5.624v-4.85h5.053v4.85h5.421v4.115h-5.421v9.373c0 2.036 1.018 3.016 2.977 3.016.896 0 1.506-.082 2.322-.286h.122v4.156c-.979.245-2.16.408-3.138.408m-23.106-4.278c3.424 0 5.338-2.649 5.338-6.358 0-3.668-1.914-6.316-5.338-6.316-3.464 0-5.258 2.648-5.258 6.316 0 3.71 1.794 6.358 5.258 6.358zm33.538-6.807c0-3.3 1.712-5.135 4.972-5.135.57 0 1.182.081 1.751.246h.082v-4.729c-.529-.202-1.223-.324-1.998-.324-2.444 0-4.074 1.508-5.011 3.952v-3.707h-4.849V54.32h5.053V43.644zm17.606 11.085c-6.398 0-10.72-4.645-10.72-10.595 0-5.95 4.322-10.595 10.72-10.595 6.355 0 10.677 4.646 10.677 10.595 0 5.95-4.322 10.595-10.677 10.595zm0-4.36c3.626 0 5.501-2.648 5.501-6.235s-1.875-6.235-5.501-6.235c-3.546 0-5.543 2.648-5.543 6.235s1.997 6.235 5.543 6.235zm18.431-7.416c0-3.138 1.589-5.176 4.523-5.176 2.893 0 4.239 1.915 4.239 5.176V54.32h5.052V42.75c0-4.89-2.526-9.21-8.026-9.21-2.934 0-4.891 1.467-5.992 3.668v-3.26h-4.85V54.32h5.054V42.953zm22.739-13.978a3.008 3.008 0 01-3.014 3.015c-1.63 0-2.977-1.385-2.977-3.015A2.993 2.993 0 01225.465 26c1.71 0 3.014 1.345 3.014 2.975zm2.813 25.346c-.775.163-1.671.286-2.487.286-3.87 0-5.95-2.038-5.95-5.786V33.947h5.095v14.506c0 1.345.651 1.998 2.038 1.998a6.97 6.97 0 001.182-.123h.122v3.993zm.488-10.187c0-5.95 4.319-10.595 10.758-10.595 1.834 0 3.913.449 5.462 1.304v4.482h-.122c-1.59-.937-3.179-1.385-4.973-1.385-3.872 0-5.949 2.648-5.949 6.194s2.077 6.194 5.949 6.194c1.794 0 3.383-.449 4.973-1.385H248v4.482c-1.549.857-3.628 1.304-5.462 1.304-6.439 0-10.758-4.645-10.758-10.595z" fill="#170F5F"/><rect x=".5" y=".5" width="319" height="79" rx="11.5" stroke="#fff"/></g><defs><filter id="filter0_b_278_12507" x="-25" y="-25" width="370" height="130" filterUnits="userSpaceOnUse" color-interpolation-filters="sRGB"><feFlood flood-opacity="0" result="BackgroundImageFix"/><feGaussianBlur in="BackgroundImageFix" stdDeviation="12.5"/><feComposite in2="SourceAlpha" operator="in" result="effect1_backgroundBlur_278_12507"/><feBlend in="SourceGraphic" in2="effect1_backgroundBlur_278_12507" result="shape"/></filter></defs></svg>