<svg width="686" height="401" fill="none" xmlns="http://www.w3.org/2000/svg"><path d="M25.052 358.548c3.238 2.087 11.978 16.905 12.556 23.184.793 6.375 9.828-6.955 9.828-13.331 0-6.375 6.545-16.628 15.795-18.657 9.25-2.028 6.334-8.602 9.803-19.614 3.468-11.013 7.116-16.88 12.898-20.648 4.625-3.014 18.825.293 25.28 1.549 1.927 1.449 10.07 4.969 12.383 12.388 2.89 9.274 17.208 8.911 23.856 12.388 6.649 3.478 14.838 13.937 16.902 4.646 2.173-9.784 14.607-18.096 22.701-17.034 11.755 2.029 41.488-3.985 43.338 4.13 2.312 10.142 10.234 18.102 13.414 20.131 3.18 2.028 18.284-14.979 18.574-3.097.289 11.881 14.282 35.263 20.352 36.132 6.07.869 8.909 2.608 12.667 0 3.758-2.608 15.701 14.236 23.217 18.583 7.515 4.346 27.651-12.751 31.987-16.518 4.336-3.768 30.378 14.598 30.956 6.194.578-8.404 1.691-18.223 6.707-20.573 10.174-4.766 29.632 17.82 37.147 12.314 7.516-5.506 14.172-8.114 26.313 0 12.14 8.114 29.799-10.865 30.955-16.081 1.157-5.217 22.555-2.121 26.313-5.598 3.757-3.478.289-21.797 0-32.52-.289-10.722 9.349-16.517 21.153-16.517 9.802 0 25.01 10.821 29.924 18.066 4.914 7.245 16.955-3.18 26.312 4.645 9.875 8.259 16.51-24.26 27.344-8.775 7.741 11.064-10.834 40.699 2.064 44.908 9.106 2.972 23.348-4.129 21.284-30.455-1.251-15.955.855-36.782-3.612-44.907-5.675-10.324-22.302-36.139-32.118-34.068-8.255 1.741-12.382 11.872-27.817 6.194-2.676-.985-2.312-21.625 0-26.841 2.313-5.217-2.356-21.089 0-28.39 6.664-20.647 28.06-25.957 35.04-37.165 9.287-14.912-15.842-42.338 0-43.022 20.121-.87-1.365-16.32 4.127-23.565 5.493-7.245 16.88 39.213 20.638 42.691 3.757 3.478 0 14.605 6.191 25.445 6.343 11.107 9.656 9.78 13.414 12.388 3.758 2.608 7.02 3.318 18.293 7.955 11.274 4.637 12.249 11.416 13.695 1.852 1.445-9.563-18.614-38.242-20.638-44.907-2.023-6.666-18.943-12.977-22.701-17.034-3.757-4.057-8.236-20.058-3.611-32.519 4.625-12.462 8.759-16.449 0-35.1-8.428-17.948 8.961-17.66 0-23.745-8.961-6.086-24.183 10.977-25.281 0-1.547-15.485 20.122-38.197 12.383-42.327-4.097-2.186-17.388 7.145-35.599 14.97-18.211 7.824-26.935 27.311-30.404 37.165-3.468 9.853-13.531 30.744-17.578 30.454-4.047-.29-7.384-8.205-15.478 1.938-8.093 10.143-14.277 16.645-20.637 16.645l-.29-.001c-6.497-.002-20.558-.008-26.538 10.84-6.07 11.013-10.264 49.693-29.924 25.809-7.223-8.775-8.497-12.561-20.637-1.548-12.141 11.012-35.579 26.763-42.822 18.066-5.16-6.194 11.226-14.181 12.382-23.744 1.156-9.564-12.69-13.846-17.026-17.034-4.336-3.188-22.679 8.304-25.28 14.969-2.602 6.665-20.637 3.613-26.554 14.453-6.881 12.607-22.679 14.579-37.421 29.938-14.743 15.36-8.54-25.809-18.574-15.485-9.206 9.472-8.251 18.084-15.478 27.358-7.226 9.273-24.68.924-28.376 0-14.446-3.614-19.605-14.345-26.828-14.345-6.664 0-24.494 5.66-29.408 2.472-4.914-3.187-15.152-6.788-32.682-2.472-22.912 5.639-12.061-13.961-7.045-16.626 14.57-7.743 12.383 7.742 20.637 6.194 8.645-1.622 9.803-51.102-11.35-44.391-19.273 6.113-33.451 45.26-40.389 44.391-6.937-.869-13.007 8.847-33.82 12.904-20.812 4.058-20.122 26.859-23.302 36.133-3.18 9.273-15.477 17.976-15.477 21.163 0 3.188 6.048 15.531 2.58 22.196-3.47 6.665 5.27 12.078 8.738 28.017 3.47 15.939-10.82 13.041-15.446 19.706-4.625 6.665-14.216 4.927-21.153 4.927-5.55 0-1.734 11.564 0 19.099s8.77 14.453 8.77 14.453c2.506 3.477 9.146 16.525 12.383 18.611z" stroke="#F3F7FA"/></svg>