<svg width="1440" height="440" fill="none" xmlns="http://www.w3.org/2000/svg"><path opacity=".3" d="M1450.67 389.717c36.26-12.047 65-52.024-110.08-115.56-218.86-79.419-201.24-22.66-340.638-133.799C860.551 29.22 842.605-72.438 692.944-119.692c-149.661-47.254-269.047-29.06-427.193-99.894-159.648-71.507-74.399-203.621-31.426-268.494 75.222-113.558-129.786-203.281-215.303-129.434M1470.48 396.863c35.06-13.943 60.07-55.35-120.41-109.43-225.59-67.601-202.82-11.916-352.059-115.38C848.768 68.59 821.553-31.867 667.927-71.056c-153.625-39.189-271.053-14.698-435.303-76.96-165.809-62.852-92.87-199.172-55.945-266.17C241.315-531.463 28.587-610.077-49.957-531.868M1491.17 402.976c33.7-15.772 54.86-58.406-130.13-102.768-231.24-55.453-203.42-1.114-361.777-96.398C840.905 108.526 804.554 9.76 647.713-21.173c-156.841-30.934-271.74-.265-441.293-53.65-171.163-53.892-110.89-193.755-80.192-262.55 53.735-120.425-165.677-187.549-236.865-105.358M1512.66 408.01c32.18-17.523 49.38-61.177-139.23-95.605-235.76-43.035-203.02 9.694-369.72-76.946-166.704-86.64-212.015-183.235-371.308-205.762C473.11 7.17 361.301 43.867 187.27-.383 11.587-45.05 58.9-187.773 83.221-258.032c42.573-122.986-182.453-178.291-245.938-92.519M1534.85 411.927c30.49-19.19 43.64-63.651-147.65-87.977-239.13-30.408-201.65 20.455-375.88-57.12C837.092 189.256 783.043 95.303 622.074 81.292c-160.968-14.01-269.143 28.536-446.803-6.361C-4.076 39.702 30.048-105.186 47.873-176.566c31.202-124.947-198.342-168.165-253.815-79.23M1557.62 414.691c28.66-20.763 37.71-65.815-155.35-79.92-241.33-17.632-199.28 31.116-380.19-37.015-180.913-68.131-243.437-158.984-405.297-164.41-161.859-5.427-265.873 42.762-446.298 17.387C-11.652 125.117 9.116-21.231 20.359-93.384c19.68-126.3-213.264-157.22-260.455-65.555M1580.88 416.274c26.69-22.235 31.59-67.657-162.3-71.473-242.35-4.77-195.94 41.625-382.65-16.73-186.714-58.356-257.409-145.666-419.371-142.482-161.963 3.185-261.309 56.781-443.618 41.052C-11.099 210.762-3.789 63.667.817-8.907 8.88-135.945-226.33-154.416-265.008-60.467m1869.518 477.12c24.58-23.598 25.31-69.17-168.45-62.678-242.2 8.115-191.65 51.931-383.25 3.636-191.606-48.295-270.127-131.638-431.404-119.858-161.276 11.779-255.47 70.522-438.776 64.515C-2.417 296.204-8.599 149.079-10.653 76.437-14.248-50.72-250.576-56.653-280.554 39.122M1628.4 415.812c22.37-24.846 18.92-70.346-173.78-53.578-240.86 20.96-186.42 61.985-381.98 23.985-195.566-38-281.53-116.969-441.335-96.651-159.804 20.317-248.387 83.92-431.797 87.665-185.152 3.779-204.796-142.659-213.5-215.015-15.235-126.656-251.531-120.02-272.662-22.887M1652.45 413.739c20.03-25.973 12.42-71.179-178.27-44.216-238.36 33.703-180.29 71.736-378.86 44.216-198.564-27.519-291.554-101.729-449.107-72.973-157.554 28.757-240.095 96.91-422.716 110.387C39.143 464.759 6.132 319.721-9.179 248.003c-26.8-125.538-261.913-106.367-274.095-8.348" stroke="#AFC4CF"/></svg>