<svg width="1128" height="440" fill="none" xmlns="http://www.w3.org/2000/svg"><path opacity=".3" d="M124.153 684.261c4.391-128.123 36.818-370.11 131.396-313.078 118.222 71.291 350.791-64.936 388.886-208.634C682.53 18.851 1051.43-98.114 1127.06 1.785M103.433 675.139c7.646-125.964 46.175-362.76 139.113-302.224C358.718 448.586 594.3 325.194 635.981 185.45 677.662 45.706 1048.81-52.413 1121.75 49.459M82.863 665.562c10.81-123.617 55.243-354.866 146.497-290.93 114.068 79.92 352.361-30.481 397.495-166.064C671.989 72.985 1044.98-6.188 1115.22 97.493M62.456 655.544c13.875-121.086 64.007-346.449 153.536-279.218 111.912 84.039 352.612-13.232 401.06-144.456 48.447-131.225 422.878-191.374 490.438-86.045M42.223 645.098c16.837-118.379 72.453-337.532 160.219-267.111 109.708 88.027 352.509 4.01 404.127-122.669 51.617-126.679 427.071-167.744 491.951-60.927M22.173 634.242c19.694-115.506 80.572-328.139 166.539-254.633 107.459 91.883 352.051 21.226 406.691-100.73 54.64-121.956 430.707-143.9 492.927-35.749M2.317 622.99c22.44-112.471 88.351-318.293 172.486-241.807 105.168 95.609 351.239 38.4 408.749-78.666 57.51-117.066 433.778-119.872 493.358-10.54M-17.336 611.36c25.07-109.287 95.78-308.021 178.052-228.659 102.839 99.202 350.076 55.514 410.299-56.505 60.223-112.02 436.275-95.692 493.245 14.673M-36.778 599.37c27.585-105.961 102.85-297.349 183.23-215.216 100.475 102.666 348.562 72.554 411.339-34.273C620.569 243.053 996 278.49 1050.37 389.743M-56 587.036c29.978-102.5 109.55-286.3 188.013-201.5 98.079 106 346.699 89.5 411.869-12 65.169-101.5 439.565-47 491.378 65" stroke="#fff"/></svg>