<svg width="175" height="29" fill="none" xmlns="http://www.w3.org/2000/svg"><path d="M45.854 16.57c-.244-3.046-1.828-4.833-5.037-4.833-2.965 0-4.79 1.868-5.116 4.833h10.153zm4.793 1.137c0 .976-.081 1.99-.244 2.802H35.782c.527 2.438 2.599 3.941 6.497 3.941l.053-.002.041-.002a16.362 16.362 0 001.11-.047c.101-.01.201-.02.301-.026 1.623-.165 3.166-.6 4.582-1.264.111-.054.226-.106.333-.161h.002c.286-.144.565-.304.84-.466h.125v4.111a14.11 14.11 0 01-7.333 2.04v-.01c-.098.002-.194.01-.294.01-7.353 0-11.374-4.182-11.374-10.275 0-6.54 4.143-10.845 10.154-10.845 6.01 0 9.83 4.265 9.83 10.195M0 28.228h4.996l.934-17.506.203-4.752h.081l1.058 4.752 4.06 17.505h6.256l4.101-17.505 1.015-4.752h.081l.204 4.752.976 17.505h5.197L27.456.203h-8.284l-3.738 16.815-.811 4.264h-.082l-.854-4.264L9.952.203H1.665L0 28.227zm85.985.405c-4.67 0-7.312-2.153-7.312-7.025v-9.586h-5.605v10.194c0 1.502.57 2.113 1.788 2.113.284 0 .608 0 .974-.082h.122v3.98c-.488.122-1.462.244-2.192.244-2.762 0-4.47-1.055-5.2-3.371-1.462 2.275-3.776 3.534-6.66 3.534-5.159 0-9.342-4.02-9.342-10.6 0-6.5 4.183-10.52 9.342-10.52 2.557 0 4.671.974 6.131 2.761V.203h5.037V7.92h5.605V3.087h5.037V7.92h5.403v4.102H83.71v9.342c0 2.03 1.015 3.006 2.967 3.006.892 0 1.5-.082 2.314-.285h.122v4.142c-.976.244-2.153.407-3.127.407m-23.03-4.264c3.412 0 5.32-2.64 5.32-6.337 0-3.656-1.908-6.295-5.32-6.295-3.453 0-5.24 2.639-5.24 6.295 0 3.697 1.787 6.337 5.24 6.337zm33.427-6.784c0-3.29 1.706-5.118 4.955-5.118.568 0 1.178.08 1.745.245h.082V8c-.527-.202-1.219-.323-1.991-.323-2.436 0-4.061 1.502-4.995 3.939V7.92h-4.833v20.306h5.037V17.587zm17.547 11.048c-6.377 0-10.684-4.63-10.684-10.56 0-5.93 4.307-10.56 10.684-10.56 6.335 0 10.641 4.63 10.641 10.56 0 5.93-4.306 10.56-10.641 10.56zm0-4.346c3.614 0 5.482-2.64 5.482-6.214 0-3.575-1.868-6.214-5.482-6.214-3.534 0-5.525 2.64-5.525 6.214 0 3.575 1.991 6.214 5.525 6.214zm18.37-7.392c0-3.127 1.584-5.158 4.508-5.158 2.884 0 4.225 1.909 4.225 5.158v11.331h5.036V16.693c0-4.874-2.518-9.18-8-9.18-2.925 0-4.875 1.463-5.973 3.657V7.92h-4.833v20.307h5.037v-11.33zm22.663-13.931a2.997 2.997 0 01-3.003 3.005c-1.625 0-2.967-1.38-2.967-3.005A2.983 2.983 0 01151.96 0c1.704 0 3.003 1.34 3.003 2.965zm2.804 25.262c-.772.163-1.665.285-2.478.285-3.858 0-5.93-2.032-5.93-5.767V7.92h5.077v14.46c0 1.34.649 1.99 2.032 1.99.323 0 .73-.041 1.177-.122h.122v3.98zm.487-10.153c0-5.93 4.305-10.56 10.722-10.56 1.828 0 3.901.447 5.444 1.3v4.467h-.122c-1.584-.934-3.168-1.38-4.956-1.38-3.859 0-5.93 2.639-5.93 6.173 0 3.534 2.071 6.174 5.93 6.174 1.788 0 3.372-.448 4.956-1.381h.122v4.467c-1.543.855-3.616 1.3-5.444 1.3-6.417 0-10.722-4.63-10.722-10.56z" fill="#170F5F"/></svg>