<svg width="1103" height="702" fill="none" xmlns="http://www.w3.org/2000/svg"><g opacity=".2"><path d="M1137.48 26.295c-27.79 70.019-102.6 194.386-179.5 131.712-96.125-78.344-107.058-86.24-135.35-17.638-28.293 68.602-108.624 174.227-143.291 80.719-34.666-93.508-44.436-240.44-121.361-194.921-76.925 45.519-114.657 177.262-191.939 131.708-77.281-45.553-129.644-245.923-225.427-172.48" stroke="url(#paint0_linear_211_9320)"/><path d="M1139.06 51.247c-30.18 68.091-109.23 188.148-183.922 123.646-93.369-80.627-104.023-88.796-134.661-22.12-30.638 66.676-114.558 168.054-145.983 74.614-31.425-93.44-36.129-238.704-114.574-196.493-78.446 42.212-120.693 170.837-196.358 123.209-75.666-47.627-121.096-247.086-219.35-177.99" stroke="url(#paint1_linear_211_9320)"/><path d="M1140.42 76.461c-32.48 66.083-115.55 181.687-188.006 115.434-90.57-82.816-100.939-91.249-133.823-26.577C785.708 229.99 698.397 327 670.167 233.739c-28.23-93.26-27.996-236.685-107.825-197.83-79.829 38.855-126.419 164.209-200.418 114.564-73.999-49.646-112.623-247.957-213.161-183.29" stroke="url(#paint2_linear_211_9320)"/><path d="M1141.55 101.935c-34.67 64-121.55 175.017-191.736 107.09-87.732-84.908-97.812-93.595-132.838-31.002-35.027 62.593-125.525 155.124-150.611 62.15-25.087-92.974-20.048-234.393-101.123-198.94-81.074 35.454-131.829 157.393-204.113 105.787-72.284-51.606-104.238-248.54-206.872-188.375" stroke="url(#paint3_linear_211_9320)"/><path d="M1142.44 127.676c-36.75 61.844-127.23 168.151-195.117 98.628-84.857-86.905-94.642-95.837-131.707-35.392s-130.545 148.394-152.541 55.811c-21.996-92.583-12.293-231.838-94.473-199.825-82.179 32.013-136.919 150.401-207.441 96.893-70.521-53.508-95.949-248.844-200.485-193.248" stroke="url(#paint4_linear_211_9320)"/><path d="M1143.08 153.627c-38.73 59.623-132.58 161.107-198.141 90.063-81.951-88.805-91.436-97.971-130.431-39.74-38.996 58.232-135.249 141.505-154.213 49.414-18.964-92.09-4.741-229.031-87.884-200.492-83.143 28.54-141.682 143.25-210.397 87.899-68.715-55.35-87.765-248.876-194.011-197.908" stroke="url(#paint5_linear_211_9320)"/><path d="M1143.48 179.819c-40.6 57.339-137.6 153.896-200.807 81.408-79.015-90.61-88.196-100-129.014-44.042-40.817 55.957-139.63 134.471-155.623 42.969-15.993-91.501 2.601-225.984-81.364-200.945-83.964 25.038-146.113 135.951-212.978 78.818C296.829 80.894 284-110.617 176.24-64.327" stroke="url(#paint6_linear_211_9320)"/><path d="M1143.61 206.215c-42.35 55-142.26 146.536-203.107 72.68-76.052-92.319-84.924-101.924-127.453-48.295-42.529 53.63-143.687 127.307-156.773 36.489-13.086-90.818 9.725-222.707-74.918-201.192-84.643 21.515-150.207 128.522-215.182 69.668-64.974-58.855-71.746-248.157-180.824-206.587" stroke="url(#paint7_linear_211_9320)"/><path d="M1143.47 232.811c-43.99 52.608-146.594 139.038-205.047 63.892-73.067-93.933-81.627-103.743-125.754-52.493-44.127 51.251-147.414 120.026-157.659 29.981-10.246-90.045 16.624-219.211-68.554-201.235s-153.962 120.974-217.007 60.46C306.404 72.902 305.52-114.004 195.323-77.19" stroke="url(#paint8_linear_211_9320)"/><path d="M1143.05 259.597c-45.52 50.17-150.57 131.421-206.619 55.059-70.06-95.452-78.305-105.456-123.916-56.63-45.612 48.827-150.809 112.642-158.284 23.457-7.475-89.186 23.294-215.51-62.276-201.084-85.57 14.427-157.374 113.324-218.453 51.213-61.078-62.111-56.248-246.444-167.366-214.411" stroke="url(#paint9_linear_211_9320)"/><path d="M1142.37 286.541c-46.93 47.692-154.202 123.7-207.831 46.197-67.037-96.877-74.963-107.066-121.943-60.704-46.981 46.363-153.869 105.17-158.645 16.927-4.776-88.244 29.725-211.613-56.092-200.74-85.818 10.871-160.44 105.584-219.518 41.938-59.077-63.645-48.713-245.237-160.553-218.004" stroke="url(#paint10_linear_211_9320)"/><path d="M1141.39 313.655c-48.22 45.177-157.465 115.887-208.664 37.32-63.999-98.209-71.602-108.573-119.837-64.71-48.234 43.864-156.591 97.625-158.743 10.402-2.151-87.224 35.915-207.534-50.007-200.215-85.921 7.319-163.159 97.774-220.202 32.656-57.043-65.117-41.33-243.808-153.692-221.385" stroke="url(#paint11_linear_211_9320)"/><path d="M1140.14 340.909c-49.4 42.629-160.385 108-209.144 28.441-60.949-99.447-68.228-109.976-117.599-68.642-49.37 41.334-158.976 90.02-158.58 3.891.397-86.13 41.857-203.283-44.025-199.511-85.883 3.772-165.529 89.903-220.507 23.378-54.979-66.524-34.104-242.167-146.789-224.555" stroke="url(#paint12_linear_211_9320)"/><path d="M1138.59 368.297c-50.46 40.058-162.941 100.054-209.253 19.578-57.89-100.594-64.843-111.278-115.233-72.498-50.39 38.781-161.022 82.371-158.156-2.594 2.867-84.965 47.548-198.875-38.153-198.637-85.701.238-167.549 81.989-220.434 14.121-52.884-67.868-27.04-240.321-139.85-227.516" stroke="url(#paint13_linear_211_9320)"/><path d="M1136.75 395.797c-51.39 37.464-165.138 92.063-208.998 10.743-54.825-101.65-61.449-112.478-112.74-76.272-51.292 36.206-162.73 74.69-157.474-9.044 5.256-83.735 52.983-194.32-32.394-197.599-85.377-3.279-169.22 74.046-219.983 4.899-50.763-69.147-20.147-238.281-132.884-230.269" stroke="url(#paint14_linear_211_9320)"/><path d="M1134.62 423.4c-52.21 34.856-166.983 84.044-208.387 1.952-51.756-102.615-58.05-113.579-110.126-79.961-52.075 33.618-164.098 66.993-156.534-15.448 7.564-82.442 58.161-189.632-26.752-196.404-84.913-6.771-170.543 66.09-219.159-4.271-48.616-70.361-13.426-236.057-125.894-232.815" stroke="url(#paint15_linear_211_9320)"/><path d="M1132.18 451.098c-52.91 32.236-168.463 76.011-207.411-6.782-48.686-103.49-54.648-114.58-107.39-83.56-52.741 31.019-165.129 59.294-155.34-21.797 9.789-81.091 63.078-184.822-21.232-195.057-84.31-10.236-171.517 58.132-217.963-13.378-46.447-71.51-6.883-233.657-118.887-235.156" stroke="url(#paint16_linear_211_9320)"/><path d="M1129.45 478.875c-53.49 29.612-169.595 67.979-206.088-15.444-45.617-104.278-51.247-115.483-104.537-87.066-53.29 28.417-165.824 51.608-153.895-28.08 11.93-79.687 67.732-179.903-15.836-193.568-83.568-13.665-172.145 50.191-216.401-22.404-44.255-72.594-.521-231.09-111.868-237.294" stroke="url(#paint17_linear_211_9320)"/><path d="M1126.43 506.716c-53.95 26.987-170.368 59.964-204.409-24.019-42.552-104.979-47.847-116.29-101.57-90.476-53.722 25.814-166.185 43.947-152.2-34.287 13.984-78.234 72.122-174.888-10.569-191.943-82.69-17.054-172.429 42.279-214.475-31.335-42.045-73.613 5.654-228.368-104.843-239.23" stroke="url(#paint18_linear_211_9320)"/><path d="M1123.09 534.607c-54.3 24.366-170.791 51.979-202.385-32.496-39.493-105.593-44.453-117.001-98.492-93.784-54.038 23.218-166.215 36.327-150.261-40.409 15.954-76.736 76.246-169.789-5.432-190.188-81.679-20.399-172.373 34.409-212.19-40.158-39.817-74.567 11.641-225.5-97.819-240.968" stroke="url(#paint19_linear_211_9320)"/><path d="M1119.47 562.531c-54.53 21.756-170.868 44.041-200.022-40.857-36.441-106.124-41.067-117.619-95.306-96.988-54.24 20.63-165.917 28.759-148.081-46.437 17.836-75.196 80.105-164.618-.429-188.311-80.534-23.693-171.979 26.598-209.552-48.857-37.573-75.455 17.438-222.495-90.798-242.509" stroke="url(#paint20_linear_211_9320)"/><path d="M1115.55 590.485c-54.64 19.159-170.602 36.163-197.322-49.092-33.401-106.57-37.692-118.143-92.018-100.084-54.326 18.058-165.296 21.259-145.664-52.361 19.632-73.62 83.698-159.387 4.439-186.319-79.26-26.931-171.252 18.859-206.567-57.42-35.315-76.278 23.041-219.363-83.788-243.856" stroke="url(#paint21_linear_211_9320)"/><path d="M1111.34 618.454c-54.64 16.582-169.999 28.36-194.297-57.188-30.373-106.934-34.329-118.576-88.629-103.069-54.3 15.507-164.355 13.84-143.014-58.171 21.34-72.011 87.026-154.109 9.168-184.218-77.858-30.109-170.196 11.204-203.241-65.833-33.045-77.036 28.45-216.114-76.792-245.01" stroke="url(#paint22_linear_211_9320)"/><path d="M1106.83 646.402c-54.53 14.03-169.052 20.645-190.939-65.129-27.359-107.219-30.98-118.92-85.143-105.94-54.164 12.98-163.099 6.514-140.138-63.86 22.961-70.374 90.091-148.796 13.759-182.017-76.332-33.221-168.816 3.648-199.581-74.081-30.764-77.73 33.663-212.758-69.815-245.977" stroke="url(#paint23_linear_211_9320)"/><path d="M1102.04 674.354c-54.3 11.506-167.783 13.033-187.272-72.905-24.361-107.423-27.648-119.174-81.565-108.693-53.917 10.482-161.534-.705-137.039-69.418 24.494-68.712 92.893-143.459 18.209-179.722-74.683-36.262-167.118-3.795-195.593-82.153-28.476-78.358 38.678-209.304-62.864-246.756" stroke="url(#paint24_linear_211_9320)"/><path d="M1096.96 702.269c-53.97 9.016-166.185 5.537-183.29-80.503-21.381-107.55-24.336-119.343-77.898-111.325-53.563 8.018-159.666-7.806-133.725-74.836 25.942-67.03 95.436-138.111 22.519-177.341-72.916-39.229-165.108-11.114-191.288-90.036-26.179-78.92 43.498-205.76-55.94-247.35" stroke="url(#paint25_linear_211_9320)"/><path d="M1091.6 730.145c-53.53 6.564-164.277-1.83-179.014-87.91-18.422-107.601-21.044-119.426-74.148-113.834-53.103 5.591-157.501-14.776-130.199-80.108 27.302-65.331 97.721-132.761 26.687-174.878-71.034-42.117-162.794-18.296-186.672-97.717-23.878-79.42 48.119-202.14-49.05-247.766" stroke="url(#paint26_linear_211_9320)"/><path d="M1085.96 757.971c-52.99 4.154-162.057-9.055-174.444-95.116-15.483-107.577-17.775-119.425-70.316-116.217-52.54 3.208-155.047-21.602-126.47-85.223 28.577-63.621 99.752-127.424 30.713-172.344-69.039-44.92-160.182-25.328-181.755-105.184-21.573-79.855 52.544-198.448-42.197-248.002" stroke="url(#paint27_linear_211_9320)"/><path d="M1080.05 785.731c-52.34 1.79-159.536-16.125-169.591-102.109-12.568-107.479-14.53-119.343-66.407-118.472-51.877.872-152.311-28.272-122.544-90.174 29.766-61.902 101.533-122.108 34.597-169.743-66.936-47.635-157.279-32.198-176.546-112.426C560.292 112.58 636.332-1.89 544.174-55.257" stroke="url(#paint28_linear_211_9320)"/><path d="M1073.87 813.419c-51.6-.522-156.722-23.029-164.464-108.877-9.678-107.31-11.312-119.18-62.428-120.595-51.115-1.415-149.299-34.777-118.427-94.956 30.872-60.178 103.067-116.826 38.339-167.083-64.728-50.257-154.094-38.895-171.054-119.43-16.959-80.536 60.808-190.896-28.616-247.954" stroke="url(#paint29_linear_211_9320)"/></g><defs><linearGradient id="paint0_linear_211_9320" x1="638.989" y1="257.967" x2="639.053" y2="-30.52" gradientUnits="userSpaceOnUse"><stop stop-color="#747C91"/><stop offset="1" stop-color="#747C91" stop-opacity="0"/></linearGradient><linearGradient id="paint1_linear_211_9320" x1="632.898" y1="262.353" x2="642.897" y2="-22.188" gradientUnits="userSpaceOnUse"><stop stop-color="#747C91"/><stop offset="1" stop-color="#747C91" stop-opacity="0"/></linearGradient><linearGradient id="paint2_linear_211_9320" x1="627.41" y1="266.752" x2="647.07" y2="-13.506" gradientUnits="userSpaceOnUse"><stop stop-color="#747C91"/><stop offset="1" stop-color="#747C91" stop-opacity="0"/></linearGradient><linearGradient id="paint3_linear_211_9320" x1="622.532" y1="271.194" x2="651.565" y2="-4.457" gradientUnits="userSpaceOnUse"><stop stop-color="#747C91"/><stop offset="1" stop-color="#747C91" stop-opacity="0"/></linearGradient><linearGradient id="paint4_linear_211_9320" x1="618.253" y1="275.718" x2="656.364" y2="4.981" gradientUnits="userSpaceOnUse"><stop stop-color="#747C91"/><stop offset="1" stop-color="#747C91" stop-opacity="0"/></linearGradient><linearGradient id="paint5_linear_211_9320" x1="614.573" y1="280.302" x2="661.453" y2="14.774" gradientUnits="userSpaceOnUse"><stop stop-color="#747C91"/><stop offset="1" stop-color="#747C91" stop-opacity="0"/></linearGradient><linearGradient id="paint6_linear_211_9320" x1="611.501" y1="285.009" x2="666.835" y2="24.966" gradientUnits="userSpaceOnUse"><stop stop-color="#747C91"/><stop offset="1" stop-color="#747C91" stop-opacity="0"/></linearGradient><linearGradient id="paint7_linear_211_9320" x1="609.02" y1="289.836" x2="672.483" y2="35.541" gradientUnits="userSpaceOnUse"><stop stop-color="#747C91"/><stop offset="1" stop-color="#747C91" stop-opacity="0"/></linearGradient><linearGradient id="paint8_linear_211_9320" x1="607.121" y1="294.812" x2="678.38" y2="46.51" gradientUnits="userSpaceOnUse"><stop stop-color="#747C91"/><stop offset="1" stop-color="#747C91" stop-opacity="0"/></linearGradient><linearGradient id="paint9_linear_211_9320" x1="605.801" y1="299.961" x2="684.516" y2="57.883" gradientUnits="userSpaceOnUse"><stop stop-color="#747C91"/><stop offset="1" stop-color="#747C91" stop-opacity="0"/></linearGradient><linearGradient id="paint10_linear_211_9320" x1="605.07" y1="305.285" x2="690.896" y2="69.644" gradientUnits="userSpaceOnUse"><stop stop-color="#747C91"/><stop offset="1" stop-color="#747C91" stop-opacity="0"/></linearGradient><linearGradient id="paint11_linear_211_9320" x1="604.906" y1="310.828" x2="697.49" y2="81.822" gradientUnits="userSpaceOnUse"><stop stop-color="#747C91"/><stop offset="1" stop-color="#747C91" stop-opacity="0"/></linearGradient><linearGradient id="paint12_linear_211_9320" x1="605.309" y1="316.593" x2="704.295" y2="94.401" gradientUnits="userSpaceOnUse"><stop stop-color="#747C91"/><stop offset="1" stop-color="#747C91" stop-opacity="0"/></linearGradient><linearGradient id="paint13_linear_211_9320" x1="606.263" y1="322.609" x2="711.289" y2="107.395" gradientUnits="userSpaceOnUse"><stop stop-color="#747C91"/><stop offset="1" stop-color="#747C91" stop-opacity="0"/></linearGradient><linearGradient id="paint14_linear_211_9320" x1="607.767" y1="328.884" x2="718.469" y2="120.795" gradientUnits="userSpaceOnUse"><stop stop-color="#747C91"/><stop offset="1" stop-color="#747C91" stop-opacity="0"/></linearGradient><linearGradient id="paint15_linear_211_9320" x1="609.806" y1="335.444" x2="725.817" y2="134.61" gradientUnits="userSpaceOnUse"><stop stop-color="#747C91"/><stop offset="1" stop-color="#747C91" stop-opacity="0"/></linearGradient><linearGradient id="paint16_linear_211_9320" x1="612.366" y1="342.311" x2="733.316" y2="148.846" gradientUnits="userSpaceOnUse"><stop stop-color="#747C91"/><stop offset="1" stop-color="#747C91" stop-opacity="0"/></linearGradient><linearGradient id="paint17_linear_211_9320" x1="615.44" y1="349.502" x2="740.96" y2="163.501" gradientUnits="userSpaceOnUse"><stop stop-color="#747C91"/><stop offset="1" stop-color="#747C91" stop-opacity="0"/></linearGradient><linearGradient id="paint18_linear_211_9320" x1="619.032" y1="357.033" x2="748.749" y2="178.575" gradientUnits="userSpaceOnUse"><stop stop-color="#747C91"/><stop offset="1" stop-color="#747C91" stop-opacity="0"/></linearGradient><linearGradient id="paint19_linear_211_9320" x1="623.091" y1="364.92" x2="756.636" y2="194.069" gradientUnits="userSpaceOnUse"><stop stop-color="#747C91"/><stop offset="1" stop-color="#747C91" stop-opacity="0"/></linearGradient><linearGradient id="paint20_linear_211_9320" x1="627.645" y1="373.178" x2="764.646" y2="209.979" gradientUnits="userSpaceOnUse"><stop stop-color="#747C91"/><stop offset="1" stop-color="#747C91" stop-opacity="0"/></linearGradient><linearGradient id="paint21_linear_211_9320" x1="632.659" y1="381.832" x2="772.749" y2="226.315" gradientUnits="userSpaceOnUse"><stop stop-color="#747C91"/><stop offset="1" stop-color="#747C91" stop-opacity="0"/></linearGradient><linearGradient id="paint22_linear_211_9320" x1="638.125" y1="390.897" x2="780.938" y2="243.075" gradientUnits="userSpaceOnUse"><stop stop-color="#747C91"/><stop offset="1" stop-color="#747C91" stop-opacity="0"/></linearGradient><linearGradient id="paint23_linear_211_9320" x1="644.029" y1="400.365" x2="789.201" y2="260.236" gradientUnits="userSpaceOnUse"><stop stop-color="#747C91"/><stop offset="1" stop-color="#747C91" stop-opacity="0"/></linearGradient><linearGradient id="paint24_linear_211_9320" x1="650.357" y1="410.289" x2="797.529" y2="277.834" gradientUnits="userSpaceOnUse"><stop stop-color="#747C91"/><stop offset="1" stop-color="#747C91" stop-opacity="0"/></linearGradient><linearGradient id="paint25_linear_211_9320" x1="657.094" y1="420.654" x2="805.91" y2="295.839" gradientUnits="userSpaceOnUse"><stop stop-color="#747C91"/><stop offset="1" stop-color="#747C91" stop-opacity="0"/></linearGradient><linearGradient id="paint26_linear_211_9320" x1="664.215" y1="431.487" x2="814.324" y2="314.262" gradientUnits="userSpaceOnUse"><stop stop-color="#747C91"/><stop offset="1" stop-color="#747C91" stop-opacity="0"/></linearGradient><linearGradient id="paint27_linear_211_9320" x1="671.709" y1="442.799" x2="822.767" y2="333.1" gradientUnits="userSpaceOnUse"><stop stop-color="#747C91"/><stop offset="1" stop-color="#747C91" stop-opacity="0"/></linearGradient><linearGradient id="paint28_linear_211_9320" x1="679.562" y1="454.6" x2="831.231" y2="352.348" gradientUnits="userSpaceOnUse"><stop stop-color="#747C91"/><stop offset="1" stop-color="#747C91" stop-opacity="0"/></linearGradient><linearGradient id="paint29_linear_211_9320" x1="687.751" y1="466.909" x2="839.698" y2="372.009" gradientUnits="userSpaceOnUse"><stop stop-color="#747C91"/><stop offset="1" stop-color="#747C91" stop-opacity="0"/></linearGradient></defs></svg>