<svg width="62" height="70" fill="none" xmlns="http://www.w3.org/2000/svg"><path d="M56.985 70H5.015C2.245 70 0 67.761 0 65V5c0-2.761 2.245-5 5.015-5H38.75L62 23.182V65c0 2.761-2.245 5-5.015 5z" fill="url(#paint0_linear_320_11589)"/><path d="M16 38.612h4.08c1.504 0 2.613.326 3.328.976.715.64 1.072 1.504 1.072 2.592s-.357 1.958-1.072 2.608c-.715.64-1.824.96-3.328.96h-2.16v4.064H16v-11.2zm3.92 5.472a6.03 6.03 0 001.264-.112c.341-.085.613-.202.816-.352a1.31 1.31 0 00.432-.592c.085-.245.128-.528.128-.848 0-.32-.043-.597-.128-.832a1.315 1.315 0 00-.432-.592c-.203-.16-.475-.277-.816-.352-.341-.085-.763-.128-1.264-.128h-2v3.808h2zm6.643-5.472h3.6c1.695 0 3.013.454 3.951 1.36.94.896 1.409 2.23 1.409 4v.32c0 .896-.129 1.691-.385 2.384a4.507 4.507 0 01-1.087 1.728 4.711 4.711 0 01-1.729 1.056c-.682.235-1.456.352-2.32.352h-3.44v-11.2zm3.28 9.536c.544 0 1.04-.069 1.488-.208a2.921 2.921 0 001.168-.656c.32-.309.565-.709.735-1.2.182-.49.273-1.088.273-1.792v-.32c0-.65-.091-1.21-.273-1.68a3.151 3.151 0 00-.736-1.152 2.807 2.807 0 00-1.12-.656 4.425 4.425 0 00-1.375-.208h-1.52v7.872h1.36zm8.001-9.536h7.44v1.664h-5.52v3.184h5.04v1.664h-5.04v4.688h-1.92v-11.2z" fill="#fff"/><path d="M61.818 23.182h-18.61a4.571 4.571 0 01-4.572-4.572V0l23.182 23.182z" fill="url(#paint1_linear_320_11589)"/><defs><linearGradient id="paint0_linear_320_11589" x1="31" y1="0" x2="31" y2="70" gradientUnits="userSpaceOnUse"><stop stop-color="#FF7981"/><stop offset="1" stop-color="#E85567"/></linearGradient><linearGradient id="paint1_linear_320_11589" x1="50.227" y1="0" x2="50.227" y2="23.182" gradientUnits="userSpaceOnUse"><stop stop-color="#D03954"/><stop offset="1" stop-color="#C02A3C"/></linearGradient></defs></svg>