<svg width="61" height="60" fill="none" xmlns="http://www.w3.org/2000/svg"><path d="M30.5 60c16.569 0 30-13.431 30-30 0-16.569-13.431-30-30-30C13.931 0 .5 13.431.5 30c0 16.569 13.431 30 30 30z" fill="#25D366"/><path fill-rule="evenodd" clip-rule="evenodd" d="M31.489 46.69h-.008a17.823 17.823 0 01-8.524-2.17L13.5 47l2.53-9.244a17.807 17.807 0 01-2.38-8.918C13.653 19.002 21.656 11 31.489 11a17.724 17.724 0 0112.619 5.232 17.73 17.73 0 015.22 12.62c-.004 9.833-8.004 17.835-17.84 17.839zm-8.094-5.4l.541.321a14.804 14.804 0 007.547 2.067h.006c8.172 0 14.823-6.652 14.827-14.827a14.738 14.738 0 00-4.339-10.49 14.726 14.726 0 00-10.482-4.348c-8.179 0-14.83 6.65-14.834 14.826a14.79 14.79 0 002.267 7.89l.353.562-1.498 5.47 5.612-1.471zm16.47-8.597c.311.15.521.251.611.4.111.187.111 1.08-.26 2.12-.372 1.042-2.152 1.992-3.009 2.12-.767.115-1.74.163-2.807-.177a25.616 25.616 0 01-2.541-.939c-4.179-1.804-7.003-5.854-7.536-6.62a5.421 5.421 0 00-.079-.11l-.003-.005c-.236-.315-1.817-2.423-1.817-4.606 0-2.053 1.009-3.13 1.473-3.625l.087-.094c.409-.446.892-.557 1.19-.557.296 0 .594.002.853.015.032.002.066.002.1.002.26-.002.584-.004.903.764.123.295.303.733.493 1.195.383.933.807 1.965.881 2.114.112.223.186.484.038.781a15.62 15.62 0 00-.063.127c-.112.228-.194.396-.383.617l-.229.274a7.382 7.382 0 01-.44.507c-.223.222-.455.463-.195.91.26.446 1.154 1.905 2.48 3.087a11.511 11.511 0 003.29 2.08c.122.053.221.096.294.133.446.223.706.185.966-.112.26-.298 1.114-1.302 1.411-1.748.297-.446.594-.372 1.003-.223.409.149 2.6 1.227 3.046 1.45l.243.12z" fill="#FDFDFD"/></svg>