<svg width="61" height="60" fill="none" xmlns="http://www.w3.org/2000/svg"><path d="M.5 30c0-16.569 13.431-30 30-30 16.569 0 30 13.431 30 30 0 16.569-13.431 30-30 30-16.569 0-30-13.431-30-30z" fill="#168DE2"/><path fill-rule="evenodd" clip-rule="evenodd" d="M13 29.95c0-9.622 7.85-17.45 17.5-17.45S48 20.328 48 29.95c0 1.364-.114 2.467-.369 3.575l-.004.018c0 .003-.127.514-.197.737-.432 1.379-1.215 2.528-2.264 3.322a5.92 5.92 0 01-4.023 1.176 5.692 5.692 0 01-4.372-2.606 8.794 8.794 0 01-6.271 2.605c-4.881 0-8.852-3.96-8.852-8.827s3.97-8.826 8.852-8.826c4.88 0 8.852 3.96 8.852 8.826v2.846c.007 1.66 1.124 2.339 2.079 2.415.95.074 2.213-.478 2.653-2.278a13.91 13.91 0 00.328-2.983c0-7.65-6.241-13.872-13.912-13.872-7.671 0-13.912 6.223-13.912 13.872 0 7.65 6.24 13.873 13.912 13.873 2.67 0 5.267-.76 7.51-2.2l.04-.025 2.358 2.733-.051.035A17.432 17.432 0 0130.5 47.4c-9.65 0-17.5-7.828-17.5-17.45zm17.5 5.25c2.902 0 5.264-2.355 5.264-5.25 0-2.894-2.362-5.249-5.264-5.249-2.903 0-5.264 2.355-5.264 5.25 0 2.894 2.361 5.248 5.264 5.248z" fill="#fff"/></svg>