<svg width="61" height="60" fill="none" xmlns="http://www.w3.org/2000/svg"><path d="M60.5 30c0 16.569-13.431 30-30 30-16.569 0-30-13.431-30-30 0-16.569 13.431-30 30-30 16.569 0 30 13.431 30 30z" fill="#4680C2"/><path fill-rule="evenodd" clip-rule="evenodd" d="M49.541 21.651c.297-.931 0-1.609-1.312-1.609h-4.361c-1.101 0-1.61.593-1.906 1.228 0 0-2.244 5.42-5.378 8.934-1.016 1.017-1.482 1.355-2.032 1.355-.296 0-.677-.338-.677-1.27v-8.68c0-1.101-.34-1.61-1.27-1.61h-6.86c-.678 0-1.101.509-1.101 1.017 0 1.059 1.567 1.313 1.736 4.277v6.436c0 1.397-.254 1.651-.805 1.651-1.482 0-5.08-5.462-7.24-11.687C17.91 20.465 17.488 20 16.387 20h-4.404c-1.27 0-1.482.593-1.482 1.228 0 1.143 1.482 6.902 6.902 14.523 3.6 5.208 8.723 8.003 13.338 8.003 2.795 0 3.134-.635 3.134-1.694v-3.937c0-1.27.254-1.482 1.143-1.482.635 0 1.778.338 4.361 2.836 2.964 2.964 3.472 4.32 5.124 4.32h4.361c1.27 0 1.863-.636 1.524-1.864-.38-1.228-1.82-3.006-3.683-5.123-1.017-1.186-2.541-2.498-3.007-3.134-.635-.846-.466-1.185 0-1.947-.042 0 5.293-7.537 5.843-10.078z" fill="#fff"/></svg>