<svg width="61" height="60" fill="none" xmlns="http://www.w3.org/2000/svg"><path d="M30.5 60c16.569 0 30-13.431 30-30 0-16.569-13.431-30-30-30C13.931 0 .5 13.431.5 30c0 16.569 13.431 30 30 30z" fill="url(#paint0_linear_436_17443)"/><path d="M11.674 31.468c3.507-1.932 7.422-3.544 11.08-5.165 6.292-2.654 12.61-5.262 18.991-7.69 1.242-.415 3.473-.82 3.692 1.02-.12 2.605-.613 5.195-.95 7.784-.859 5.694-1.85 11.368-2.817 17.044-.333 1.89-2.701 2.869-4.217 1.659-3.641-2.46-7.31-4.896-10.906-7.412-1.177-1.197-.085-2.915.967-3.77 2.999-2.956 6.18-5.467 9.022-8.575.767-1.852-1.499-.291-2.246.187-4.106 2.83-8.111 5.831-12.44 8.318-2.212 1.217-4.789.177-7-.502-1.98-.82-4.885-1.647-3.176-2.898z" fill="#fff"/><defs><linearGradient id="paint0_linear_436_17443" x1="23.003" y1="2.502" x2="8.004" y2="37.5" gradientUnits="userSpaceOnUse"><stop stop-color="#37AEE2"/><stop offset="1" stop-color="#1E96C8"/></linearGradient></defs></svg>