<svg display="none" xmlns="http://www.w3.org/2000/svg">

    <symbol id="arrow-right" viewBox="0 0 16 14">
        <path d="M10.3298 10.2906L14.1307 6.70083M14.1307 6.70083L10.3298 3.11108M14.1307 6.70083H1.77777" stroke-width="2" stroke-linecap="square" stroke-linejoin="round"/>
    </symbol>

    <symbol id="caretLeft" viewBox="0 0 10 16">
        <path d="M9 1L2 8L9 15" stroke-width="2" fill="none" stroke-linecap="round"/>
    </symbol>

    <symbol id="caretRight" viewBox="0 0 10 16">
        <path d="M1 1L8 8L1 15" stroke-width="2" fill="none" stroke-linecap="round"/>
    </symbol>

    <symbol id="caretDown" viewBox="0 0 18 18" fill="none" xmlns="http://www.w3.org/2000/svg">
        <path d="M4 7L9 12L14 7" fill="none" stroke-width="2" stroke-linecap="round"/>
    </symbol>


    <symbol id="linkArrow" viewBox="0 0 18 24">
        <path d="M17 1L1 17M3.50505 1H17V14.4949" fill="none" stroke-width="2" stroke-linecap="round" stroke-linejoin="round"/>
    </symbol>

    <symbol id="minus" viewBox="0 0 23 22">
        <path d="M5.13892 11H17.3611" fill="none" stroke-width="2" stroke-linecap="round"/>
    </symbol>

    <symbol id="plus" viewBox="0 0 23 22">
        <path d="M11.25 4.88892V17.1111M5.13885 11H17.3611" fill="none" stroke-width="2" stroke-linecap="round" stroke-linejoin="round"/>
    </symbol>

    <symbol id="telegram" viewBox="0 0 18 19">
        <path d="M17.9918 2.3986C18.0268 2.18879 17.9481 1.97614 17.7849 1.83969C17.6217 1.70324 17.3985 1.66337 17.1982 1.73491L0.398204 7.73491C0.17185 7.81575 0.015584 8.02388 0.00109644 8.26379C-0.0133911 8.50371 0.116696 8.72913 0.331677 8.83662L5.13168 11.2366C5.32426 11.3329 5.55367 11.3186 5.73283 11.1992L9.7173 8.54287L7.33148 11.5251C7.22643 11.6565 7.18131 11.8258 7.20711 11.992C7.23291 12.1582 7.32726 12.3059 7.46719 12.3992L14.6672 17.1992C14.8366 17.3121 15.0517 17.3314 15.2385 17.2505C15.4253 17.1696 15.5584 16.9994 15.5918 16.7986L17.9918 2.3986Z"/>
    </symbol>

</svg>
