<svg display="none" xmlns="http://www.w3.org/2000/svg">

    <symbol id="arrow-right" viewBox="0 0 16 14">
        <path d="M10.3298 10.2906L14.1307 6.70083M14.1307 6.70083L10.3298 3.11108M14.1307 6.70083H1.77777" stroke-width="2" stroke-linecap="square" stroke-linejoin="round"/>
    </symbol>

    <symbol id="caretLeft" viewBox="0 0 10 16">
        <path d="M9 1L2 8L9 15" stroke-width="2" fill="none" stroke-linecap="round"/>
    </symbol>

    <symbol id="caretRight" viewBox="0 0 10 16">
        <path d="M1 1L8 8L1 15" stroke-width="2" fill="none" stroke-linecap="round"/>
    </symbol>

    <symbol id="caretDown" viewBox="0 0 18 18" fill="none" xmlns="http://www.w3.org/2000/svg">
        <path d="M4 7L9 12L14 7" fill="none" stroke-width="2" stroke-linecap="round"/>
    </symbol>


    <symbol id="linkArrow" viewBox="0 0 18 24">
        <path d="M17 1L1 17M3.50505 1H17V14.4949" fill="none" stroke-width="2" stroke-linecap="round" stroke-linejoin="round"/>
    </symbol>

    <symbol id="minus" viewBox="0 0 23 22">
        <path d="M5.13892 11H17.3611" fill="none" stroke-width="2" stroke-linecap="round"/>
    </symbol>

    <symbol id="plus" viewBox="0 0 23 22">
        <path d="M11.25 4.88892V17.1111M5.13885 11H17.3611" fill="none" stroke-width="2" stroke-linecap="round" stroke-linejoin="round"/>
    </symbol>

    <symbol id="telegram" viewBox="0 0 18 19">
        <path d="M0.271863 9.43433C2.11331 8.42001 4.16886 7.57345 6.08948 6.72255C9.39367 5.32886 12.711 3.95932 16.0618 2.68429C16.7138 2.46704 17.8851 2.25458 18 3.22073C17.9371 4.5883 17.6784 5.94786 17.5009 7.30743C17.0505 10.2972 16.5298 13.2768 16.0222 16.2568C15.8472 17.2494 14.6038 17.7632 13.8082 17.128C11.8961 15.8364 9.96929 14.5575 8.08163 13.236C7.46328 12.6077 8.03667 11.7054 8.58892 11.2567C10.1638 9.70468 11.8339 8.38607 13.3265 6.75386C13.7291 5.78161 12.5395 6.601 12.1471 6.85205C9.99115 8.33777 7.88794 9.91419 5.61487 11.2199C4.45378 11.8591 3.10052 11.3129 1.93996 10.9562C0.899373 10.5254 -0.625473 10.0913 0.271758 9.4344L0.271863 9.43433Z"/>
    </symbol>


</svg>
