<svg width="564" height="221" fill="none" xmlns="http://www.w3.org/2000/svg"><g opacity=".3" stroke="#fff"><path d="M694.501 285.211c-36.316 25.029-120.521 55.53-166.817-22.699-57.87-97.785-40.997-248.96-150.471-199.242-109.474 49.717-252.895 63.043-285.734-126.83"/><path d="M695.323 311.746c-37.576 23.094-123.262 49.146-165.4-31.398-52.673-100.68-27.911-250.764-139.837-206.845-111.926 43.92-255.848 49.721-278.705-141.61"/><path d="M694.866 338.61c-38.733 21.096-125.666 42.629-163.531-40.011-47.331-103.299-14.749-251.881-128.82-213.88-114.071 38.002-258.099 36.264-270.911-156.002"/><path d="M693.112 365.734c-39.784 19.04-127.724 35.993-161.213-48.514-41.86-105.635-1.546-252.309-117.45-220.33-115.903 31.98-259.643 22.706-262.375-169.967"/><path d="M690.052 393.051c-40.726 16.932-129.433 29.259-158.453-56.885-36.274-107.681 11.661-252.043-105.757-226.174-117.419 25.87-260.477 9.086-253.121-183.466"/><path d="M685.677 420.491c-41.557 14.777-130.787 22.445-155.259-65.1-30.589-109.431 24.836-251.087-93.775-231.398-118.612 19.689-260.595-4.559-243.172-196.463"/><path d="M679.98 447.986c-42.273 12.582-131.782 15.569-151.638-73.136-24.82-110.883 37.943-249.444-81.537-235.99-119.479 13.455-259.999-18.191-232.556-208.92"/><path d="M672.964 475.467c-42.874 10.353-132.417 8.651-147.603-80.972-18.983-112.03 50.945-247.116-69.074-239.933-120.02 7.183-258.691-31.774-221.304-220.805"/><path d="M664.628 502.864c-43.356 8.094-132.688 1.709-143.163-88.586-13.093-112.87 63.809-244.111-56.422-243.22-120.232.892-256.674-45.269-209.445-232.083"/><path d="M654.982 530.109c-43.721 5.815-132.596-5.237-138.331-95.957-7.168-113.4 76.497-240.437-43.616-245.839-120.113-5.402-253.952-58.64-197.011-242.727"/></g></svg>