<svg width="281" height="191" fill="none" xmlns="http://www.w3.org/2000/svg"><g opacity=".3" stroke="#fff"><path d="M347.011 153.976c-18.132 12.496-60.175 27.725-83.29-11.333-28.893-48.824-20.469-124.303-75.128-99.48C133.934 67.986 62.325 74.64 45.929-20.162"/><path d="M347.422 167.225c-18.761 11.53-61.544 24.538-82.583-15.677C238.54 101.28 250.904 26.344 195.02 48.273 139.137 70.2 67.278 73.098 55.866-22.432"/><path d="M347.193 180.638c-19.339 10.533-62.744 21.283-81.649-19.977-23.632-51.576-7.364-125.762-64.319-106.788-56.954 18.974-128.866 18.105-135.263-77.89"/><path d="M346.317 194.18c-19.863 9.507-63.771 17.971-80.491-24.222-20.9-52.743-.772-125.975-58.642-110.008-57.869 15.967-129.637 11.337-131-84.863"/><path d="M344.79 207.819c-20.334 8.454-64.625 14.609-79.114-28.402-18.111-53.764 5.822-125.842-52.804-112.926-58.625 12.916-130.052 4.536-126.38-91.603"/><path d="M342.606 221.52c-20.748 7.378-65.3 11.206-77.518-32.504-15.273-54.638 12.4-125.365-46.822-115.535-59.221 9.83-130.112-2.276-121.413-98.091"/><path d="M339.762 235.248c-21.107 6.282-65.798 7.773-75.712-36.517-12.392-55.362 18.945-124.544-40.71-117.826-59.655 6.717-129.815-9.083-116.113-104.312"/><path d="M336.258 248.969c-21.407 5.169-66.115 4.319-73.697-40.429-9.478-55.935 25.437-123.382-34.488-119.796C168.148 92.331 98.912 72.88 117.579-21.5"/><path d="M332.096 262.648c-21.647 4.041-66.249.853-71.479-44.231-6.538-56.354 31.859-121.882-28.172-121.436-60.03.445-128.154-22.603-104.573-115.877"/><path d="M327.278 276.251c-21.829 2.903-66.203-2.615-69.066-47.91-3.58-56.62 38.194-120.048-21.777-122.745-59.972-2.697-126.796-29.279-98.366-121.191"/></g></svg>