<svg width="88" height="98" fill="none" xmlns="http://www.w3.org/2000/svg"><mask id="a" style="mask-type:alpha" maskUnits="userSpaceOnUse" x="0" y="0" width="88" height="98"><path d="M80.882 98H7.118C3.187 98 0 94.866 0 91V7c0-3.866 3.187-7 7.118-7H55l33 32.455V91c0 3.866-3.187 7-7.118 7z" fill="url(#paint0_linear_584_20119)"/></mask><g mask="url(#a)"><path d="M80.882 98H7.118C3.187 98 0 94.866 0 91V7c0-3.866 3.187-7 7.118-7H55l33 32.455V91c0 3.866-3.187 7-7.118 7z" fill="url(#paint1_linear_584_20119)"/><path d="M21.679 55.23v.322h4.793V69.32h2.023V55.55h4.794v-1.87h-11.61v1.551zm16.36-1.404l-.094-.147h-2.404l.328.498 4.825 7.323-4.825 7.323-.328.498h2.403l.095-.146 3.966-6.098 3.967 6.098.095.146h2.397l-.321-.496-4.754-7.325 4.754-7.325.322-.496h-2.399l-.095.147-3.965 6.166-3.966-6.166zm12.672 1.404v.322h4.793V69.32h2.023V55.55h4.794v-1.87h-11.61v1.551z" fill="#fff" stroke="#fff" stroke-width=".642"/><path d="M88 32H62.062A7.062 7.062 0 0155 24.938V0l33 32z" fill="url(#paint2_linear_584_20119)"/></g><defs><linearGradient id="paint0_linear_584_20119" x1="44" y1="0" x2="44" y2="98" gradientUnits="userSpaceOnUse"><stop stop-color="#FF7979"/><stop offset="1" stop-color="#E85555"/></linearGradient><linearGradient id="paint1_linear_584_20119" x1="44" y1="0" x2="44" y2="98" gradientUnits="userSpaceOnUse"><stop stop-color="#B4B6BC"/><stop offset=".073" stop-color="#B1B3B9"/><stop offset="1" stop-color="#8D8F94"/></linearGradient><linearGradient id="paint2_linear_584_20119" x1="71.5" y1="0" x2="71.5" y2="32" gradientUnits="userSpaceOnUse"><stop stop-color="#979CAB"/><stop offset="1" stop-color="#797C88"/></linearGradient></defs></svg>