<svg width="88" height="98" fill="none" xmlns="http://www.w3.org/2000/svg"><mask id="a" style="mask-type:alpha" maskUnits="userSpaceOnUse" x="0" y="0" width="88" height="98"><path d="M80.882 98H7.118C3.187 98 0 94.866 0 91V7c0-3.866 3.187-7 7.118-7H55l33 32.455V91c0 3.866-3.187 7-7.118 7z" fill="url(#paint0_linear_584_20117)"/></mask><g mask="url(#a)"><path d="M80.882 98H7.118C3.187 98 0 94.866 0 91V7c0-3.866 3.187-7 7.118-7H55l33 32.455V91c0 3.866-3.187 7-7.118 7z" fill="url(#paint1_linear_584_20117)"/><path d="M24.916 54.05l-.094-.151h-2.409l.317.494 4.865 7.584-4.865 7.584-.317.495h2.408l.094-.15L28.91 63.6l3.995 6.308.095.149h2.403l-.311-.493-4.794-7.586 4.794-7.586.31-.492H33l-.095.15-3.994 6.378-3.994-6.378zm13.687 15.685v.32h9.293v-1.913h-7.26V53.898h-2.033v15.836zM60.126 58.13l.028.29h1.971l-.013-.334a4.166 4.166 0 00-.748-2.276c-.46-.67-1.082-1.193-1.857-1.569-.78-.377-1.667-.562-2.655-.562-.979 0-1.872.188-2.674.569-.796.376-1.436.906-1.911 1.592h0c-.477.69-.712 1.487-.712 2.38 0 1.074.36 1.977 1.086 2.684.707.688 1.685 1.211 2.913 1.585h.001l1.823.546h0c.616.183 1.15.39 1.605.622h.001c.446.225.778.496 1.01.808l.002.002c.218.287.337.655.337 1.124 0 .558-.153 1.036-.452 1.447h0c-.3.413-.718.743-1.268.986-.543.237-1.172.36-1.895.36-.65 0-1.228-.103-1.741-.304a2.968 2.968 0 01-1.224-.874c-.3-.368-.478-.822-.523-1.376l-.024-.295h-2.068l.023.342c.058.872.321 1.65.794 2.323.473.672 1.119 1.194 1.928 1.569h.002c.814.372 1.762.552 2.833.552 1.138 0 2.133-.198 2.975-.608h.002c.834-.412 1.487-.975 1.943-1.692a4.391 4.391 0 00.683-2.407c0-.687-.132-1.294-.41-1.81a3.898 3.898 0 00-1.058-1.275 6.158 6.158 0 00-1.403-.846 11.547 11.547 0 00-1.498-.537h-.001l-1.604-.47h0a8.844 8.844 0 01-1.055-.38 4.878 4.878 0 01-.919-.523 2.266 2.266 0 01-.61-.696 1.835 1.835 0 01-.22-.918c0-.493.133-.923.396-1.3a2.761 2.761 0 011.136-.924c.491-.224 1.069-.341 1.74-.341.95 0 1.714.24 2.312.698.59.454.923 1.059.999 1.838z" fill="#fff" stroke="#fff" stroke-width=".642"/><path d="M88 32H62.062A7.062 7.062 0 0155 24.938V0l33 32z" fill="url(#paint2_linear_584_20117)"/></g><defs><linearGradient id="paint0_linear_584_20117" x1="44" y1="0" x2="44" y2="98" gradientUnits="userSpaceOnUse"><stop stop-color="#FF7979"/><stop offset="1" stop-color="#E85555"/></linearGradient><linearGradient id="paint1_linear_584_20117" x1="44" y1="0" x2="44" y2="98" gradientUnits="userSpaceOnUse"><stop offset="0" stop-color="#83CC70"/><stop offset="1" stop-color="#61A850"/></linearGradient><linearGradient id="paint2_linear_584_20117" x1="71.5" y1="0" x2="71.5" y2="32" gradientUnits="userSpaceOnUse"><stop stop-color="#3FAF43"/><stop offset="1" stop-color="#0E8312"/></linearGradient></defs></svg>