<svg width="88" height="98" fill="none" xmlns="http://www.w3.org/2000/svg"><mask id="a" style="mask-type:alpha" maskUnits="userSpaceOnUse" x="0" y="0" width="88" height="98"><path d="M80.882 98H7.118C3.187 98 0 94.866 0 91V7c0-3.866 3.187-7 7.118-7H55l33 32.455V91c0 3.866-3.187 7-7.118 7z" fill="url(#paint0_linear_584_20118)"/></mask><g mask="url(#a)"><path d="M80.882 98H7.118C3.187 98 0 94.866 0 91V7c0-3.866 3.187-7 7.118-7H55l33 32.455V91c0 3.866-3.187 7-7.118 7z" fill="url(#paint1_linear_584_20118)"/><path d="M28.724 69v.321h10.898v-1.873h-8.314l8.185-12.237.054-.08v-1.452H28.68v1.873h8.276l-8.178 12.237-.054.08V69zM45.88 54v-.321h-2.042v15.642h2.042V54zm4.91 15v.321h2.042v-5.735h3.25c1.121 0 2.084-.21 2.873-.648l.002-.001c.779-.438 1.373-1.036 1.773-1.792v-.001c.396-.754.591-1.594.591-2.515s-.198-1.76-.6-2.51c-.4-.755-.996-1.35-1.78-1.784-.79-.444-1.756-.656-2.882-.656H50.79V69zm1.72-13.77h.322v.322h-.321v-.322zm.322 6.484h-.321v.32h.32v-.32zm5.055-.4s0 0 0 0l-.002.002.158.28-.156-.282z" fill="#fff" stroke="#fff" stroke-width=".642"/><path d="M88 32H62.062A7.062 7.062 0 0155 24.938V0l33 32z" fill="url(#paint2_linear_584_20118)"/></g><defs><linearGradient id="paint0_linear_584_20118" x1="44" y1="0" x2="44" y2="98" gradientUnits="userSpaceOnUse"><stop stop-color="#FF7979"/><stop offset="1" stop-color="#E85555"/></linearGradient><linearGradient id="paint1_linear_584_20118" x1="44" y1="0" x2="44" y2="98" gradientUnits="userSpaceOnUse"><stop stop-color="#2EBC89"/><stop offset="1" stop-color="#1DA473"/></linearGradient><linearGradient id="paint2_linear_584_20118" x1="71.5" y1="0" x2="71.5" y2="32" gradientUnits="userSpaceOnUse"><stop stop-color="#23A476"/><stop offset="1" stop-color="#11835A"/></linearGradient></defs></svg>